
/**  Copyright 2007-2010 Pawel Goralski
    e-mail: pawel.goralski@nokturnal.pl
    This file is part of AMIDILIB.
    See license.txt for licensing information.
*/

#include "roland.h"
#include "midi_cmd.h"
#include "midi_send.h"

/* file contains all instrument tables for Roland MT-32 family devices */

// resets the MT-32 to its default timbres.
static U8 const mt32_Reset[8]={0xf0,0x41,0x10,0x16,0x12,0x7f,0x01,0xf7};

// official Roland SysEX patches
// for CM-500 mode A
static U8 const arCM500AllPartsOn[8]={0xf0,0x41,0x10,0x16,0x12,0x7f,0x01,0xf7};
static U8 const arCM500AllPartsOff[8]={0xf0,0x41,0x10,0x16,0x12,0x7f,0x01,0xf7};


// MT-32 setup data
// MTGM basic setup file with 64 new sounds and a new patchmap

static const U8 mt32_gm[27607]={
    0x4d, 0x54, 0x68, 0x64, 0x00, 0x00, 0x00, 0x06, 0x00, 0x00, 0x00, 0x01,
    0x01, 0xe0, 0x4d, 0x54, 0x72, 0x6b, 0x00, 0x00, 0x6b, 0xc1, 0x00, 0xff,
    0x03, 0x0d, 0x4c, 0x41, 0x31, 0x20, 0x20, 0x20, 0x20, 0x20, 0x20, 0x20,
    0x20, 0x20, 0x20, 0x00, 0xff, 0x54, 0x05, 0x60, 0x00, 0x00, 0x00, 0x00,
    0x00, 0xff, 0x58, 0x04, 0x04, 0x02, 0x18, 0x08, 0x00, 0xff, 0x51, 0x03,
    0x07, 0xa1, 0x00, 0x83, 0x6a, 0xf0, 0x82, 0x09, 0x41, 0x10, 0x16, 0x12,
    0x08, 0x00, 0x00, 0x50, 0x69, 0x61, 0x6e, 0x6f, 0x3f, 0x20, 0x20, 0x20,
    0x20, 0x01, 0x05, 0x0f, 0x00, 0x24, 0x32, 0x10, 0x01, 0x00, 0x00, 0x4b,
    0x07, 0x03, 0x00, 0x00, 0x0b, 0x0c, 0x11, 0x00, 0x46, 0x3d, 0x36, 0x32,
    0x32, 0x40, 0x03, 0x39, 0x4c, 0x00, 0x06, 0x0f, 0x09, 0x1e, 0x50, 0x00,
    0x02, 0x00, 0x02, 0x0f, 0x5d, 0x60, 0x46, 0x3c, 0x1b, 0x10, 0x64, 0x5a,
    0x5b, 0x0c, 0x1b, 0x0c, 0x03, 0x02, 0x01, 0x0b, 0x28, 0x56, 0x44, 0x64,
    0x5a, 0x56, 0x00, 0x50, 0x16, 0x0a, 0x01, 0x00, 0x00, 0x4b, 0x07, 0x03,
    0x00, 0x00, 0x0b, 0x0c, 0x11, 0x00, 0x46, 0x3d, 0x36, 0x32, 0x32, 0x40,
    0x03, 0x28, 0x46, 0x00, 0x08, 0x0a, 0x0b, 0x19, 0x15, 0x00, 0x01, 0x00,
    0x07, 0x1d, 0x64, 0x60, 0x61, 0x3c, 0x2d, 0x00, 0x49, 0x5a, 0x40, 0x08,
    0x1b, 0x0c, 0x01, 0x00, 0x01, 0x0a, 0x20, 0x64, 0x64, 0x64, 0x5a, 0x42,
    0x00, 0x24, 0x3a, 0x10, 0x01, 0x00, 0x1f, 0x44, 0x07, 0x03, 0x00, 0x00,
    0x0b, 0x0c, 0x11, 0x00, 0x46, 0x3d, 0x36, 0x32, 0x32, 0x40, 0x03, 0x2c,
    0x46, 0x00, 0x08, 0x0f, 0x0a, 0x19, 0x64, 0x01, 0x01, 0x01, 0x02, 0x0f,
    0x5d, 0x60, 0x46, 0x3c, 0x1b, 0x10, 0x33, 0x5a, 0x40, 0x05, 0x1b, 0x0c,
    0x02, 0x02, 0x00, 0x0a, 0x35, 0x59, 0x46, 0x64, 0x4f, 0x24, 0x00, 0x31,
    0x32, 0x06, 0x00, 0x00, 0x14, 0x00, 0x07, 0x00, 0x00, 0x00, 0x00, 0x00,
    0x00, 0x00, 0x32, 0x32, 0x32, 0x32, 0x32, 0x00, 0x00, 0x00, 0x00, 0x00,
    0x0b, 0x00, 0x07, 0x00, 0x00, 0x00, 0x00, 0x00, 0x00, 0x00, 0x00, 0x00,
    0x00, 0x00, 0x00, 0x00, 0x50, 0x5f, 0x5b, 0x0c, 0x3b, 0x06, 0x00, 0x00,
    0x00, 0x00, 0x00, 0x00, 0x64, 0x00, 0x00, 0x00, 0x63, 0x00, 0x00, 0x00,
    0x00, 0x00, 0x00, 0x00, 0x00, 0x00, 0x00, 0x16, 0xf7, 0x55, 0xf0, 0x82,
    0x09, 0x41, 0x10, 0x16, 0x12, 0x08, 0x02, 0x00, 0x4d, 0x75, 0x73, 0x69,
    0x63, 0x42, 0x6f, 0x78, 0x20, 0x20, 0x01, 0x02, 0x03, 0x01, 0x30, 0x32,
    0x10, 0x01, 0x01, 0x00, 0x00, 0x07, 0x00, 0x00, 0x00, 0x00, 0x00, 0x00,
    0x00, 0x32, 0x32, 0x32, 0x32, 0x32, 0x3c, 0x04, 0x3c, 0x35, 0x00, 0x0b,
    0x00, 0x07, 0x00, 0x00, 0x00, 0x00, 0x00, 0x00, 0x00, 0x00, 0x00, 0x00,
    0x00, 0x00, 0x00, 0x64, 0x46, 0x5b, 0x0c, 0x1b, 0x0c, 0x03, 0x00, 0x00,
    0x07, 0x37, 0x47, 0x4c, 0x64, 0x4f, 0x34, 0x00, 0x4f, 0x32, 0x10, 0x01,
    0x01, 0x00, 0x00, 0x07, 0x03, 0x00, 0x00, 0x01, 0x24, 0x00, 0x00, 0x64,
    0x33, 0x32, 0x32, 0x32, 0x42, 0x13, 0x3c, 0x50, 0x00, 0x09, 0x33, 0x07,
    0x00, 0x00, 0x00, 0x00, 0x00, 0x00, 0x00, 0x00, 0x00, 0x00, 0x00, 0x00,
    0x00, 0x64, 0x50, 0x5b, 0x08, 0x1b, 0x0c, 0x01, 0x00, 0x00, 0x1e, 0x2a,
    0x47, 0x4c, 0x64, 0x64, 0x30, 0x00, 0x2a, 0x32, 0x06, 0x00, 0x00, 0x34,
    0x00, 0x07, 0x00, 0x00, 0x00, 0x00, 0x00, 0x00, 0x00, 0x32, 0x32, 0x32,
    0x32, 0x32, 0x00, 0x00, 0x00, 0x00, 0x00, 0x0b, 0x00, 0x07, 0x00, 0x00,
    0x00, 0x00, 0x00, 0x00, 0x00, 0x00, 0x00, 0x00, 0x00, 0x00, 0x00, 0x45,
    0x5f, 0x5b, 0x0c, 0x1b, 0x0c, 0x00, 0x00, 0x00, 0x10, 0x0f, 0x1f, 0x1b,
    0x64, 0x64, 0x4f, 0x1f, 0x24, 0x32, 0x0b, 0x00, 0x00, 0x00, 0x00, 0x07,
    0x00, 0x00, 0x00, 0x00, 0x00, 0x00, 0x00, 0x32, 0x32, 0x32, 0x32, 0x32,
    0x00, 0x00, 0x00, 0x00, 0x00, 0x0b, 0x00, 0x07, 0x00, 0x00, 0x00, 0x00,
    0x00, 0x00, 0x00, 0x00, 0x00, 0x00, 0x00, 0x00, 0x00, 0x00, 0x32, 0x5b,
    0x0c, 0x1b, 0x0c, 0x00, 0x00, 0x00, 0x00, 0x00, 0x00, 0x00, 0x00, 0x00,
    0x00, 0x00, 0x00, 0x00, 0x00, 0x00, 0x00, 0x00, 0x00, 0x00, 0x00, 0x00,
    0x17, 0xf7, 0x5a, 0xf0, 0x82, 0x09, 0x41, 0x10, 0x16, 0x12, 0x08, 0x04,
    0x00, 0x52, 0x65, 0x65, 0x64, 0x4f, 0x72, 0x67, 0x61, 0x6e, 0x20, 0x00,
    0x07, 0x03, 0x00, 0x24, 0x38, 0x0f, 0x01, 0x00, 0x00, 0x38, 0x07, 0x06,
    0x00, 0x04, 0x00, 0x14, 0x00, 0x4e, 0x32, 0x32, 0x18, 0x32, 0x32, 0x40,
    0x00, 0x64, 0x4c, 0x0f, 0x07, 0x00, 0x0a, 0x25, 0x41, 0x00, 0x00, 0x00,
    0x00, 0x00, 0x00, 0x52, 0x54, 0x00, 0x00, 0x00, 0x4b, 0x4b, 0x69, 0x09,
    0x0f, 0x0c, 0x01, 0x04, 0x07, 0x64, 0x0c, 0x55, 0x41, 0x5c, 0x5d, 0x56,
    0x64, 0x30, 0x32, 0x0f, 0x01, 0x01, 0x00, 0x41, 0x07, 0x00, 0x01, 0x00,
    0x0d, 0x00, 0x00, 0x64, 0x32, 0x42, 0x29, 0x32, 0x32, 0x40, 0x00, 0x00,
    0x57, 0x00, 0x09, 0x30, 0x04, 0x1c, 0x58, 0x01, 0x02, 0x05, 0x02, 0x20,
    0x59, 0x00, 0x64, 0x00, 0x18, 0x00, 0x4a, 0x36, 0x5b, 0x0c, 0x1b, 0x0c,
    0x00, 0x00, 0x13, 0x09, 0x06, 0x64, 0x2a, 0x64, 0x5b, 0x5d, 0x64, 0x24,
    0x32, 0x0b, 0x00, 0x00, 0x00, 0x00, 0x07, 0x00, 0x00, 0x00, 0x00, 0x00,
    0x00, 0x00, 0x1a, 0x32, 0x32, 0x32, 0x32, 0x00, 0x0e, 0x00, 0x00, 0x00,
    0x0b, 0x00, 0x07, 0x00, 0x00, 0x00, 0x00, 0x00, 0x00, 0x00, 0x00, 0x00,
    0x00, 0x00, 0x00, 0x00, 0x4f, 0x32, 0x5b, 0x0c, 0x1b, 0x0c, 0x00, 0x02,
    0x00, 0x00, 0x47, 0x58, 0x00, 0x64, 0x00, 0x5a, 0x64, 0x24, 0x32, 0x0b,
    0x00, 0x00, 0x00, 0x00, 0x07, 0x00, 0x00, 0x00, 0x00, 0x00, 0x00, 0x00,
    0x32, 0x32, 0x32, 0x32, 0x32, 0x00, 0x00, 0x00, 0x00, 0x00, 0x0b, 0x1b,
    0x03, 0x00, 0x00, 0x00, 0x00, 0x00, 0x00, 0x00, 0x00, 0x00, 0x00, 0x00,
    0x00, 0x00, 0x00, 0x32, 0x5b, 0x0c, 0x1b, 0x0c, 0x00, 0x00, 0x00, 0x00,
    0x00, 0x00, 0x00, 0x00, 0x00, 0x00, 0x00, 0x00, 0x00, 0x00, 0x00, 0x00,
    0x00, 0x00, 0x00, 0x00, 0x00, 0x5e, 0xf7, 0x5a, 0xf0, 0x82, 0x09, 0x41,
    0x10, 0x16, 0x12, 0x08, 0x06, 0x00, 0x42, 0x61, 0x6e, 0x64, 0x6e, 0x65,
    0x6f, 0x6e, 0x20, 0x20, 0x02, 0x00, 0x07, 0x00, 0x30, 0x2f, 0x0b, 0x01,
    0x00, 0x19, 0x00, 0x07, 0x00, 0x00, 0x00, 0x00, 0x00, 0x00, 0x00, 0x32,
    0x32, 0x32, 0x32, 0x32, 0x43, 0x00, 0x3a, 0x00, 0x00, 0x0b, 0x00, 0x07,
    0x00, 0x00, 0x00, 0x00, 0x00, 0x00, 0x00, 0x00, 0x00, 0x00, 0x00, 0x00,
    0x00, 0x64, 0x56, 0x67, 0x07, 0x1b, 0x0c, 0x01, 0x04, 0x23, 0x64, 0x58,
    0x4f, 0x16, 0x62, 0x38, 0x38, 0x32, 0x24, 0x2a, 0x0b, 0x01, 0x00, 0x57,
    0x38, 0x07, 0x00, 0x00, 0x00, 0x00, 0x00, 0x00, 0x00, 0x32, 0x32, 0x32,
    0x32, 0x32, 0x43, 0x00, 0x3e, 0x5e, 0x12, 0x0b, 0x00, 0x07, 0x48, 0x00,
    0x00, 0x00, 0x00, 0x11, 0x40, 0x64, 0x00, 0x00, 0x54, 0x4a, 0x34, 0x38,
    0x56, 0x67, 0x07, 0x1b, 0x0c, 0x01, 0x04, 0x18, 0x64, 0x55, 0x55, 0x16,
    0x62, 0x46, 0x30, 0x28, 0x30, 0x3a, 0x0b, 0x01, 0x00, 0x57, 0x38, 0x07,
    0x00, 0x00, 0x00, 0x00, 0x00, 0x00, 0x00, 0x32, 0x32, 0x32, 0x32, 0x32,
    0x43, 0x00, 0x3e, 0x5e, 0x12, 0x0b, 0x00, 0x07, 0x45, 0x00, 0x00, 0x00,
    0x00, 0x0a, 0x47, 0x64, 0x00, 0x00, 0x5e, 0x5a, 0x46, 0x38, 0x56, 0x67,
    0x07, 0x1b, 0x0c, 0x01, 0x04, 0x18, 0x64, 0x55, 0x55, 0x16, 0x62, 0x46,
    0x30, 0x28, 0x24, 0x34, 0x0b, 0x01, 0x00, 0x57, 0x00, 0x07, 0x00, 0x00,
    0x00, 0x00, 0x00, 0x00, 0x00, 0x32, 0x32, 0x32, 0x32, 0x32, 0x43, 0x0a,
    0x3a, 0x00, 0x00, 0x0b, 0x00, 0x07, 0x00, 0x00, 0x00, 0x00, 0x00, 0x00,
    0x00, 0x00, 0x00, 0x00, 0x00, 0x00, 0x00, 0x64, 0x56, 0x67, 0x07, 0x1b,
    0x0c, 0x01, 0x04, 0x23, 0x64, 0x32, 0x32, 0x16, 0x64, 0x00, 0x00, 0x00,
    0x00, 0x00, 0x00, 0x00, 0x00, 0x00, 0x00, 0x00, 0x00, 0x00, 0x41, 0xf7,
    0x6e, 0xf0, 0x82, 0x09, 0x41, 0x10, 0x16, 0x12, 0x08, 0x08, 0x00, 0x4a,
    0x61, 0x7a, 0x7a, 0x47, 0x75, 0x69, 0x74, 0x61, 0x72, 0x02, 0x00, 0x03,
    0x00, 0x24, 0x32, 0x0b, 0x01, 0x00, 0x27, 0x00, 0x07, 0x00, 0x00, 0x00,
    0x00, 0x00, 0x00, 0x00, 0x32, 0x32, 0x32, 0x32, 0x32, 0x00, 0x00, 0x00,
    0x00, 0x00, 0x0b, 0x00, 0x07, 0x00, 0x00, 0x00, 0x00, 0x00, 0x00, 0x00,
    0x00, 0x00, 0x00, 0x00, 0x00, 0x00, 0x64, 0x4c, 0x5b, 0x0c, 0x1b, 0x0c,
    0x00, 0x00, 0x00, 0x31, 0x00, 0x00, 0x24, 0x64, 0x00, 0x00, 0x00, 0x24,
    0x33, 0x0b, 0x01, 0x00, 0x00, 0x3f, 0x07, 0x00, 0x00, 0x00, 0x00, 0x00,
    0x00, 0x00, 0x32, 0x32, 0x32, 0x32, 0x32, 0x40, 0x00, 0x48, 0x25, 0x0a,
    0x06, 0x00, 0x07, 0x3a, 0x1a, 0x04, 0x00, 0x00, 0x2c, 0x4e, 0x4e, 0x35,
    0x64, 0x47, 0x3c, 0x3c, 0x64, 0x64, 0x5b, 0x0c, 0x1b, 0x0c, 0x00, 0x04,
    0x0d, 0x45, 0x48, 0x48, 0x24, 0x64, 0x29, 0x00, 0x00, 0x24, 0x32, 0x0b,
    0x00, 0x00, 0x00, 0x00, 0x07, 0x00, 0x00, 0x00, 0x00, 0x00, 0x00, 0x00,
    0x32, 0x32, 0x32, 0x32, 0x32, 0x00, 0x00, 0x00, 0x00, 0x00, 0x0b, 0x00,
    0x07, 0x00, 0x00, 0x00, 0x00, 0x00, 0x00, 0x00, 0x00, 0x00, 0x00, 0x00,
    0x00, 0x00, 0x00, 0x32, 0x5b, 0x0c, 0x1b, 0x0c, 0x00, 0x00, 0x00, 0x00,
    0x00, 0x00, 0x00, 0x00, 0x00, 0x00, 0x00, 0x24, 0x32, 0x0b, 0x00, 0x00,
    0x00, 0x00, 0x07, 0x00, 0x00, 0x00, 0x00, 0x00, 0x00, 0x00, 0x32, 0x32,
    0x32, 0x32, 0x32, 0x00, 0x00, 0x00, 0x00, 0x00, 0x0b, 0x00, 0x07, 0x00,
    0x00, 0x00, 0x00, 0x00, 0x00, 0x00, 0x00, 0x00, 0x00, 0x00, 0x00, 0x00,
    0x00, 0x32, 0x5b, 0x0c, 0x1b, 0x0c, 0x00, 0x00, 0x00, 0x00, 0x00, 0x00,
    0x00, 0x00, 0x00, 0x00, 0x00, 0x00, 0x00, 0x00, 0x00, 0x00, 0x00, 0x00,
    0x00, 0x00, 0x00, 0x19, 0xf7, 0x6e, 0xf0, 0x82, 0x09, 0x41, 0x10, 0x16,
    0x12, 0x08, 0x0a, 0x00, 0x43, 0x6c, 0x65, 0x61, 0x6e, 0x47, 0x75, 0x69,
    0x74, 0x72, 0x02, 0x05, 0x07, 0x00, 0x24, 0x32, 0x10, 0x01, 0x00, 0x28,
    0x00, 0x07, 0x00, 0x00, 0x00, 0x00, 0x00, 0x00, 0x00, 0x32, 0x32, 0x32,
    0x32, 0x32, 0x00, 0x00, 0x00, 0x00, 0x00, 0x03, 0x00, 0x07, 0x00, 0x00,
    0x00, 0x00, 0x00, 0x00, 0x00, 0x00, 0x00, 0x00, 0x00, 0x00, 0x00, 0x64,
    0x4b, 0x58, 0x09, 0x1b, 0x0c, 0x04, 0x01, 0x00, 0x00, 0x30, 0x55, 0x30,
    0x64, 0x64, 0x00, 0x00, 0x24, 0x32, 0x10, 0x01, 0x00, 0x00, 0x41, 0x07,
    0x03, 0x00, 0x00, 0x01, 0x0d, 0x17, 0x3a, 0x33, 0x3b, 0x30, 0x32, 0x2d,
    0x3c, 0x04, 0x3b, 0x4a, 0x07, 0x07, 0x28, 0x09, 0x15, 0x15, 0x00, 0x02,
    0x00, 0x00, 0x2d, 0x55, 0x64, 0x64, 0x64, 0x1a, 0x00, 0x50, 0x46, 0x68,
    0x08, 0x16, 0x06, 0x03, 0x03, 0x00, 0x00, 0x41, 0x52, 0x30, 0x64, 0x64,
    0x2b, 0x00, 0x24, 0x32, 0x10, 0x01, 0x00, 0x28, 0x00, 0x07, 0x02, 0x01,
    0x04, 0x13, 0x26, 0x00, 0x00, 0x3a, 0x2d, 0x32, 0x32, 0x32, 0x3c, 0x03,
    0x24, 0x00, 0x00, 0x03, 0x00, 0x07, 0x00, 0x00, 0x00, 0x00, 0x00, 0x00,
    0x00, 0x00, 0x00, 0x00, 0x00, 0x00, 0x00, 0x64, 0x46, 0x55, 0x04, 0x1b,
    0x0c, 0x03, 0x00, 0x00, 0x09, 0x20, 0x50, 0x34, 0x64, 0x58, 0x2c, 0x00,
    0x24, 0x32, 0x10, 0x01, 0x00, 0x55, 0x00, 0x07, 0x02, 0x01, 0x04, 0x13,
    0x26, 0x00, 0x00, 0x3a, 0x2d, 0x32, 0x32, 0x32, 0x3c, 0x03, 0x24, 0x00,
    0x00, 0x03, 0x00, 0x07, 0x00, 0x00, 0x00, 0x00, 0x00, 0x00, 0x00, 0x00,
    0x00, 0x00, 0x00, 0x00, 0x00, 0x64, 0x46, 0x55, 0x04, 0x1b, 0x0c, 0x03,
    0x00, 0x00, 0x00, 0x19, 0x50, 0x34, 0x64, 0x64, 0x5a, 0x00, 0x00, 0x00,
    0x00, 0x00, 0x00, 0x00, 0x00, 0x00, 0x00, 0x00, 0x60, 0xf7, 0x5a, 0xf0,
    0x82, 0x09, 0x41, 0x10, 0x16, 0x12, 0x08, 0x0c, 0x00, 0x4d, 0x75, 0x74,
    0x65, 0x64, 0x47, 0x75, 0x69, 0x74, 0x72, 0x01, 0x05, 0x07, 0x00, 0x24,
    0x32, 0x0f, 0x01, 0x00, 0x00, 0x51, 0x08, 0x00, 0x00, 0x00, 0x00, 0x00,
    0x00, 0x00, 0x32, 0x32, 0x32, 0x32, 0x32, 0x40, 0x04, 0x32, 0x2d, 0x00,
    0x05, 0x00, 0x07, 0x64, 0x28, 0x00, 0x02, 0x08, 0x00, 0x08, 0x48, 0x52,
    0x0c, 0x63, 0x2a, 0x19, 0x64, 0x46, 0x5b, 0x0c, 0x1b, 0x0c, 0x02, 0x00,
    0x05, 0x22, 0x39, 0x5a, 0x24, 0x64, 0x34, 0x12, 0x00, 0x46, 0x18, 0x0f,
    0x01, 0x00, 0x00, 0x51, 0x08, 0x00, 0x00, 0x00, 0x00, 0x00, 0x00, 0x00,
    0x32, 0x32, 0x32, 0x32, 0x32, 0x40, 0x04, 0x32, 0x23, 0x00, 0x05, 0x00,
    0x07, 0x64, 0x00, 0x00, 0x02, 0x08, 0x00, 0x08, 0x48, 0x52, 0x0c, 0x63,
    0x2a, 0x08, 0x4b, 0x3c, 0x5b, 0x0c, 0x1b, 0x0c, 0x02, 0x00, 0x05, 0x30,
    0x46, 0x52, 0x24, 0x64, 0x2c, 0x0d, 0x00, 0x30, 0x32, 0x10, 0x01, 0x00,
    0x28, 0x50, 0x08, 0x00, 0x00, 0x00, 0x00, 0x00, 0x00, 0x00, 0x32, 0x32,
    0x32, 0x32, 0x32, 0x00, 0x00, 0x00, 0x20, 0x0f, 0x08, 0x00, 0x07, 0x64,
    0x0f, 0x00, 0x00, 0x00, 0x00, 0x3b, 0x48, 0x52, 0x05, 0x64, 0x41, 0x38,
    0x29, 0x46, 0x5b, 0x0c, 0x1b, 0x0c, 0x00, 0x00, 0x00, 0x00, 0x27, 0x4a,
    0x24, 0x64, 0x64, 0x3d, 0x00, 0x30, 0x32, 0x10, 0x01, 0x00, 0x21, 0x50,
    0x08, 0x00, 0x00, 0x00, 0x00, 0x00, 0x00, 0x00, 0x32, 0x32, 0x32, 0x32,
    0x32, 0x00, 0x00, 0x00, 0x20, 0x0f, 0x08, 0x00, 0x07, 0x64, 0x0f, 0x00,
    0x00, 0x00, 0x00, 0x3b, 0x48, 0x52, 0x05, 0x64, 0x41, 0x38, 0x64, 0x5a,
    0x5b, 0x0c, 0x1b, 0x0c, 0x00, 0x00, 0x00, 0x2b, 0x27, 0x4a, 0x24, 0x64,
    0x1e, 0x00, 0x00, 0x00, 0x00, 0x00, 0x00, 0x00, 0x00, 0x00, 0x00, 0x00,
    0x00, 0x3d, 0xf7, 0x5a, 0xf0, 0x82, 0x09, 0x41, 0x10, 0x16, 0x12, 0x08,
    0x0e, 0x00, 0x4f, 0x76, 0x65, 0x72, 0x64, 0x72, 0x69, 0x76, 0x65, 0x20,
    0x07, 0x05, 0x07, 0x00, 0x30, 0x37, 0x0f, 0x01, 0x01, 0x00, 0x10, 0x0e,
    0x09, 0x03, 0x00, 0x00, 0x0b, 0x00, 0x00, 0x32, 0x00, 0x32, 0x32, 0x32,
    0x40, 0x04, 0x64, 0x48, 0x10, 0x05, 0x00, 0x07, 0x64, 0x06, 0x00, 0x00,
    0x00, 0x10, 0x3b, 0x48, 0x52, 0x52, 0x4c, 0x47, 0x42, 0x41, 0x46, 0x5b,
    0x0c, 0x1b, 0x0c, 0x00, 0x00, 0x00, 0x32, 0x46, 0x64, 0x00, 0x64, 0x5a,
    0x4d, 0x00, 0x30, 0x2e, 0x0f, 0x01, 0x01, 0x00, 0x0c, 0x00, 0x00, 0x03,
    0x00, 0x00, 0x00, 0x00, 0x00, 0x32, 0x32, 0x32, 0x32, 0x32, 0x40, 0x04,
    0x64, 0x4f, 0x0f, 0x06, 0x67, 0x03, 0x64, 0x0f, 0x00, 0x00, 0x00, 0x10,
    0x3b, 0x4b, 0x52, 0x64, 0x4c, 0x47, 0x5c, 0x42, 0x50, 0x5b, 0x0c, 0x1b,
    0x0c, 0x00, 0x00, 0x02, 0x08, 0x31, 0x46, 0x24, 0x64, 0x64, 0x50, 0x64,
    0x24, 0x32, 0x0b, 0x01, 0x00, 0x28, 0x00, 0x07, 0x00, 0x00, 0x00, 0x00,
    0x00, 0x00, 0x00, 0x32, 0x32, 0x32, 0x32, 0x32, 0x00, 0x00, 0x00, 0x64,
    0x00, 0x0b, 0x00, 0x07, 0x00, 0x00, 0x00, 0x00, 0x00, 0x00, 0x00, 0x00,
    0x00, 0x64, 0x64, 0x64, 0x64, 0x42, 0x64, 0x7f, 0x0c, 0x00, 0x0c, 0x00,
    0x00, 0x00, 0x00, 0x64, 0x64, 0x00, 0x64, 0x64, 0x32, 0x00, 0x24, 0x32,
    0x0b, 0x01, 0x00, 0x20, 0x00, 0x07, 0x00, 0x00, 0x00, 0x00, 0x00, 0x00,
    0x00, 0x32, 0x32, 0x32, 0x32, 0x32, 0x00, 0x00, 0x00, 0x64, 0x00, 0x0b,
    0x00, 0x07, 0x00, 0x00, 0x00, 0x00, 0x00, 0x00, 0x00, 0x00, 0x00, 0x64,
    0x64, 0x64, 0x64, 0x64, 0x64, 0x7f, 0x0c, 0x00, 0x0c, 0x00, 0x00, 0x00,
    0x00, 0x00, 0x00, 0x00, 0x64, 0x64, 0x64, 0x64, 0x00, 0x00, 0x00, 0x00,
    0x00, 0x00, 0x00, 0x00, 0x00, 0x00, 0x29, 0xf7, 0x5a, 0xf0, 0x82, 0x09,
    0x41, 0x10, 0x16, 0x12, 0x08, 0x10, 0x00, 0x44, 0x69, 0x73, 0x74, 0x6f,
    0x72, 0x74, 0x69, 0x6f, 0x6e, 0x03, 0x00, 0x07, 0x00, 0x30, 0x32, 0x0b,
    0x01, 0x00, 0x28, 0x00, 0x07, 0x00, 0x00, 0x00, 0x00, 0x00, 0x00, 0x00,
    0x32, 0x32, 0x32, 0x32, 0x32, 0x00, 0x00, 0x00, 0x00, 0x00, 0x0b, 0x00,
    0x07, 0x00, 0x00, 0x00, 0x00, 0x00, 0x00, 0x00, 0x00, 0x00, 0x00, 0x00,
    0x00, 0x00, 0x42, 0x5f, 0x67, 0x08, 0x7f, 0x02, 0x00, 0x00, 0x00, 0x32,
    0x46, 0x4a, 0x12, 0x64, 0x52, 0x28, 0x00, 0x30, 0x33, 0x0f, 0x01, 0x01,
    0x00, 0x1d, 0x0e, 0x09, 0x03, 0x00, 0x00, 0x0b, 0x00, 0x00, 0x32, 0x00,
    0x32, 0x32, 0x32, 0x40, 0x04, 0x64, 0x58, 0x00, 0x05, 0x00, 0x07, 0x64,
    0x06, 0x00, 0x00, 0x00, 0x10, 0x3b, 0x48, 0x52, 0x52, 0x4c, 0x47, 0x42,
    0x42, 0x46, 0x5b, 0x0c, 0x1b, 0x0c, 0x00, 0x00, 0x00, 0x32, 0x46, 0x52,
    0x12, 0x64, 0x5a, 0x4d, 0x35, 0x30, 0x33, 0x0f, 0x01, 0x01, 0x00, 0x1d,
    0x0e, 0x09, 0x03, 0x00, 0x00, 0x0b, 0x00, 0x00, 0x32, 0x00, 0x32, 0x32,
    0x32, 0x40, 0x04, 0x64, 0x54, 0x00, 0x05, 0x00, 0x07, 0x64, 0x06, 0x00,
    0x00, 0x00, 0x10, 0x3b, 0x48, 0x52, 0x52, 0x4c, 0x47, 0x42, 0x42, 0x46,
    0x5b, 0x0c, 0x1b, 0x0c, 0x00, 0x00, 0x00, 0x32, 0x46, 0x52, 0x12, 0x64,
    0x5a, 0x4d, 0x35, 0x24, 0x32, 0x0b, 0x01, 0x00, 0x20, 0x00, 0x07, 0x00,
    0x00, 0x00, 0x00, 0x00, 0x00, 0x00, 0x32, 0x32, 0x32, 0x32, 0x32, 0x00,
    0x00, 0x00, 0x64, 0x00, 0x0b, 0x00, 0x07, 0x00, 0x00, 0x00, 0x00, 0x00,
    0x00, 0x00, 0x00, 0x00, 0x64, 0x64, 0x64, 0x64, 0x64, 0x64, 0x7f, 0x0c,
    0x00, 0x0c, 0x00, 0x00, 0x00, 0x00, 0x00, 0x00, 0x00, 0x64, 0x64, 0x64,
    0x64, 0x00, 0x00, 0x00, 0x00, 0x00, 0x00, 0x00, 0x00, 0x00, 0x00, 0x6b,
    0xf7, 0x5a, 0xf0, 0x82, 0x09, 0x41, 0x10, 0x16, 0x12, 0x08, 0x12, 0x00,
    0x46, 0x65, 0x65, 0x64, 0x62, 0x61, 0x63, 0x6b, 0x47, 0x72, 0x00, 0x06,
    0x0f, 0x00, 0x24, 0x32, 0x0f, 0x01, 0x00, 0x00, 0x45, 0x08, 0x00, 0x00,
    0x00, 0x00, 0x00, 0x00, 0x00, 0x32, 0x32, 0x32, 0x32, 0x32, 0x40, 0x04,
    0x32, 0x40, 0x0f, 0x05, 0x00, 0x07, 0x64, 0x06, 0x00, 0x00, 0x00, 0x10,
    0x3b, 0x48, 0x52, 0x52, 0x4c, 0x47, 0x42, 0x45, 0x3c, 0x5b, 0x0c, 0x1b,
    0x0c, 0x03, 0x00, 0x05, 0x32, 0x46, 0x52, 0x24, 0x64, 0x5a, 0x4d, 0x35,
    0x30, 0x32, 0x0f, 0x01, 0x00, 0x00, 0x54, 0x08, 0x00, 0x00, 0x00, 0x00,
    0x00, 0x00, 0x00, 0x32, 0x32, 0x32, 0x32, 0x32, 0x40, 0x04, 0x32, 0x10,
    0x0f, 0x08, 0x00, 0x07, 0x64, 0x0f, 0x00, 0x00, 0x00, 0x10, 0x3b, 0x4b,
    0x52, 0x64, 0x4c, 0x47, 0x5c, 0x3f, 0x46, 0x5b, 0x0c, 0x1b, 0x0c, 0x03,
    0x00, 0x02, 0x08, 0x31, 0x46, 0x24, 0x3f, 0x10, 0x28, 0x64, 0x30, 0x32,
    0x0b, 0x01, 0x00, 0x28, 0x50, 0x08, 0x00, 0x00, 0x00, 0x00, 0x00, 0x00,
    0x00, 0x32, 0x32, 0x32, 0x32, 0x32, 0x00, 0x00, 0x00, 0x20, 0x0f, 0x08,
    0x00, 0x07, 0x64, 0x0f, 0x00, 0x00, 0x00, 0x00, 0x3b, 0x48, 0x52, 0x05,
    0x64, 0x41, 0x38, 0x46, 0x3c, 0x5b, 0x0c, 0x1b, 0x0c, 0x00, 0x00, 0x00,
    0x1f, 0x64, 0x64, 0x24, 0x64, 0x52, 0x28, 0x30, 0x24, 0x34, 0x0f, 0x01,
    0x00, 0x28, 0x50, 0x08, 0x00, 0x00, 0x00, 0x00, 0x00, 0x00, 0x00, 0x32,
    0x32, 0x32, 0x32, 0x32, 0x40, 0x04, 0x23, 0x20, 0x0f, 0x08, 0x00, 0x07,
    0x64, 0x0f, 0x00, 0x00, 0x00, 0x00, 0x3b, 0x48, 0x52, 0x05, 0x64, 0x41,
    0x38, 0x4b, 0x41, 0x5b, 0x0c, 0x1b, 0x0c, 0x03, 0x00, 0x04, 0x32, 0x46,
    0x4a, 0x24, 0x64, 0x47, 0x37, 0x32, 0x00, 0x00, 0x00, 0x00, 0x00, 0x00,
    0x00, 0x00, 0x00, 0x00, 0x65, 0xf7, 0x5a, 0xf0, 0x82, 0x09, 0x41, 0x10,
    0x16, 0x12, 0x08, 0x14, 0x00, 0x53, 0x6c, 0x6f, 0x77, 0x53, 0x74, 0x72,
    0x69, 0x6e, 0x67, 0x00, 0x00, 0x07, 0x00, 0x24, 0x38, 0x10, 0x01, 0x01,
    0x00, 0x00, 0x07, 0x05, 0x02, 0x00, 0x0a, 0x08, 0x04, 0x12, 0x00, 0x0b,
    0x18, 0x32, 0x32, 0x40, 0x04, 0x64, 0x64, 0x00, 0x08, 0x7a, 0x03, 0x1b,
    0x64, 0x00, 0x00, 0x09, 0x14, 0x15, 0x42, 0x5a, 0x15, 0x23, 0x17, 0x1d,
    0x64, 0x50, 0x5b, 0x0c, 0x1b, 0x0c, 0x00, 0x03, 0x2b, 0x27, 0x16, 0x1e,
    0x48, 0x46, 0x60, 0x5f, 0x64, 0x24, 0x2c, 0x10, 0x01, 0x01, 0x00, 0x00,
    0x07, 0x03, 0x01, 0x00, 0x0c, 0x09, 0x05, 0x13, 0x05, 0x0f, 0x1c, 0x32,
    0x32, 0x41, 0x05, 0x64, 0x64, 0x00, 0x08, 0x77, 0x01, 0x1b, 0x64, 0x00,
    0x00, 0x0c, 0x12, 0x17, 0x44, 0x5c, 0x15, 0x23, 0x17, 0x1d, 0x64, 0x50,
    0x5b, 0x0c, 0x1b, 0x0c, 0x00, 0x03, 0x32, 0x27, 0x14, 0x20, 0x48, 0x46,
    0x5e, 0x5f, 0x64, 0x24, 0x32, 0x10, 0x01, 0x01, 0x00, 0x00, 0x07, 0x03,
    0x01, 0x00, 0x52, 0x64, 0x53, 0x13, 0x32, 0x2e, 0x35, 0x30, 0x32, 0x41,
    0x05, 0x64, 0x64, 0x00, 0x08, 0x77, 0x01, 0x1b, 0x64, 0x00, 0x00, 0x0c,
    0x12, 0x17, 0x44, 0x5c, 0x15, 0x23, 0x17, 0x1d, 0x64, 0x50, 0x5b, 0x0c,
    0x1b, 0x0c, 0x00, 0x03, 0x32, 0x27, 0x14, 0x20, 0x48, 0x46, 0x5e, 0x5f,
    0x64, 0x24, 0x32, 0x0b, 0x00, 0x00, 0x00, 0x00, 0x07, 0x00, 0x00, 0x00,
    0x00, 0x00, 0x00, 0x00, 0x32, 0x32, 0x32, 0x32, 0x32, 0x00, 0x00, 0x00,
    0x00, 0x00, 0x0b, 0x00, 0x07, 0x00, 0x00, 0x00, 0x00, 0x00, 0x00, 0x00,
    0x00, 0x00, 0x00, 0x00, 0x00, 0x00, 0x00, 0x32, 0x5b, 0x0c, 0x1b, 0x0c,
    0x00, 0x00, 0x00, 0x00, 0x00, 0x00, 0x00, 0x00, 0x00, 0x00, 0x00, 0x00,
    0x00, 0x00, 0x00, 0x00, 0x00, 0x00, 0x00, 0x00, 0x00, 0x4a, 0xf7, 0x5a,
    0xf0, 0x82, 0x09, 0x41, 0x10, 0x16, 0x12, 0x08, 0x16, 0x00, 0x53, 0x79,
    0x6e, 0x53, 0x74, 0x72, 0x69, 0x6e, 0x67, 0x31, 0x07, 0x00, 0x07, 0x00,
    0x24, 0x2a, 0x10, 0x00, 0x01, 0x00, 0x00, 0x07, 0x05, 0x00, 0x00, 0x06,
    0x0f, 0x17, 0x00, 0x02, 0x16, 0x27, 0x32, 0x32, 0x41, 0x0d, 0x50, 0x5a,
    0x00, 0x08, 0x1d, 0x04, 0x12, 0x46, 0x04, 0x00, 0x29, 0x26, 0x30, 0x51,
    0x64, 0x61, 0x3c, 0x20, 0x0e, 0x4c, 0x48, 0x67, 0x09, 0x14, 0x08, 0x00,
    0x01, 0x21, 0x1e, 0x22, 0x26, 0x46, 0x2e, 0x4d, 0x5e, 0x64, 0x24, 0x3a,
    0x10, 0x01, 0x01, 0x00, 0x00, 0x07, 0x05, 0x00, 0x00, 0x11, 0x11, 0x17,
    0x00, 0x27, 0x2b, 0x2f, 0x32, 0x32, 0x41, 0x09, 0x50, 0x64, 0x00, 0x09,
    0x1b, 0x09, 0x29, 0x39, 0x00, 0x00, 0x1d, 0x2c, 0x38, 0x44, 0x64, 0x27,
    0x1c, 0x11, 0x0d, 0x4c, 0x48, 0x5b, 0x0a, 0x0f, 0x07, 0x00, 0x02, 0x17,
    0x25, 0x2a, 0x37, 0x3e, 0x24, 0x49, 0x5e, 0x64, 0x24, 0x32, 0x10, 0x01,
    0x00, 0x00, 0x40, 0x07, 0x05, 0x00, 0x00, 0x10, 0x16, 0x18, 0x00, 0x1b,
    0x25, 0x2d, 0x32, 0x32, 0x29, 0x2a, 0x43, 0x5d, 0x00, 0x09, 0x29, 0x0a,
    0x25, 0x2b, 0x00, 0x00, 0x15, 0x1c, 0x26, 0x4a, 0x64, 0x1c, 0x25, 0x19,
    0x0d, 0x51, 0x45, 0x5b, 0x0a, 0x0f, 0x07, 0x00, 0x00, 0x1c, 0x25, 0x2e,
    0x47, 0x3c, 0x21, 0x41, 0x57, 0x64, 0x24, 0x32, 0x0b, 0x01, 0x00, 0x20,
    0x00, 0x07, 0x00, 0x00, 0x00, 0x00, 0x00, 0x00, 0x00, 0x32, 0x32, 0x32,
    0x32, 0x32, 0x00, 0x00, 0x00, 0x64, 0x00, 0x0b, 0x00, 0x07, 0x00, 0x00,
    0x00, 0x00, 0x00, 0x00, 0x00, 0x00, 0x00, 0x64, 0x64, 0x64, 0x64, 0x64,
    0x64, 0x7f, 0x0c, 0x00, 0x0c, 0x00, 0x00, 0x00, 0x00, 0x00, 0x00, 0x00,
    0x64, 0x64, 0x64, 0x64, 0x00, 0x00, 0x00, 0x00, 0x00, 0x00, 0x00, 0x00,
    0x00, 0x00, 0x00, 0xf7, 0x5a, 0xf0, 0x82, 0x09, 0x41, 0x10, 0x16, 0x12,
    0x08, 0x18, 0x00, 0x53, 0x79, 0x6e, 0x53, 0x74, 0x72, 0x69, 0x6e, 0x67,
    0x32, 0x07, 0x07, 0x0f, 0x00, 0x24, 0x36, 0x0b, 0x01, 0x00, 0x00, 0x00,
    0x07, 0x04, 0x02, 0x00, 0x25, 0x10, 0x0f, 0x2a, 0x31, 0x2d, 0x3a, 0x32,
    0x32, 0x3e, 0x0c, 0x3a, 0x2b, 0x00, 0x08, 0x35, 0x09, 0x44, 0x2f, 0x04,
    0x00, 0x3e, 0x4a, 0x46, 0x4a, 0x64, 0x20, 0x5a, 0x58, 0x00, 0x54, 0x51,
    0x5b, 0x0c, 0x20, 0x05, 0x00, 0x02, 0x17, 0x26, 0x35, 0x30, 0x49, 0x32,
    0x52, 0x58, 0x42, 0x24, 0x3a, 0x0b, 0x01, 0x01, 0x00, 0x00, 0x07, 0x00,
    0x00, 0x00, 0x00, 0x00, 0x00, 0x00, 0x32, 0x32, 0x32, 0x32, 0x32, 0x3f,
    0x13, 0x3a, 0x40, 0x00, 0x08, 0x00, 0x07, 0x4a, 0x2b, 0x04, 0x00, 0x38,
    0x42, 0x60, 0x4a, 0x64, 0x1e, 0x58, 0x5c, 0x00, 0x5b, 0x47, 0x5b, 0x0c,
    0x1b, 0x0c, 0x00, 0x03, 0x26, 0x2b, 0x1b, 0x38, 0x49, 0x36, 0x54, 0x56,
    0x4c, 0x24, 0x2e, 0x0b, 0x01, 0x01, 0x00, 0x00, 0x07, 0x01, 0x02, 0x00,
    0x24, 0x17, 0x0f, 0x27, 0x38, 0x3b, 0x2e, 0x32, 0x32, 0x3c, 0x0e, 0x21,
    0x57, 0x00, 0x07, 0x2e, 0x09, 0x64, 0x37, 0x04, 0x00, 0x00, 0x0f, 0x4e,
    0x00, 0x64, 0x00, 0x20, 0x00, 0x00, 0x55, 0x4d, 0x5b, 0x0c, 0x1b, 0x06,
    0x00, 0x00, 0x1f, 0x31, 0x31, 0x32, 0x49, 0x34, 0x52, 0x52, 0x40, 0x24,
    0x2a, 0x0b, 0x01, 0x01, 0x00, 0x00, 0x07, 0x05, 0x03, 0x01, 0x0d, 0x12,
    0x22, 0x00, 0x3f, 0x37, 0x33, 0x32, 0x32, 0x3d, 0x10, 0x25, 0x4a, 0x00,
    0x07, 0x00, 0x09, 0x64, 0x2f, 0x04, 0x00, 0x20, 0x0d, 0x4e, 0x4a, 0x64,
    0x48, 0x22, 0x00, 0x00, 0x59, 0x46, 0x5b, 0x0c, 0x1b, 0x0c, 0x00, 0x00,
    0x23, 0x32, 0x29, 0x3d, 0x49, 0x14, 0x2f, 0x45, 0x00, 0x00, 0x00, 0x00,
    0x00, 0x00, 0x00, 0x00, 0x00, 0x00, 0x00, 0x22, 0xf7, 0x5a, 0xf0, 0x82,
    0x09, 0x41, 0x10, 0x16, 0x12, 0x08, 0x1a, 0x00, 0x53, 0x79, 0x6e, 0x43,
    0x68, 0x6f, 0x69, 0x72, 0x41, 0x68, 0x07, 0x07, 0x0f, 0x00, 0x30, 0x38,
    0x0f, 0x01, 0x01, 0x00, 0x5c, 0x07, 0x04, 0x00, 0x00, 0x23, 0x16, 0x19,
    0x01, 0x00, 0x21, 0x2d, 0x32, 0x32, 0x3f, 0x18, 0x41, 0x3b, 0x15, 0x08,
    0x72, 0x09, 0x24, 0x3e, 0x00, 0x00, 0x04, 0x10, 0x0e, 0x34, 0x64, 0x0f,
    0x22, 0x1c, 0x22, 0x46, 0x46, 0x6d, 0x07, 0x1b, 0x0c, 0x01, 0x00, 0x04,
    0x0a, 0x1e, 0x54, 0x37, 0x25, 0x45, 0x64, 0x50, 0x24, 0x2c, 0x0f, 0x01,
    0x00, 0x00, 0x53, 0x07, 0x02, 0x00, 0x00, 0x12, 0x1c, 0x2e, 0x01, 0x02,
    0x1d, 0x2c, 0x32, 0x32, 0x41, 0x14, 0x46, 0x3c, 0x17, 0x09, 0x17, 0x09,
    0x22, 0x3c, 0x00, 0x00, 0x14, 0x2f, 0x37, 0x3b, 0x48, 0x0f, 0x1c, 0x16,
    0x09, 0x50, 0x46, 0x6e, 0x09, 0x1b, 0x0c, 0x01, 0x00, 0x04, 0x12, 0x22,
    0x4d, 0x3b, 0x22, 0x41, 0x62, 0x59, 0x24, 0x33, 0x10, 0x01, 0x01, 0x00,
    0x00, 0x07, 0x05, 0x00, 0x00, 0x03, 0x12, 0x0b, 0x00, 0x32, 0x00, 0x42,
    0x32, 0x32, 0x3c, 0x0f, 0x28, 0x27, 0x00, 0x0b, 0x24, 0x0b, 0x24, 0x58,
    0x00, 0x00, 0x0a, 0x14, 0x2e, 0x4b, 0x51, 0x63, 0x0e, 0x64, 0x2c, 0x53,
    0x55, 0x5b, 0x0c, 0x1b, 0x09, 0x00, 0x00, 0x09, 0x19, 0x20, 0x1d, 0x3e,
    0x30, 0x55, 0x60, 0x64, 0x24, 0x31, 0x10, 0x01, 0x01, 0x00, 0x00, 0x07,
    0x05, 0x00, 0x00, 0x03, 0x12, 0x0b, 0x00, 0x32, 0x00, 0x42, 0x32, 0x32,
    0x3c, 0x0f, 0x28, 0x27, 0x00, 0x0b, 0x24, 0x0b, 0x24, 0x58, 0x00, 0x00,
    0x0a, 0x14, 0x2e, 0x4b, 0x4a, 0x63, 0x0e, 0x64, 0x2c, 0x64, 0x55, 0x5b,
    0x0c, 0x1b, 0x09, 0x00, 0x00, 0x09, 0x19, 0x20, 0x1d, 0x3d, 0x30, 0x55,
    0x60, 0x64, 0x00, 0x00, 0x00, 0x00, 0x00, 0x00, 0x00, 0x00, 0x00, 0x00,
    0x75, 0xf7, 0x5a, 0xf0, 0x82, 0x09, 0x41, 0x10, 0x16, 0x12, 0x08, 0x1c,
    0x00, 0x53, 0x79, 0x6e, 0x56, 0x6f, 0x69, 0x63, 0x65, 0x4f, 0x6f, 0x00,
    0x00, 0x03, 0x00, 0x24, 0x32, 0x10, 0x01, 0x00, 0x00, 0x52, 0x07, 0x07,
    0x03, 0x01, 0x12, 0x17, 0x2b, 0x00, 0x02, 0x26, 0x32, 0x32, 0x32, 0x42,
    0x0a, 0x53, 0x41, 0x00, 0x0a, 0x3b, 0x06, 0x0a, 0x32, 0x00, 0x00, 0x0b,
    0x1f, 0x36, 0x36, 0x30, 0x35, 0x64, 0x00, 0x00, 0x50, 0x4d, 0x5b, 0x0c,
    0x1b, 0x0a, 0x00, 0x02, 0x07, 0x0b, 0x11, 0x11, 0x30, 0x36, 0x50, 0x64,
    0x64, 0x24, 0x2c, 0x10, 0x01, 0x00, 0x00, 0x53, 0x07, 0x02, 0x00, 0x00,
    0x12, 0x1c, 0x2c, 0x00, 0x02, 0x1d, 0x2c, 0x32, 0x32, 0x41, 0x09, 0x46,
    0x41, 0x17, 0x09, 0x17, 0x09, 0x0e, 0x3c, 0x00, 0x00, 0x14, 0x2f, 0x41,
    0x41, 0x2a, 0x38, 0x64, 0x09, 0x09, 0x50, 0x4b, 0x6e, 0x09, 0x1b, 0x0a,
    0x01, 0x00, 0x08, 0x12, 0x22, 0x22, 0x46, 0x22, 0x4a, 0x64, 0x64, 0x24,
    0x32, 0x0b, 0x00, 0x00, 0x00, 0x00, 0x07, 0x00, 0x00, 0x00, 0x00, 0x00,
    0x00, 0x00, 0x32, 0x32, 0x32, 0x32, 0x32, 0x00, 0x00, 0x00, 0x00, 0x00,
    0x0b, 0x00, 0x07, 0x00, 0x00, 0x00, 0x00, 0x00, 0x00, 0x00, 0x00, 0x00,
    0x00, 0x00, 0x00, 0x00, 0x00, 0x32, 0x5b, 0x0c, 0x1b, 0x0c, 0x00, 0x00,
    0x00, 0x00, 0x00, 0x00, 0x00, 0x00, 0x00, 0x00, 0x00, 0x24, 0x32, 0x0b,
    0x00, 0x00, 0x00, 0x00, 0x07, 0x00, 0x00, 0x00, 0x00, 0x00, 0x00, 0x00,
    0x32, 0x32, 0x32, 0x32, 0x32, 0x00, 0x00, 0x00, 0x00, 0x00, 0x0b, 0x00,
    0x07, 0x00, 0x00, 0x00, 0x00, 0x00, 0x00, 0x00, 0x00, 0x00, 0x00, 0x00,
    0x00, 0x00, 0x00, 0x32, 0x5b, 0x0c, 0x1b, 0x0c, 0x00, 0x00, 0x00, 0x00,
    0x00, 0x00, 0x00, 0x00, 0x00, 0x00, 0x00, 0x00, 0x00, 0x00, 0x00, 0x00,
    0x00, 0x00, 0x00, 0x00, 0x00, 0x35, 0xf7, 0x5a, 0xf0, 0x82, 0x09, 0x41,
    0x10, 0x16, 0x12, 0x08, 0x1e, 0x00, 0x53, 0x79, 0x6e, 0x53, 0x6f, 0x6c,
    0x6f, 0x56, 0x6f, 0x78, 0x07, 0x05, 0x07, 0x00, 0x30, 0x38, 0x10, 0x01,
    0x01, 0x00, 0x5c, 0x07, 0x04, 0x00, 0x00, 0x23, 0x16, 0x19, 0x01, 0x00,
    0x21, 0x2d, 0x32, 0x32, 0x3f, 0x18, 0x41, 0x3b, 0x15, 0x08, 0x72, 0x09,
    0x24, 0x3e, 0x00, 0x00, 0x04, 0x10, 0x0e, 0x34, 0x64, 0x0f, 0x22, 0x1c,
    0x22, 0x46, 0x46, 0x6d, 0x07, 0x1b, 0x0c, 0x01, 0x00, 0x04, 0x0a, 0x1e,
    0x54, 0x53, 0x25, 0x45, 0x64, 0x50, 0x24, 0x2c, 0x10, 0x01, 0x00, 0x00,
    0x53, 0x07, 0x02, 0x00, 0x00, 0x12, 0x1c, 0x2e, 0x01, 0x02, 0x1d, 0x2c,
    0x32, 0x32, 0x41, 0x14, 0x46, 0x3c, 0x17, 0x09, 0x17, 0x09, 0x22, 0x3c,
    0x00, 0x00, 0x14, 0x2f, 0x37, 0x3b, 0x48, 0x0f, 0x1c, 0x16, 0x09, 0x50,
    0x46, 0x6e, 0x09, 0x1b, 0x0c, 0x01, 0x00, 0x04, 0x12, 0x22, 0x4d, 0x53,
    0x22, 0x41, 0x62, 0x59, 0x24, 0x32, 0x0b, 0x01, 0x00, 0x1c, 0x00, 0x07,
    0x04, 0x00, 0x00, 0x03, 0x0b, 0x16, 0x2e, 0x0b, 0x64, 0x29, 0x32, 0x30,
    0x51, 0x0b, 0x00, 0x00, 0x00, 0x0b, 0x00, 0x07, 0x00, 0x00, 0x00, 0x00,
    0x00, 0x00, 0x00, 0x00, 0x00, 0x00, 0x00, 0x00, 0x00, 0x64, 0x59, 0x4f,
    0x0a, 0x64, 0x07, 0x00, 0x00, 0x25, 0x2f, 0x38, 0x3a, 0x00, 0x44, 0x14,
    0x00, 0x00, 0x0f, 0x03, 0x0b, 0x01, 0x00, 0x66, 0x00, 0x07, 0x04, 0x00,
    0x00, 0x03, 0x0b, 0x16, 0x2e, 0x0b, 0x64, 0x29, 0x32, 0x30, 0x51, 0x14,
    0x00, 0x00, 0x00, 0x0b, 0x00, 0x07, 0x00, 0x00, 0x00, 0x00, 0x00, 0x00,
    0x00, 0x00, 0x00, 0x00, 0x00, 0x00, 0x00, 0x41, 0x5f, 0x5b, 0x07, 0x1b,
    0x0c, 0x00, 0x00, 0x08, 0x0d, 0x24, 0x42, 0x4b, 0x58, 0x4a, 0x64, 0x50,
    0x00, 0x00, 0x00, 0x00, 0x00, 0x00, 0x00, 0x00, 0x00, 0x00, 0x15, 0xf7,
    0x50, 0xf0, 0x82, 0x09, 0x41, 0x10, 0x16, 0x12, 0x08, 0x20, 0x00, 0x53,
    0x71, 0x75, 0x6f, 0x72, 0x74, 0x61, 0x6c, 0x20, 0x20, 0x07, 0x00, 0x0f,
    0x00, 0x24, 0x3a, 0x0b, 0x01, 0x01, 0x00, 0x31, 0x07, 0x04, 0x03, 0x00,
    0x05, 0x1a, 0x18, 0x00, 0x32, 0x36, 0x2e, 0x32, 0x32, 0x33, 0x10, 0x32,
    0x54, 0x0f, 0x08, 0x67, 0x04, 0x37, 0x30, 0x04, 0x00, 0x12, 0x29, 0x54,
    0x5f, 0x64, 0x52, 0x40, 0x15, 0x00, 0x50, 0x53, 0x5b, 0x0c, 0x1b, 0x0c,
    0x00, 0x03, 0x05, 0x12, 0x58, 0x58, 0x3f, 0x50, 0x64, 0x60, 0x60, 0x24,
    0x2a, 0x0b, 0x01, 0x01, 0x00, 0x18, 0x07, 0x07, 0x00, 0x00, 0x0d, 0x18,
    0x00, 0x00, 0x29, 0x30, 0x32, 0x32, 0x32, 0x3d, 0x14, 0x3c, 0x5a, 0x0c,
    0x08, 0x5e, 0x03, 0x3a, 0x1e, 0x04, 0x00, 0x06, 0x48, 0x5a, 0x5a, 0x64,
    0x5a, 0x4f, 0x0a, 0x0a, 0x50, 0x53, 0x5b, 0x0a, 0x1b, 0x0c, 0x00, 0x03,
    0x05, 0x0e, 0x58, 0x58, 0x44, 0x52, 0x64, 0x60, 0x60, 0x2b, 0x32, 0x0b,
    0x01, 0x01, 0x00, 0x2f, 0x07, 0x04, 0x03, 0x00, 0x05, 0x1a, 0x18, 0x00,
    0x32, 0x36, 0x2e, 0x32, 0x32, 0x3b, 0x00, 0x26, 0x55, 0x0e, 0x08, 0x67,
    0x04, 0x3a, 0x30, 0x04, 0x00, 0x0e, 0x21, 0x46, 0x48, 0x64, 0x46, 0x2e,
    0x1c, 0x20, 0x50, 0x53, 0x5b, 0x0c, 0x1b, 0x0c, 0x00, 0x03, 0x05, 0x12,
    0x58, 0x58, 0x3f, 0x50, 0x64, 0x60, 0x60, 0x30, 0x32, 0x0b, 0x01, 0x01,
    0x00, 0x31, 0x07, 0x04, 0x03, 0x00, 0x5a, 0x62, 0x4a, 0x51, 0x32, 0x36,
    0x2e, 0x32, 0x31, 0x3b, 0x00, 0x26, 0x39, 0x08, 0x08, 0x67, 0x04, 0x23,
    0x30, 0x04, 0x00, 0x09, 0x23, 0x48, 0x4c, 0x64, 0x4a, 0x2c, 0x22, 0x2e,
    0x50, 0x53, 0x5b, 0x0c, 0x1b, 0x0c, 0x00, 0x03, 0x03, 0x12, 0x58, 0x58,
    0x41, 0x54, 0x64, 0x60, 0x60, 0x00, 0x00, 0x00, 0x00, 0x00, 0x00, 0x00,
    0x00, 0x00, 0x00, 0x4e, 0xf7, 0x5a, 0xf0, 0x82, 0x09, 0x41, 0x10, 0x16,
    0x12, 0x08, 0x22, 0x00, 0x57, 0x61, 0x72, 0x6d, 0x50, 0x61, 0x64, 0x20,
    0x20, 0x20, 0x00, 0x07, 0x0f, 0x00, 0x24, 0x2d, 0x0b, 0x01, 0x01, 0x00,
    0x00, 0x07, 0x00, 0x00, 0x00, 0x00, 0x00, 0x00, 0x00, 0x32, 0x32, 0x32,
    0x32, 0x32, 0x40, 0x1a, 0x3c, 0x40, 0x10, 0x06, 0x00, 0x07, 0x64, 0x00,
    0x00, 0x00, 0x05, 0x24, 0x00, 0x00, 0x64, 0x36, 0x27, 0x27, 0x27, 0x5a,
    0x4f, 0x5b, 0x0c, 0x1b, 0x0c, 0x00, 0x00, 0x16, 0x42, 0x64, 0x00, 0x48,
    0x4c, 0x62, 0x00, 0x00, 0x24, 0x37, 0x0b, 0x01, 0x01, 0x00, 0x00, 0x07,
    0x00, 0x00, 0x00, 0x00, 0x00, 0x00, 0x00, 0x32, 0x32, 0x32, 0x32, 0x32,
    0x3e, 0x1d, 0x2b, 0x3b, 0x10, 0x06, 0x00, 0x07, 0x64, 0x00, 0x00, 0x00,
    0x06, 0x24, 0x00, 0x00, 0x64, 0x34, 0x27, 0x27, 0x27, 0x5a, 0x4f, 0x5b,
    0x0c, 0x1b, 0x0c, 0x00, 0x00, 0x19, 0x42, 0x64, 0x00, 0x4a, 0x4c, 0x62,
    0x00, 0x00, 0x24, 0x28, 0x0b, 0x01, 0x01, 0x00, 0x00, 0x07, 0x00, 0x00,
    0x00, 0x00, 0x00, 0x00, 0x00, 0x32, 0x32, 0x32, 0x32, 0x32, 0x40, 0x1a,
    0x3c, 0x4e, 0x10, 0x06, 0x00, 0x07, 0x64, 0x00, 0x00, 0x00, 0x08, 0x24,
    0x00, 0x00, 0x64, 0x34, 0x27, 0x27, 0x27, 0x5a, 0x4f, 0x5b, 0x0c, 0x1b,
    0x0c, 0x00, 0x00, 0x21, 0x42, 0x64, 0x00, 0x46, 0x48, 0x62, 0x00, 0x00,
    0x24, 0x3c, 0x0b, 0x01, 0x01, 0x00, 0x00, 0x07, 0x00, 0x00, 0x00, 0x00,
    0x00, 0x00, 0x00, 0x32, 0x32, 0x32, 0x32, 0x32, 0x3e, 0x1d, 0x2b, 0x42,
    0x10, 0x06, 0x00, 0x07, 0x64, 0x00, 0x00, 0x00, 0x0d, 0x24, 0x00, 0x00,
    0x64, 0x32, 0x27, 0x27, 0x27, 0x5a, 0x4f, 0x5b, 0x0c, 0x1b, 0x0c, 0x00,
    0x00, 0x26, 0x42, 0x64, 0x00, 0x45, 0x4c, 0x62, 0x00, 0x00, 0x00, 0x00,
    0x00, 0x00, 0x00, 0x00, 0x00, 0x00, 0x00, 0x00, 0x3e, 0xf7, 0x5a, 0xf0,
    0x82, 0x09, 0x41, 0x10, 0x16, 0x12, 0x08, 0x24, 0x00, 0x53, 0x70, 0x61,
    0x63, 0x65, 0x56, 0x6f, 0x69, 0x63, 0x65, 0x00, 0x00, 0x03, 0x00, 0x24,
    0x32, 0x10, 0x01, 0x00, 0x00, 0x52, 0x07, 0x07, 0x03, 0x01, 0x12, 0x17,
    0x2b, 0x00, 0x02, 0x26, 0x32, 0x32, 0x32, 0x42, 0x2c, 0x53, 0x41, 0x00,
    0x0a, 0x3b, 0x06, 0x0a, 0x32, 0x00, 0x00, 0x0b, 0x1f, 0x36, 0x36, 0x30,
    0x35, 0x64, 0x00, 0x00, 0x50, 0x4d, 0x5b, 0x0c, 0x1b, 0x0a, 0x00, 0x02,
    0x07, 0x0b, 0x11, 0x11, 0x3c, 0x36, 0x50, 0x64, 0x64, 0x24, 0x2c, 0x10,
    0x01, 0x00, 0x00, 0x53, 0x07, 0x02, 0x00, 0x00, 0x12, 0x1c, 0x2c, 0x00,
    0x02, 0x1d, 0x2c, 0x32, 0x32, 0x41, 0x28, 0x46, 0x41, 0x17, 0x09, 0x17,
    0x09, 0x0e, 0x3c, 0x00, 0x00, 0x14, 0x2f, 0x41, 0x41, 0x2a, 0x38, 0x64,
    0x09, 0x09, 0x50, 0x4b, 0x6e, 0x09, 0x1b, 0x0a, 0x01, 0x00, 0x08, 0x12,
    0x22, 0x22, 0x4e, 0x22, 0x4a, 0x64, 0x64, 0x24, 0x32, 0x0b, 0x00, 0x00,
    0x00, 0x00, 0x07, 0x00, 0x00, 0x00, 0x00, 0x00, 0x00, 0x00, 0x32, 0x32,
    0x32, 0x32, 0x32, 0x00, 0x00, 0x00, 0x00, 0x00, 0x0b, 0x00, 0x07, 0x00,
    0x00, 0x00, 0x00, 0x00, 0x00, 0x00, 0x00, 0x00, 0x00, 0x00, 0x00, 0x00,
    0x00, 0x32, 0x5b, 0x0c, 0x1b, 0x0c, 0x00, 0x00, 0x00, 0x00, 0x00, 0x00,
    0x00, 0x00, 0x00, 0x00, 0x00, 0x24, 0x32, 0x0b, 0x00, 0x00, 0x00, 0x00,
    0x07, 0x00, 0x00, 0x00, 0x00, 0x00, 0x00, 0x00, 0x32, 0x32, 0x32, 0x32,
    0x32, 0x00, 0x00, 0x00, 0x00, 0x00, 0x0b, 0x00, 0x07, 0x00, 0x00, 0x00,
    0x00, 0x00, 0x00, 0x00, 0x00, 0x00, 0x00, 0x00, 0x00, 0x00, 0x00, 0x32,
    0x5b, 0x0c, 0x1b, 0x0c, 0x00, 0x00, 0x00, 0x00, 0x00, 0x00, 0x00, 0x00,
    0x00, 0x00, 0x00, 0x00, 0x00, 0x00, 0x00, 0x00, 0x00, 0x00, 0x00, 0x00,
    0x00, 0x64, 0xf7, 0x5a, 0xf0, 0x82, 0x09, 0x41, 0x10, 0x16, 0x12, 0x08,
    0x26, 0x00, 0x48, 0x6f, 0x6c, 0x79, 0x50, 0x61, 0x64, 0x20, 0x20, 0x20,
    0x07, 0x02, 0x0f, 0x00, 0x30, 0x33, 0x0f, 0x01, 0x00, 0x00, 0x00, 0x07,
    0x00, 0x00, 0x04, 0x0a, 0x00, 0x24, 0x00, 0x32, 0x1d, 0x39, 0x32, 0x32,
    0x41, 0x00, 0x00, 0x2a, 0x00, 0x07, 0x00, 0x07, 0x36, 0x00, 0x00, 0x00,
    0x08, 0x35, 0x3e, 0x57, 0x2e, 0x64, 0x23, 0x17, 0x08, 0x50, 0x4b, 0x5b,
    0x09, 0x1b, 0x08, 0x00, 0x00, 0x02, 0x0b, 0x2e, 0x64, 0x2c, 0x35, 0x5c,
    0x64, 0x20, 0x24, 0x31, 0x0f, 0x01, 0x00, 0x00, 0x00, 0x07, 0x00, 0x00,
    0x04, 0x0a, 0x00, 0x24, 0x00, 0x32, 0x1d, 0x39, 0x32, 0x32, 0x41, 0x00,
    0x00, 0x37, 0x00, 0x07, 0x00, 0x07, 0x36, 0x00, 0x00, 0x00, 0x08, 0x35,
    0x3e, 0x64, 0x47, 0x64, 0x23, 0x17, 0x16, 0x50, 0x4b, 0x5b, 0x09, 0x1b,
    0x08, 0x00, 0x00, 0x02, 0x0b, 0x2e, 0x3f, 0x2b, 0x35, 0x5c, 0x64, 0x24,
    0x24, 0x32, 0x0b, 0x01, 0x00, 0x1b, 0x00, 0x07, 0x00, 0x00, 0x00, 0x0c,
    0x17, 0x00, 0x00, 0x0b, 0x64, 0x32, 0x32, 0x30, 0x00, 0x00, 0x00, 0x1f,
    0x00, 0x0b, 0x00, 0x07, 0x36, 0x00, 0x00, 0x04, 0x00, 0x1b, 0x20, 0x58,
    0x2b, 0x00, 0x1b, 0x1b, 0x00, 0x64, 0x32, 0x5b, 0x09, 0x1b, 0x07, 0x00,
    0x00, 0x08, 0x44, 0x51, 0x4a, 0x45, 0x5a, 0x2e, 0x00, 0x00, 0x24, 0x32,
    0x10, 0x00, 0x00, 0x00, 0x00, 0x07, 0x05, 0x00, 0x00, 0x00, 0x0b, 0x00,
    0x00, 0x32, 0x32, 0x32, 0x32, 0x30, 0x3e, 0x0d, 0x3e, 0x64, 0x00, 0x0b,
    0x00, 0x07, 0x00, 0x00, 0x00, 0x00, 0x05, 0x35, 0x27, 0x45, 0x00, 0x1a,
    0x39, 0x32, 0x00, 0x55, 0x45, 0x5b, 0x07, 0x1b, 0x05, 0x00, 0x01, 0x11,
    0x3f, 0x27, 0x5a, 0x38, 0x38, 0x15, 0x00, 0x00, 0x00, 0x00, 0x00, 0x00,
    0x00, 0x00, 0x00, 0x00, 0x00, 0x00, 0x4f, 0xf7, 0x5a, 0xf0, 0x82, 0x09,
    0x41, 0x10, 0x16, 0x12, 0x08, 0x28, 0x00, 0x53, 0x77, 0x65, 0x65, 0x70,
    0x50, 0x61, 0x64, 0x20, 0x20, 0x07, 0x07, 0x0f, 0x00, 0x24, 0x32, 0x0f,
    0x01, 0x00, 0x00, 0x00, 0x07, 0x03, 0x03, 0x02, 0x0c, 0x22, 0x3d, 0x44,
    0x32, 0x36, 0x32, 0x28, 0x2f, 0x40, 0x06, 0x2f, 0x31, 0x0e, 0x0a, 0x3e,
    0x06, 0x52, 0x64, 0x00, 0x02, 0x44, 0x49, 0x43, 0x28, 0x56, 0x52, 0x2a,
    0x40, 0x2c, 0x4c, 0x49, 0x5b, 0x0c, 0x1b, 0x0c, 0x02, 0x04, 0x25, 0x40,
    0x4e, 0x5f, 0x4a, 0x64, 0x64, 0x64, 0x64, 0x24, 0x32, 0x0b, 0x01, 0x00,
    0x00, 0x51, 0x07, 0x03, 0x03, 0x02, 0x0c, 0x22, 0x3d, 0x44, 0x32, 0x36,
    0x32, 0x3c, 0x3b, 0x3d, 0x06, 0x2f, 0x21, 0x0f, 0x0a, 0x3e, 0x06, 0x52,
    0x64, 0x00, 0x02, 0x47, 0x5d, 0x5a, 0x54, 0x56, 0x4a, 0x38, 0x20, 0x5a,
    0x4c, 0x49, 0x5b, 0x0c, 0x1b, 0x0c, 0x02, 0x04, 0x25, 0x0f, 0x1a, 0x5f,
    0x4a, 0x61, 0x64, 0x59, 0x59, 0x24, 0x25, 0x0f, 0x01, 0x00, 0x00, 0x12,
    0x07, 0x03, 0x03, 0x02, 0x00, 0x46, 0x00, 0x00, 0x32, 0x32, 0x32, 0x32,
    0x32, 0x3e, 0x1e, 0x2f, 0x34, 0x0b, 0x0a, 0x30, 0x0a, 0x50, 0x36, 0x00,
    0x02, 0x53, 0x64, 0x47, 0x14, 0x5e, 0x48, 0x24, 0x24, 0x1a, 0x4c, 0x4f,
    0x5b, 0x0c, 0x1b, 0x0c, 0x02, 0x04, 0x35, 0x4e, 0x60, 0x39, 0x50, 0x60,
    0x56, 0x54, 0x60, 0x24, 0x2f, 0x0b, 0x01, 0x00, 0x00, 0x30, 0x07, 0x03,
    0x03, 0x02, 0x00, 0x32, 0x00, 0x00, 0x32, 0x32, 0x32, 0x32, 0x32, 0x3f,
    0x1e, 0x2e, 0x20, 0x1a, 0x0a, 0x30, 0x0a, 0x50, 0x36, 0x00, 0x02, 0x4c,
    0x56, 0x5a, 0x00, 0x5e, 0x64, 0x43, 0x5a, 0x5a, 0x4c, 0x4f, 0x5b, 0x0c,
    0x1b, 0x0c, 0x02, 0x04, 0x3f, 0x2a, 0x3c, 0x3d, 0x50, 0x5c, 0x64, 0x54,
    0x60, 0x00, 0x00, 0x00, 0x00, 0x00, 0x00, 0x00, 0x00, 0x00, 0x00, 0x07,
    0xf7, 0x5a, 0xf0, 0x82, 0x09, 0x41, 0x10, 0x16, 0x12, 0x08, 0x2a, 0x00,
    0x42, 0x72, 0x69, 0x67, 0x68, 0x74, 0x6e, 0x65, 0x73, 0x73, 0x00, 0x02,
    0x07, 0x00, 0x24, 0x32, 0x10, 0x01, 0x00, 0x00, 0x3c, 0x07, 0x05, 0x00,
    0x00, 0x00, 0x00, 0x03, 0x54, 0x32, 0x4a, 0x32, 0x32, 0x32, 0x41, 0x1e,
    0x3f, 0x60, 0x00, 0x08, 0x16, 0x09, 0x48, 0x28, 0x00, 0x02, 0x00, 0x00,
    0x17, 0x2c, 0x00, 0x32, 0x27, 0x00, 0x00, 0x5c, 0x46, 0x5b, 0x08, 0x0f,
    0x0c, 0x03, 0x00, 0x05, 0x07, 0x3f, 0x3e, 0x3c, 0x64, 0x64, 0x2a, 0x00,
    0x30, 0x2f, 0x0f, 0x01, 0x01, 0x31, 0x40, 0x07, 0x08, 0x00, 0x00, 0x00,
    0x00, 0x1c, 0x00, 0x4d, 0x12, 0x30, 0x32, 0x32, 0x3e, 0x08, 0x29, 0x59,
    0x12, 0x0b, 0x5f, 0x0a, 0x27, 0x00, 0x00, 0x00, 0x01, 0x23, 0x0b, 0x4b,
    0x48, 0x62, 0x38, 0x4d, 0x00, 0x64, 0x5a, 0x7f, 0x0c, 0x1b, 0x0c, 0x02,
    0x04, 0x00, 0x0d, 0x01, 0x59, 0x50, 0x35, 0x46, 0x53, 0x00, 0x24, 0x32,
    0x0b, 0x01, 0x01, 0x1b, 0x00, 0x07, 0x00, 0x00, 0x00, 0x00, 0x00, 0x00,
    0x00, 0x32, 0x32, 0x32, 0x32, 0x32, 0x00, 0x00, 0x00, 0x00, 0x00, 0x07,
    0x00, 0x07, 0x19, 0x00, 0x00, 0x00, 0x00, 0x08, 0x30, 0x00, 0x00, 0x00,
    0x4e, 0x00, 0x00, 0x64, 0x5a, 0x5b, 0x08, 0x00, 0x0c, 0x00, 0x00, 0x00,
    0x00, 0x64, 0x1e, 0x00, 0x64, 0x60, 0x10, 0x04, 0x24, 0x32, 0x0b, 0x00,
    0x00, 0x00, 0x00, 0x07, 0x00, 0x00, 0x00, 0x00, 0x00, 0x00, 0x00, 0x32,
    0x32, 0x32, 0x32, 0x32, 0x00, 0x00, 0x00, 0x00, 0x00, 0x09, 0x00, 0x07,
    0x00, 0x00, 0x00, 0x00, 0x00, 0x00, 0x00, 0x00, 0x00, 0x00, 0x00, 0x00,
    0x00, 0x00, 0x32, 0x5b, 0x0a, 0x1b, 0x0c, 0x00, 0x00, 0x00, 0x0c, 0x00,
    0x4b, 0x00, 0x64, 0x00, 0x00, 0x00, 0x00, 0x00, 0x00, 0x00, 0x00, 0x00,
    0x00, 0x00, 0x00, 0x00, 0x51, 0xf7, 0x5a, 0xf0, 0x82, 0x09, 0x41, 0x10,
    0x16, 0x12, 0x08, 0x2c, 0x00, 0x47, 0x6f, 0x62, 0x6c, 0x69, 0x6e, 0x20,
    0x20, 0x20, 0x20, 0x07, 0x05, 0x0f, 0x00, 0x24, 0x39, 0x0f, 0x01, 0x00,
    0x00, 0x5e, 0x07, 0x02, 0x03, 0x04, 0x0f, 0x17, 0x24, 0x64, 0x21, 0x38,
    0x2b, 0x35, 0x32, 0x2d, 0x1b, 0x3e, 0x24, 0x19, 0x06, 0x00, 0x07, 0x64,
    0x00, 0x00, 0x00, 0x0b, 0x55, 0x64, 0x55, 0x64, 0x00, 0x3a, 0x3e, 0x12,
    0x55, 0x41, 0x5b, 0x0c, 0x2e, 0x0c, 0x02, 0x04, 0x1f, 0x31, 0x64, 0x53,
    0x44, 0x64, 0x5a, 0x64, 0x3e, 0x24, 0x2a, 0x10, 0x01, 0x00, 0x00, 0x36,
    0x07, 0x02, 0x03, 0x04, 0x0f, 0x17, 0x24, 0x64, 0x43, 0x2c, 0x39, 0x2f,
    0x32, 0x38, 0x1d, 0x3e, 0x22, 0x1a, 0x06, 0x00, 0x07, 0x64, 0x00, 0x00,
    0x00, 0x0a, 0x43, 0x64, 0x64, 0x5c, 0x00, 0x38, 0x44, 0x16, 0x56, 0x41,
    0x5b, 0x0c, 0x1f, 0x0c, 0x02, 0x04, 0x1f, 0x31, 0x64, 0x50, 0x3f, 0x64,
    0x5a, 0x64, 0x3e, 0x18, 0x26, 0x0f, 0x01, 0x00, 0x62, 0x00, 0x07, 0x00,
    0x00, 0x00, 0x00, 0x00, 0x00, 0x00, 0x32, 0x32, 0x32, 0x32, 0x32, 0x34,
    0x00, 0x3e, 0x00, 0x00, 0x0b, 0x00, 0x07, 0x00, 0x00, 0x00, 0x00, 0x00,
    0x00, 0x00, 0x00, 0x00, 0x00, 0x00, 0x00, 0x00, 0x39, 0x50, 0x60, 0x08,
    0x1b, 0x07, 0x04, 0x00, 0x1d, 0x50, 0x44, 0x60, 0x58, 0x54, 0x28, 0x54,
    0x26, 0x30, 0x3a, 0x0f, 0x01, 0x02, 0x24, 0x00, 0x07, 0x00, 0x00, 0x00,
    0x00, 0x00, 0x00, 0x00, 0x32, 0x32, 0x32, 0x32, 0x32, 0x34, 0x00, 0x3e,
    0x00, 0x00, 0x0b, 0x00, 0x07, 0x00, 0x00, 0x00, 0x00, 0x00, 0x64, 0x00,
    0x00, 0x00, 0x00, 0x52, 0x00, 0x00, 0x4b, 0x50, 0x5b, 0x07, 0x1b, 0x07,
    0x04, 0x00, 0x47, 0x53, 0x64, 0x5a, 0x5a, 0x54, 0x64, 0x5e, 0x00, 0x00,
    0x00, 0x00, 0x00, 0x00, 0x00, 0x00, 0x00, 0x00, 0x00, 0x5d, 0xf7, 0x5a,
    0xf0, 0x82, 0x09, 0x41, 0x10, 0x16, 0x12, 0x08, 0x2e, 0x00, 0x42, 0x61,
    0x6e, 0x6a, 0x6f, 0x20, 0x20, 0x20, 0x20, 0x20, 0x01, 0x02, 0x07, 0x00,
    0x24, 0x3e, 0x0f, 0x01, 0x00, 0x57, 0x4b, 0x07, 0x03, 0x00, 0x01, 0x14,
    0x07, 0x19, 0x00, 0x32, 0x43, 0x32, 0x32, 0x32, 0x3e, 0x03, 0x00, 0x55,
    0x00, 0x06, 0x0f, 0x09, 0x5c, 0x49, 0x00, 0x02, 0x00, 0x00, 0x2c, 0x32,
    0x57, 0x4e, 0x45, 0x1d, 0x00, 0x5c, 0x4c, 0x7f, 0x0c, 0x1b, 0x05, 0x00,
    0x00, 0x00, 0x2d, 0x39, 0x55, 0x1f, 0x61, 0x52, 0x20, 0x00, 0x45, 0x25,
    0x0b, 0x01, 0x00, 0x00, 0x00, 0x07, 0x00, 0x00, 0x00, 0x06, 0x00, 0x00,
    0x00, 0x44, 0x32, 0x29, 0x32, 0x32, 0x40, 0x02, 0x31, 0x1f, 0x1e, 0x07,
    0x67, 0x08, 0x46, 0x58, 0x00, 0x02, 0x00, 0x09, 0x32, 0x00, 0x58, 0x62,
    0x47, 0x00, 0x00, 0x23, 0x4a, 0x5b, 0x08, 0x3e, 0x0c, 0x00, 0x02, 0x00,
    0x29, 0x2f, 0x5c, 0x24, 0x5c, 0x54, 0x20, 0x00, 0x24, 0x43, 0x0f, 0x00,
    0x00, 0x28, 0x00, 0x07, 0x00, 0x00, 0x00, 0x0a, 0x00, 0x0b, 0x00, 0x3a,
    0x32, 0x32, 0x32, 0x32, 0x00, 0x00, 0x00, 0x2b, 0x00, 0x09, 0x1b, 0x08,
    0x0b, 0x00, 0x00, 0x00, 0x00, 0x07, 0x00, 0x00, 0x1a, 0x64, 0x0a, 0x00,
    0x00, 0x64, 0x32, 0x40, 0x0c, 0x1b, 0x0c, 0x00, 0x04, 0x00, 0x09, 0x33,
    0x62, 0x36, 0x64, 0x64, 0x00, 0x00, 0x24, 0x27, 0x0b, 0x00, 0x00, 0x05,
    0x00, 0x07, 0x00, 0x00, 0x00, 0x07, 0x00, 0x00, 0x00, 0x32, 0x32, 0x32,
    0x32, 0x32, 0x00, 0x00, 0x00, 0x00, 0x00, 0x0b, 0x00, 0x07, 0x00, 0x00,
    0x00, 0x00, 0x00, 0x00, 0x00, 0x00, 0x00, 0x00, 0x00, 0x00, 0x00, 0x50,
    0x32, 0x5b, 0x0c, 0x2b, 0x0c, 0x00, 0x00, 0x00, 0x00, 0x00, 0x36, 0x04,
    0x00, 0x00, 0x00, 0x12, 0x00, 0x00, 0x00, 0x00, 0x00, 0x00, 0x00, 0x00,
    0x00, 0x00, 0x15, 0xf7, 0x5a, 0xf0, 0x82, 0x09, 0x41, 0x10, 0x16, 0x12,
    0x08, 0x30, 0x00, 0x53, 0x68, 0x61, 0x6d, 0x69, 0x73, 0x65, 0x6e, 0x20,
    0x20, 0x02, 0x02, 0x07, 0x00, 0x24, 0x32, 0x0f, 0x01, 0x00, 0x15, 0x00,
    0x07, 0x00, 0x00, 0x00, 0x00, 0x00, 0x00, 0x00, 0x32, 0x32, 0x32, 0x32,
    0x32, 0x00, 0x00, 0x00, 0x00, 0x00, 0x0b, 0x00, 0x07, 0x00, 0x00, 0x00,
    0x00, 0x00, 0x00, 0x00, 0x00, 0x00, 0x00, 0x00, 0x00, 0x00, 0x5e, 0x4b,
    0x5b, 0x0c, 0x1b, 0x06, 0x00, 0x00, 0x00, 0x32, 0x3c, 0x22, 0x1b, 0x64,
    0x25, 0x00, 0x00, 0x30, 0x37, 0x0f, 0x01, 0x01, 0x00, 0x64, 0x07, 0x03,
    0x01, 0x04, 0x0a, 0x0b, 0x1c, 0x24, 0x3f, 0x27, 0x38, 0x32, 0x2f, 0x37,
    0x09, 0x15, 0x52, 0x1c, 0x08, 0x1b, 0x09, 0x18, 0x14, 0x00, 0x00, 0x0a,
    0x2c, 0x31, 0x2d, 0x58, 0x64, 0x3a, 0x28, 0x1f, 0x4b, 0x44, 0x6d, 0x06,
    0x12, 0x09, 0x02, 0x01, 0x00, 0x10, 0x53, 0x4c, 0x4c, 0x64, 0x3a, 0x00,
    0x00, 0x30, 0x37, 0x0f, 0x01, 0x01, 0x1a, 0x64, 0x07, 0x03, 0x01, 0x04,
    0x0a, 0x0b, 0x1c, 0x24, 0x3f, 0x27, 0x38, 0x32, 0x2f, 0x37, 0x09, 0x15,
    0x52, 0x1c, 0x08, 0x1b, 0x09, 0x18, 0x14, 0x00, 0x00, 0x0a, 0x2c, 0x31,
    0x2d, 0x58, 0x64, 0x3a, 0x28, 0x1f, 0x4b, 0x44, 0x6d, 0x06, 0x12, 0x09,
    0x02, 0x01, 0x00, 0x1e, 0x64, 0x4c, 0x4c, 0x64, 0x4e, 0x00, 0x00, 0x30,
    0x37, 0x0f, 0x01, 0x01, 0x00, 0x64, 0x07, 0x03, 0x01, 0x04, 0x0a, 0x0b,
    0x1c, 0x24, 0x3f, 0x27, 0x38, 0x32, 0x2f, 0x37, 0x09, 0x15, 0x52, 0x1c,
    0x08, 0x1b, 0x09, 0x18, 0x14, 0x00, 0x00, 0x0a, 0x2c, 0x31, 0x2d, 0x58,
    0x64, 0x3a, 0x28, 0x1f, 0x4b, 0x44, 0x6d, 0x06, 0x12, 0x09, 0x02, 0x01,
    0x00, 0x24, 0x41, 0x4c, 0x4c, 0x64, 0x5b, 0x00, 0x00, 0x00, 0x00, 0x00,
    0x00, 0x00, 0x00, 0x00, 0x00, 0x00, 0x00, 0x36, 0xf7, 0x5a, 0xf0, 0x82,
    0x09, 0x41, 0x10, 0x16, 0x12, 0x08, 0x32, 0x00, 0x4b, 0x61, 0x6c, 0x69,
    0x6d, 0x62, 0x61, 0x20, 0x20, 0x20, 0x01, 0x05, 0x0f, 0x00, 0x24, 0x32,
    0x10, 0x01, 0x01, 0x00, 0x00, 0x07, 0x00, 0x00, 0x00, 0x00, 0x00, 0x00,
    0x00, 0x32, 0x32, 0x32, 0x32, 0x32, 0x3c, 0x03, 0x22, 0x35, 0x00, 0x0b,
    0x00, 0x07, 0x00, 0x00, 0x00, 0x00, 0x00, 0x00, 0x00, 0x00, 0x00, 0x00,
    0x00, 0x00, 0x00, 0x64, 0x3c, 0x5b, 0x0c, 0x1b, 0x0c, 0x04, 0x00, 0x00,
    0x1c, 0x37, 0x45, 0x42, 0x64, 0x56, 0x40, 0x00, 0x43, 0x48, 0x10, 0x01,
    0x01, 0x00, 0x00, 0x07, 0x00, 0x00, 0x00, 0x00, 0x00, 0x00, 0x00, 0x32,
    0x32, 0x32, 0x32, 0x32, 0x00, 0x00, 0x00, 0x42, 0x00, 0x09, 0x33, 0x0a,
    0x00, 0x00, 0x00, 0x00, 0x00, 0x00, 0x00, 0x00, 0x00, 0x00, 0x00, 0x00,
    0x00, 0x64, 0x3c, 0x5b, 0x0c, 0x1b, 0x07, 0x01, 0x00, 0x00, 0x1e, 0x2a,
    0x48, 0x45, 0x64, 0x5f, 0x4c, 0x00, 0x24, 0x32, 0x10, 0x01, 0x00, 0x34,
    0x00, 0x07, 0x00, 0x00, 0x00, 0x00, 0x00, 0x00, 0x00, 0x32, 0x32, 0x32,
    0x32, 0x32, 0x3c, 0x03, 0x22, 0x35, 0x00, 0x0b, 0x00, 0x07, 0x00, 0x00,
    0x00, 0x00, 0x00, 0x00, 0x00, 0x00, 0x00, 0x00, 0x00, 0x00, 0x00, 0x64,
    0x64, 0x5b, 0x0c, 0x2f, 0x07, 0x04, 0x00, 0x00, 0x1c, 0x37, 0x45, 0x42,
    0x64, 0x56, 0x40, 0x00, 0x24, 0x32, 0x10, 0x01, 0x00, 0x21, 0x00, 0x07,
    0x00, 0x00, 0x00, 0x00, 0x00, 0x00, 0x00, 0x32, 0x32, 0x32, 0x32, 0x32,
    0x3c, 0x03, 0x22, 0x35, 0x00, 0x0b, 0x00, 0x07, 0x00, 0x00, 0x00, 0x00,
    0x00, 0x00, 0x00, 0x00, 0x00, 0x00, 0x00, 0x00, 0x00, 0x64, 0x64, 0x5b,
    0x0c, 0x2f, 0x07, 0x04, 0x00, 0x00, 0x1c, 0x37, 0x45, 0x42, 0x64, 0x56,
    0x40, 0x00, 0x00, 0x00, 0x00, 0x00, 0x00, 0x00, 0x00, 0x00, 0x00, 0x00,
    0x66, 0xf7, 0x5a, 0xf0, 0x82, 0x09, 0x41, 0x10, 0x16, 0x12, 0x08, 0x34,
    0x00, 0x42, 0x61, 0x67, 0x50, 0x69, 0x70, 0x65, 0x73, 0x20, 0x20, 0x01,
    0x00, 0x07, 0x00, 0x24, 0x36, 0x10, 0x01, 0x00, 0x00, 0x54, 0x07, 0x07,
    0x03, 0x00, 0x0a, 0x08, 0x11, 0x06, 0x24, 0x27, 0x1c, 0x32, 0x32, 0x40,
    0x11, 0x4e, 0x57, 0x00, 0x09, 0x6e, 0x04, 0x15, 0x60, 0x00, 0x00, 0x12,
    0x1a, 0x16, 0x57, 0x5a, 0x28, 0x24, 0x17, 0x19, 0x63, 0x4e, 0x70, 0x0c,
    0x1b, 0x0c, 0x02, 0x03, 0x0d, 0x17, 0x16, 0x1e, 0x44, 0x3c, 0x63, 0x5e,
    0x64, 0x24, 0x3a, 0x10, 0x01, 0x00, 0x00, 0x44, 0x07, 0x04, 0x01, 0x02,
    0x0c, 0x0a, 0x14, 0x0d, 0x0d, 0x24, 0x2d, 0x32, 0x32, 0x41, 0x07, 0x48,
    0x52, 0x00, 0x09, 0x31, 0x04, 0x1b, 0x33, 0x00, 0x00, 0x0c, 0x15, 0x17,
    0x46, 0x5a, 0x39, 0x39, 0x3b, 0x16, 0x5e, 0x50, 0x5b, 0x0c, 0x1b, 0x0c,
    0x02, 0x02, 0x10, 0x19, 0x14, 0x18, 0x42, 0x42, 0x58, 0x60, 0x64, 0x25,
    0x32, 0x0e, 0x00, 0x00, 0x18, 0x00, 0x07, 0x00, 0x00, 0x00, 0x00, 0x00,
    0x00, 0x00, 0x32, 0x32, 0x32, 0x32, 0x32, 0x00, 0x00, 0x00, 0x00, 0x00,
    0x04, 0x00, 0x07, 0x00, 0x00, 0x00, 0x00, 0x00, 0x00, 0x00, 0x00, 0x00,
    0x00, 0x00, 0x00, 0x00, 0x36, 0x46, 0x3c, 0x0c, 0x1b, 0x0c, 0x00, 0x00,
    0x00, 0x34, 0x00, 0x00, 0x1f, 0x16, 0x00, 0x00, 0x00, 0x24, 0x32, 0x0b,
    0x00, 0x00, 0x00, 0x00, 0x07, 0x00, 0x00, 0x00, 0x00, 0x00, 0x00, 0x00,
    0x32, 0x32, 0x32, 0x32, 0x32, 0x00, 0x00, 0x00, 0x00, 0x00, 0x0b, 0x00,
    0x07, 0x00, 0x00, 0x00, 0x00, 0x00, 0x00, 0x00, 0x00, 0x00, 0x00, 0x00,
    0x00, 0x00, 0x00, 0x32, 0x5b, 0x0c, 0x1b, 0x0c, 0x00, 0x00, 0x00, 0x00,
    0x00, 0x00, 0x00, 0x00, 0x00, 0x00, 0x00, 0x00, 0x00, 0x00, 0x00, 0x00,
    0x00, 0x00, 0x00, 0x00, 0x00, 0x79, 0xf7, 0x5a, 0xf0, 0x82, 0x09, 0x41,
    0x10, 0x16, 0x12, 0x08, 0x36, 0x00, 0x54, 0x72, 0x69, 0x61, 0x6e, 0x67,
    0x6c, 0x65, 0x20, 0x20, 0x02, 0x00, 0x03, 0x00, 0x30, 0x25, 0x04, 0x01,
    0x00, 0x10, 0x00, 0x07, 0x00, 0x00, 0x00, 0x00, 0x00, 0x00, 0x00, 0x32,
    0x32, 0x32, 0x32, 0x32, 0x00, 0x00, 0x00, 0x00, 0x00, 0x0b, 0x00, 0x07,
    0x00, 0x00, 0x00, 0x00, 0x00, 0x00, 0x00, 0x00, 0x00, 0x00, 0x00, 0x00,
    0x00, 0x52, 0x53, 0x62, 0x0c, 0x16, 0x0c, 0x00, 0x00, 0x01, 0x08, 0x10,
    0x5c, 0x44, 0x64, 0x64, 0x60, 0x00, 0x48, 0x59, 0x04, 0x01, 0x00, 0x00,
    0x00, 0x07, 0x00, 0x00, 0x00, 0x00, 0x00, 0x00, 0x00, 0x32, 0x32, 0x32,
    0x32, 0x32, 0x3f, 0x04, 0x00, 0x64, 0x00, 0x0b, 0x00, 0x07, 0x12, 0x00,
    0x00, 0x00, 0x16, 0x21, 0x19, 0x23, 0x2c, 0x19, 0x2d, 0x35, 0x39, 0x57,
    0x50, 0x62, 0x09, 0x16, 0x0c, 0x00, 0x00, 0x01, 0x17, 0x12, 0x49, 0x46,
    0x64, 0x61, 0x57, 0x00, 0x48, 0x59, 0x04, 0x01, 0x00, 0x00, 0x00, 0x07,
    0x00, 0x00, 0x00, 0x00, 0x00, 0x00, 0x00, 0x32, 0x32, 0x32, 0x32, 0x32,
    0x3f, 0x04, 0x00, 0x64, 0x00, 0x0b, 0x00, 0x07, 0x12, 0x00, 0x00, 0x00,
    0x16, 0x21, 0x19, 0x23, 0x5d, 0x19, 0x2d, 0x35, 0x39, 0x57, 0x50, 0x62,
    0x09, 0x16, 0x0c, 0x00, 0x00, 0x01, 0x17, 0x12, 0x34, 0x52, 0x64, 0x61,
    0x57, 0x00, 0x48, 0x59, 0x04, 0x01, 0x00, 0x00, 0x00, 0x07, 0x00, 0x00,
    0x00, 0x00, 0x00, 0x00, 0x00, 0x32, 0x32, 0x32, 0x32, 0x32, 0x3f, 0x04,
    0x00, 0x64, 0x00, 0x0b, 0x00, 0x07, 0x12, 0x00, 0x00, 0x00, 0x16, 0x21,
    0x19, 0x23, 0x5d, 0x19, 0x2d, 0x35, 0x39, 0x57, 0x50, 0x62, 0x09, 0x16,
    0x0c, 0x00, 0x00, 0x01, 0x17, 0x12, 0x34, 0x52, 0x64, 0x61, 0x57, 0x00,
    0x00, 0x00, 0x00, 0x00, 0x00, 0x00, 0x00, 0x00, 0x00, 0x00, 0x7a, 0xf7,
    0x5a, 0xf0, 0x82, 0x09, 0x41, 0x10, 0x16, 0x12, 0x08, 0x38, 0x00, 0x41,
    0x67, 0x6f, 0x67, 0x6f, 0x20, 0x20, 0x20, 0x20, 0x20, 0x05, 0x00, 0x03,
    0x01, 0x18, 0x20, 0x0b, 0x01, 0x00, 0x10, 0x00, 0x07, 0x00, 0x00, 0x00,
    0x00, 0x00, 0x00, 0x00, 0x32, 0x32, 0x32, 0x32, 0x32, 0x00, 0x00, 0x00,
    0x00, 0x00, 0x0b, 0x00, 0x07, 0x00, 0x00, 0x00, 0x00, 0x00, 0x00, 0x00,
    0x00, 0x00, 0x00, 0x00, 0x00, 0x00, 0x64, 0x57, 0x7f, 0x0c, 0x00, 0x0c,
    0x00, 0x02, 0x00, 0x01, 0x14, 0x19, 0x64, 0x45, 0x64, 0x64, 0x64, 0x24,
    0x18, 0x0b, 0x01, 0x00, 0x10, 0x00, 0x07, 0x00, 0x00, 0x00, 0x00, 0x00,
    0x00, 0x00, 0x32, 0x32, 0x32, 0x32, 0x32, 0x00, 0x00, 0x00, 0x00, 0x00,
    0x0b, 0x00, 0x07, 0x00, 0x00, 0x00, 0x00, 0x00, 0x00, 0x00, 0x00, 0x00,
    0x00, 0x00, 0x00, 0x00, 0x64, 0x57, 0x7f, 0x0c, 0x00, 0x0c, 0x00, 0x02,
    0x00, 0x01, 0x14, 0x19, 0x64, 0x45, 0x64, 0x64, 0x64, 0x29, 0x03, 0x03,
    0x01, 0x02, 0x19, 0x00, 0x07, 0x00, 0x00, 0x00, 0x00, 0x00, 0x00, 0x00,
    0x32, 0x32, 0x32, 0x32, 0x32, 0x00, 0x00, 0x00, 0x00, 0x00, 0x0b, 0x00,
    0x07, 0x00, 0x00, 0x00, 0x00, 0x00, 0x00, 0x00, 0x00, 0x00, 0x00, 0x00,
    0x00, 0x00, 0x64, 0x57, 0x7f, 0x0c, 0x00, 0x0c, 0x00, 0x02, 0x00, 0x01,
    0x14, 0x19, 0x64, 0x45, 0x64, 0x64, 0x64, 0x29, 0x03, 0x03, 0x01, 0x02,
    0x19, 0x00, 0x07, 0x00, 0x00, 0x00, 0x00, 0x00, 0x00, 0x00, 0x32, 0x32,
    0x32, 0x32, 0x32, 0x00, 0x00, 0x00, 0x00, 0x00, 0x0b, 0x00, 0x07, 0x00,
    0x00, 0x00, 0x00, 0x00, 0x00, 0x00, 0x00, 0x00, 0x00, 0x00, 0x00, 0x00,
    0x64, 0x57, 0x7f, 0x0c, 0x00, 0x0c, 0x00, 0x02, 0x00, 0x01, 0x14, 0x19,
    0x64, 0x45, 0x64, 0x64, 0x64, 0x00, 0x00, 0x00, 0x00, 0x00, 0x00, 0x00,
    0x00, 0x00, 0x00, 0x40, 0xf7, 0x5a, 0xf0, 0x82, 0x09, 0x41, 0x10, 0x16,
    0x12, 0x08, 0x3a, 0x00, 0x53, 0x74, 0x65, 0x65, 0x6c, 0x44, 0x72, 0x75,
    0x6d, 0x73, 0x00, 0x02, 0x07, 0x00, 0x30, 0x43, 0x10, 0x01, 0x00, 0x00,
    0x46, 0x07, 0x00, 0x00, 0x00, 0x01, 0x24, 0x00, 0x00, 0x1b, 0x22, 0x32,
    0x32, 0x32, 0x3e, 0x01, 0x1c, 0x2c, 0x00, 0x08, 0x24, 0x08, 0x00, 0x3a,
    0x00, 0x02, 0x00, 0x00, 0x18, 0x3c, 0x2d, 0x00, 0x47, 0x0e, 0x00, 0x64,
    0x42, 0x00, 0x0c, 0x7f, 0x09, 0x01, 0x00, 0x1f, 0x12, 0x36, 0x52, 0x4d,
    0x62, 0x50, 0x1e, 0x00, 0x24, 0x1e, 0x10, 0x01, 0x00, 0x00, 0x50, 0x07,
    0x00, 0x03, 0x00, 0x64, 0x64, 0x01, 0x00, 0x4f, 0x17, 0x31, 0x32, 0x32,
    0x3f, 0x0e, 0x1b, 0x23, 0x00, 0x0b, 0x16, 0x04, 0x00, 0x00, 0x00, 0x00,
    0x0e, 0x08, 0x13, 0x0d, 0x58, 0x52, 0x4b, 0x48, 0x28, 0x60, 0x42, 0x5b,
    0x0c, 0x1b, 0x0c, 0x03, 0x04, 0x20, 0x24, 0x36, 0x56, 0x56, 0x60, 0x4a,
    0x18, 0x00, 0x24, 0x32, 0x0b, 0x00, 0x00, 0x0c, 0x00, 0x07, 0x00, 0x00,
    0x00, 0x00, 0x00, 0x00, 0x10, 0x32, 0x2e, 0x32, 0x30, 0x32, 0x41, 0x00,
    0x00, 0x00, 0x00, 0x03, 0x00, 0x0a, 0x00, 0x00, 0x00, 0x00, 0x00, 0x00,
    0x00, 0x00, 0x00, 0x00, 0x00, 0x00, 0x00, 0x62, 0x51, 0x5b, 0x0c, 0x27,
    0x0a, 0x00, 0x00, 0x00, 0x19, 0x64, 0x00, 0x38, 0x00, 0x56, 0x04, 0x00,
    0x24, 0x32, 0x10, 0x00, 0x00, 0x00, 0x00, 0x07, 0x00, 0x00, 0x00, 0x00,
    0x00, 0x00, 0x00, 0x32, 0x32, 0x32, 0x32, 0x32, 0x00, 0x00, 0x00, 0x00,
    0x10, 0x0b, 0x00, 0x07, 0x00, 0x00, 0x00, 0x00, 0x00, 0x00, 0x37, 0x00,
    0x00, 0x00, 0x00, 0x00, 0x00, 0x00, 0x40, 0x5b, 0x0c, 0x1b, 0x0c, 0x00,
    0x00, 0x00, 0x00, 0x00, 0x00, 0x00, 0x64, 0x00, 0x00, 0x00, 0x00, 0x00,
    0x00, 0x00, 0x00, 0x00, 0x00, 0x00, 0x00, 0x00, 0x19, 0xf7, 0x5a, 0xf0,
    0x82, 0x09, 0x41, 0x10, 0x16, 0x12, 0x08, 0x3c, 0x00, 0x53, 0x65, 0x61,
    0x73, 0x68, 0x6f, 0x72, 0x65, 0x20, 0x20, 0x05, 0x00, 0x03, 0x00, 0x0e,
    0x32, 0x10, 0x01, 0x00, 0x18, 0x50, 0x07, 0x02, 0x00, 0x00, 0x0b, 0x0a,
    0x17, 0x00, 0x4f, 0x3b, 0x35, 0x32, 0x32, 0x3e, 0x0a, 0x45, 0x2d, 0x10,
    0x0a, 0x1e, 0x0b, 0x33, 0x00, 0x00, 0x00, 0x15, 0x26, 0x3b, 0x46, 0x33,
    0x40, 0x22, 0x0e, 0x04, 0x52, 0x46, 0x5b, 0x0c, 0x1b, 0x0c, 0x03, 0x00,
    0x43, 0x3e, 0x42, 0x41, 0x36, 0x4e, 0x38, 0x30, 0x00, 0x2c, 0x32, 0x10,
    0x01, 0x00, 0x18, 0x50, 0x07, 0x02, 0x00, 0x00, 0x0b, 0x0a, 0x17, 0x00,
    0x4f, 0x3b, 0x35, 0x32, 0x32, 0x3e, 0x0a, 0x45, 0x2d, 0x10, 0x0a, 0x1e,
    0x0b, 0x33, 0x00, 0x00, 0x00, 0x15, 0x26, 0x3b, 0x46, 0x33, 0x40, 0x22,
    0x0e, 0x04, 0x52, 0x46, 0x5b, 0x0c, 0x1b, 0x0c, 0x03, 0x00, 0x43, 0x29,
    0x3c, 0x64, 0x36, 0x4e, 0x34, 0x44, 0x00, 0x24, 0x32, 0x0b, 0x00, 0x00,
    0x00, 0x00, 0x07, 0x00, 0x00, 0x00, 0x00, 0x00, 0x00, 0x00, 0x32, 0x32,
    0x32, 0x32, 0x32, 0x00, 0x00, 0x00, 0x00, 0x00, 0x0b, 0x00, 0x07, 0x00,
    0x00, 0x00, 0x00, 0x00, 0x00, 0x00, 0x00, 0x00, 0x00, 0x00, 0x00, 0x00,
    0x00, 0x32, 0x5b, 0x0c, 0x1b, 0x0c, 0x00, 0x00, 0x00, 0x00, 0x00, 0x00,
    0x00, 0x00, 0x00, 0x00, 0x00, 0x24, 0x32, 0x0b, 0x00, 0x00, 0x00, 0x00,
    0x07, 0x00, 0x00, 0x00, 0x00, 0x00, 0x00, 0x00, 0x32, 0x32, 0x32, 0x32,
    0x32, 0x00, 0x00, 0x00, 0x00, 0x00, 0x0b, 0x00, 0x07, 0x00, 0x00, 0x00,
    0x00, 0x00, 0x00, 0x00, 0x00, 0x00, 0x00, 0x00, 0x00, 0x00, 0x00, 0x32,
    0x5b, 0x0c, 0x1b, 0x0c, 0x00, 0x00, 0x00, 0x00, 0x00, 0x00, 0x00, 0x00,
    0x00, 0x00, 0x00, 0x00, 0x00, 0x00, 0x00, 0x00, 0x00, 0x00, 0x00, 0x00,
    0x00, 0x22, 0xf7, 0x5a, 0xf0, 0x82, 0x09, 0x41, 0x10, 0x16, 0x12, 0x08,
    0x3e, 0x00, 0x48, 0x65, 0x6c, 0x69, 0x63, 0x6f, 0x70, 0x74, 0x65, 0x72,
    0x05, 0x05, 0x01, 0x00, 0x24, 0x2b, 0x05, 0x01, 0x03, 0x34, 0x10, 0x0e,
    0x00, 0x00, 0x00, 0x00, 0x00, 0x00, 0x00, 0x32, 0x32, 0x32, 0x32, 0x32,
    0x40, 0x04, 0x64, 0x20, 0x00, 0x05, 0x00, 0x07, 0x00, 0x00, 0x02, 0x00,
    0x07, 0x00, 0x16, 0x00, 0x60, 0x00, 0x00, 0x00, 0x00, 0x64, 0x46, 0x5b,
    0x0c, 0x1b, 0x0c, 0x00, 0x00, 0x00, 0x64, 0x64, 0x49, 0x2b, 0x64, 0x64,
    0x64, 0x64, 0x24, 0x2b, 0x05, 0x01, 0x03, 0x38, 0x10, 0x0e, 0x00, 0x00,
    0x00, 0x00, 0x00, 0x00, 0x00, 0x32, 0x32, 0x32, 0x32, 0x32, 0x40, 0x04,
    0x64, 0x20, 0x00, 0x05, 0x00, 0x07, 0x00, 0x00, 0x02, 0x00, 0x07, 0x00,
    0x16, 0x00, 0x60, 0x00, 0x00, 0x00, 0x00, 0x64, 0x46, 0x5b, 0x0c, 0x1b,
    0x0c, 0x00, 0x00, 0x00, 0x64, 0x64, 0x49, 0x2b, 0x64, 0x64, 0x64, 0x64,
    0x24, 0x2b, 0x05, 0x01, 0x03, 0x38, 0x10, 0x0e, 0x00, 0x00, 0x00, 0x00,
    0x00, 0x00, 0x00, 0x32, 0x32, 0x32, 0x32, 0x32, 0x40, 0x04, 0x64, 0x20,
    0x00, 0x05, 0x00, 0x07, 0x00, 0x00, 0x02, 0x00, 0x07, 0x00, 0x16, 0x00,
    0x60, 0x00, 0x00, 0x00, 0x00, 0x64, 0x46, 0x5b, 0x0c, 0x1b, 0x0c, 0x00,
    0x00, 0x00, 0x64, 0x64, 0x49, 0x2b, 0x64, 0x64, 0x64, 0x64, 0x24, 0x2b,
    0x05, 0x01, 0x03, 0x38, 0x10, 0x0e, 0x00, 0x00, 0x00, 0x00, 0x00, 0x00,
    0x00, 0x32, 0x32, 0x32, 0x32, 0x32, 0x40, 0x04, 0x64, 0x20, 0x00, 0x05,
    0x00, 0x07, 0x00, 0x00, 0x02, 0x00, 0x07, 0x00, 0x16, 0x00, 0x60, 0x00,
    0x00, 0x00, 0x00, 0x64, 0x46, 0x5b, 0x0c, 0x1b, 0x0c, 0x00, 0x00, 0x00,
    0x64, 0x64, 0x49, 0x2b, 0x64, 0x64, 0x64, 0x64, 0x00, 0x00, 0x00, 0x00,
    0x00, 0x00, 0x00, 0x00, 0x00, 0x00, 0x28, 0xf7, 0x55, 0xf0, 0x82, 0x09,
    0x41, 0x10, 0x16, 0x12, 0x08, 0x40, 0x00, 0x41, 0x70, 0x70, 0x6c, 0x61,
    0x75, 0x73, 0x65, 0x20, 0x20, 0x05, 0x05, 0x01, 0x00, 0x24, 0x2b, 0x05,
    0x01, 0x03, 0x1e, 0x10, 0x0e, 0x00, 0x00, 0x00, 0x00, 0x00, 0x00, 0x00,
    0x32, 0x32, 0x32, 0x32, 0x32, 0x40, 0x04, 0x64, 0x20, 0x00, 0x05, 0x00,
    0x07, 0x00, 0x00, 0x02, 0x00, 0x07, 0x00, 0x16, 0x00, 0x60, 0x00, 0x00,
    0x00, 0x00, 0x64, 0x46, 0x5b, 0x0c, 0x1b, 0x0c, 0x00, 0x00, 0x00, 0x64,
    0x64, 0x49, 0x2b, 0x64, 0x64, 0x64, 0x64, 0x24, 0x2b, 0x05, 0x01, 0x03,
    0x38, 0x10, 0x0e, 0x00, 0x00, 0x00, 0x00, 0x00, 0x00, 0x00, 0x32, 0x32,
    0x32, 0x32, 0x32, 0x40, 0x04, 0x64, 0x20, 0x00, 0x05, 0x00, 0x07, 0x00,
    0x00, 0x02, 0x00, 0x07, 0x00, 0x16, 0x00, 0x60, 0x00, 0x00, 0x00, 0x00,
    0x64, 0x46, 0x5b, 0x0c, 0x1b, 0x0c, 0x00, 0x00, 0x00, 0x64, 0x64, 0x49,
    0x2b, 0x64, 0x64, 0x64, 0x64, 0x24, 0x2b, 0x05, 0x01, 0x03, 0x38, 0x10,
    0x0e, 0x00, 0x00, 0x00, 0x00, 0x00, 0x00, 0x00, 0x32, 0x32, 0x32, 0x32,
    0x32, 0x40, 0x04, 0x64, 0x20, 0x00, 0x05, 0x00, 0x07, 0x00, 0x00, 0x02,
    0x00, 0x07, 0x00, 0x16, 0x00, 0x60, 0x00, 0x00, 0x00, 0x00, 0x64, 0x46,
    0x5b, 0x0c, 0x1b, 0x0c, 0x00, 0x00, 0x00, 0x64, 0x64, 0x49, 0x2b, 0x64,
    0x64, 0x64, 0x64, 0x24, 0x2b, 0x05, 0x01, 0x03, 0x38, 0x10, 0x0e, 0x00,
    0x00, 0x00, 0x00, 0x00, 0x00, 0x00, 0x32, 0x32, 0x32, 0x32, 0x32, 0x40,
    0x04, 0x64, 0x20, 0x00, 0x05, 0x00, 0x07, 0x00, 0x00, 0x02, 0x00, 0x07,
    0x00, 0x16, 0x00, 0x60, 0x00, 0x00, 0x00, 0x00, 0x64, 0x46, 0x5b, 0x0c,
    0x1b, 0x0c, 0x00, 0x00, 0x00, 0x64, 0x64, 0x49, 0x2b, 0x64, 0x64, 0x64,
    0x64, 0x00, 0x00, 0x00, 0x00, 0x00, 0x00, 0x00, 0x00, 0x00, 0x00, 0x50,
    0xf7, 0x5a, 0xf0, 0x82, 0x09, 0x41, 0x10, 0x16, 0x12, 0x08, 0x42, 0x00,
    0x50, 0x69, 0x73, 0x74, 0x6f, 0x6c, 0x20, 0x20, 0x20, 0x20, 0x05, 0x05,
    0x01, 0x00, 0x24, 0x2b, 0x05, 0x01, 0x03, 0x0f, 0x10, 0x0e, 0x00, 0x00,
    0x00, 0x00, 0x00, 0x00, 0x00, 0x32, 0x32, 0x32, 0x32, 0x32, 0x40, 0x04,
    0x64, 0x20, 0x00, 0x05, 0x00, 0x07, 0x00, 0x00, 0x02, 0x00, 0x07, 0x00,
    0x16, 0x00, 0x60, 0x00, 0x00, 0x00, 0x00, 0x64, 0x46, 0x5b, 0x0c, 0x1b,
    0x0c, 0x00, 0x00, 0x00, 0x64, 0x64, 0x49, 0x2b, 0x64, 0x64, 0x64, 0x64,
    0x24, 0x2b, 0x05, 0x01, 0x03, 0x38, 0x10, 0x0e, 0x00, 0x00, 0x00, 0x00,
    0x00, 0x00, 0x00, 0x32, 0x32, 0x32, 0x32, 0x32, 0x40, 0x04, 0x64, 0x20,
    0x00, 0x05, 0x00, 0x07, 0x00, 0x00, 0x02, 0x00, 0x07, 0x00, 0x16, 0x00,
    0x60, 0x00, 0x00, 0x00, 0x00, 0x64, 0x46, 0x5b, 0x0c, 0x1b, 0x0c, 0x00,
    0x00, 0x00, 0x64, 0x64, 0x49, 0x2b, 0x64, 0x64, 0x64, 0x64, 0x24, 0x2b,
    0x05, 0x01, 0x03, 0x38, 0x10, 0x0e, 0x00, 0x00, 0x00, 0x00, 0x00, 0x00,
    0x00, 0x32, 0x32, 0x32, 0x32, 0x32, 0x40, 0x04, 0x64, 0x20, 0x00, 0x05,
    0x00, 0x07, 0x00, 0x00, 0x02, 0x00, 0x07, 0x00, 0x16, 0x00, 0x60, 0x00,
    0x00, 0x00, 0x00, 0x64, 0x46, 0x5b, 0x0c, 0x1b, 0x0c, 0x00, 0x00, 0x00,
    0x64, 0x64, 0x49, 0x2b, 0x64, 0x64, 0x64, 0x64, 0x24, 0x2b, 0x05, 0x01,
    0x03, 0x38, 0x10, 0x0e, 0x00, 0x00, 0x00, 0x00, 0x00, 0x00, 0x00, 0x32,
    0x32, 0x32, 0x32, 0x32, 0x40, 0x04, 0x64, 0x20, 0x00, 0x05, 0x00, 0x07,
    0x00, 0x00, 0x02, 0x00, 0x07, 0x00, 0x16, 0x00, 0x60, 0x00, 0x00, 0x00,
    0x00, 0x64, 0x46, 0x5b, 0x0c, 0x1b, 0x0c, 0x00, 0x00, 0x00, 0x64, 0x64,
    0x49, 0x2b, 0x64, 0x64, 0x64, 0x64, 0x00, 0x00, 0x00, 0x00, 0x00, 0x00,
    0x00, 0x00, 0x00, 0x00, 0x5d, 0xf7, 0x5a, 0xf0, 0x82, 0x09, 0x41, 0x10,
    0x16, 0x12, 0x08, 0x44, 0x00, 0x45, 0x63, 0x68, 0x6f, 0x44, 0x72, 0x6f,
    0x70, 0x73, 0x20, 0x00, 0x00, 0x0f, 0x00, 0x24, 0x32, 0x10, 0x01, 0x00,
    0x00, 0x52, 0x07, 0x08, 0x00, 0x00, 0x17, 0x1b, 0x18, 0x09, 0x0c, 0x29,
    0x2f, 0x32, 0x62, 0x42, 0x2c, 0x53, 0x41, 0x00, 0x0a, 0x3b, 0x06, 0x0a,
    0x32, 0x00, 0x00, 0x04, 0x1f, 0x36, 0x36, 0x30, 0x34, 0x64, 0x00, 0x00,
    0x50, 0x4d, 0x5b, 0x0c, 0x1b, 0x0a, 0x00, 0x02, 0x02, 0x0b, 0x11, 0x11,
    0x3c, 0x36, 0x50, 0x64, 0x64, 0x24, 0x2c, 0x10, 0x01, 0x00, 0x00, 0x53,
    0x07, 0x08, 0x00, 0x00, 0x17, 0x1b, 0x18, 0x09, 0x0c, 0x29, 0x2f, 0x32,
    0x32, 0x41, 0x28, 0x46, 0x41, 0x17, 0x09, 0x17, 0x09, 0x0e, 0x3c, 0x00,
    0x00, 0x05, 0x1d, 0x41, 0x41, 0x2a, 0x3a, 0x64, 0x09, 0x09, 0x50, 0x4b,
    0x6e, 0x09, 0x1b, 0x0a, 0x01, 0x00, 0x00, 0x05, 0x18, 0x22, 0x4e, 0x24,
    0x4e, 0x64, 0x64, 0x24, 0x32, 0x10, 0x01, 0x00, 0x00, 0x3c, 0x07, 0x08,
    0x00, 0x00, 0x00, 0x00, 0x03, 0x09, 0x32, 0x32, 0x32, 0x32, 0x62, 0x41,
    0x1e, 0x3f, 0x52, 0x00, 0x08, 0x16, 0x09, 0x48, 0x28, 0x00, 0x02, 0x00,
    0x00, 0x17, 0x2c, 0x00, 0x32, 0x27, 0x00, 0x00, 0x5c, 0x46, 0x5b, 0x08,
    0x0f, 0x0c, 0x03, 0x00, 0x0b, 0x1c, 0x5b, 0x64, 0x3c, 0x58, 0x48, 0x2e,
    0x02, 0x24, 0x32, 0x10, 0x01, 0x00, 0x00, 0x3c, 0x07, 0x08, 0x00, 0x00,
    0x00, 0x00, 0x03, 0x05, 0x32, 0x32, 0x32, 0x32, 0x32, 0x41, 0x1e, 0x3f,
    0x52, 0x00, 0x08, 0x16, 0x09, 0x48, 0x28, 0x00, 0x02, 0x00, 0x00, 0x17,
    0x2c, 0x00, 0x32, 0x27, 0x00, 0x00, 0x5c, 0x46, 0x5b, 0x08, 0x0f, 0x0c,
    0x03, 0x00, 0x0b, 0x1c, 0x5b, 0x64, 0x3c, 0x58, 0x48, 0x2e, 0x02, 0x00,
    0x00, 0x00, 0x00, 0x00, 0x00, 0x00, 0x00, 0x00, 0x00, 0x42, 0xf7, 0x5a,
    0xf0, 0x82, 0x09, 0x41, 0x10, 0x16, 0x12, 0x08, 0x46, 0x00, 0x42, 0x69,
    0x72, 0x64, 0x73, 0x20, 0x20, 0x20, 0x20, 0x20, 0x05, 0x05, 0x01, 0x00,
    0x24, 0x2b, 0x05, 0x01, 0x03, 0x23, 0x10, 0x0e, 0x00, 0x00, 0x00, 0x00,
    0x00, 0x00, 0x00, 0x32, 0x32, 0x32, 0x32, 0x32, 0x40, 0x04, 0x64, 0x20,
    0x00, 0x05, 0x00, 0x07, 0x00, 0x00, 0x02, 0x00, 0x07, 0x00, 0x16, 0x00,
    0x60, 0x00, 0x00, 0x00, 0x00, 0x64, 0x46, 0x5b, 0x0c, 0x1b, 0x0c, 0x00,
    0x00, 0x00, 0x39, 0x5c, 0x5a, 0x2b, 0x64, 0x4a, 0x10, 0x00, 0x24, 0x2b,
    0x05, 0x01, 0x03, 0x38, 0x10, 0x0e, 0x00, 0x00, 0x00, 0x00, 0x00, 0x00,
    0x00, 0x32, 0x32, 0x32, 0x32, 0x32, 0x40, 0x04, 0x64, 0x20, 0x00, 0x05,
    0x00, 0x07, 0x00, 0x00, 0x02, 0x00, 0x07, 0x00, 0x16, 0x00, 0x60, 0x00,
    0x00, 0x00, 0x00, 0x64, 0x46, 0x5b, 0x0c, 0x1b, 0x0c, 0x00, 0x00, 0x00,
    0x64, 0x64, 0x49, 0x2b, 0x64, 0x64, 0x64, 0x64, 0x24, 0x2b, 0x05, 0x01,
    0x03, 0x38, 0x10, 0x0e, 0x00, 0x00, 0x00, 0x00, 0x00, 0x00, 0x00, 0x32,
    0x32, 0x32, 0x32, 0x32, 0x40, 0x04, 0x64, 0x20, 0x00, 0x05, 0x00, 0x07,
    0x00, 0x00, 0x02, 0x00, 0x07, 0x00, 0x16, 0x00, 0x60, 0x00, 0x00, 0x00,
    0x00, 0x64, 0x46, 0x5b, 0x0c, 0x1b, 0x0c, 0x00, 0x00, 0x00, 0x64, 0x64,
    0x49, 0x2b, 0x64, 0x64, 0x64, 0x64, 0x24, 0x2b, 0x05, 0x01, 0x03, 0x38,
    0x10, 0x0e, 0x00, 0x00, 0x00, 0x00, 0x00, 0x00, 0x00, 0x32, 0x32, 0x32,
    0x32, 0x32, 0x40, 0x04, 0x64, 0x20, 0x00, 0x05, 0x00, 0x07, 0x00, 0x00,
    0x02, 0x00, 0x07, 0x00, 0x16, 0x00, 0x60, 0x00, 0x00, 0x00, 0x00, 0x64,
    0x46, 0x5b, 0x0c, 0x1b, 0x0c, 0x00, 0x00, 0x00, 0x64, 0x64, 0x49, 0x2b,
    0x64, 0x64, 0x64, 0x64, 0x00, 0x00, 0x00, 0x00, 0x00, 0x00, 0x00, 0x00,
    0x00, 0x00, 0x20, 0xf7, 0x5a, 0xf0, 0x82, 0x09, 0x41, 0x10, 0x16, 0x12,
    0x08, 0x48, 0x00, 0x54, 0x72, 0x6f, 0x6d, 0x62, 0x6f, 0x6e, 0x65, 0x20,
    0x31, 0x07, 0x02, 0x07, 0x00, 0x24, 0x37, 0x10, 0x01, 0x01, 0x00, 0x00,
    0x07, 0x06, 0x00, 0x00, 0x11, 0x19, 0x2a, 0x52, 0x17, 0x27, 0x32, 0x32,
    0x31, 0x3e, 0x11, 0x29, 0x28, 0x03, 0x0a, 0x2a, 0x0b, 0x46, 0x3d, 0x00,
    0x01, 0x12, 0x0b, 0x0f, 0x5d, 0x64, 0x64, 0x23, 0x58, 0x2b, 0x4a, 0x46,
    0x7f, 0x0b, 0x1b, 0x0c, 0x01, 0x00, 0x04, 0x05, 0x07, 0x10, 0x2a, 0x49,
    0x58, 0x60, 0x64, 0x24, 0x2d, 0x10, 0x01, 0x01, 0x00, 0x00, 0x07, 0x06,
    0x00, 0x00, 0x11, 0x19, 0x29, 0x52, 0x17, 0x27, 0x32, 0x32, 0x31, 0x3c,
    0x11, 0x28, 0x28, 0x03, 0x0a, 0x2a, 0x0b, 0x46, 0x3d, 0x00, 0x01, 0x12,
    0x0b, 0x0f, 0x5d, 0x64, 0x64, 0x23, 0x58, 0x2b, 0x4a, 0x46, 0x7f, 0x0b,
    0x1b, 0x0c, 0x01, 0x00, 0x04, 0x05, 0x07, 0x10, 0x2a, 0x49, 0x58, 0x60,
    0x64, 0x24, 0x2e, 0x10, 0x01, 0x00, 0x16, 0x00, 0x07, 0x00, 0x00, 0x00,
    0x00, 0x00, 0x00, 0x00, 0x32, 0x32, 0x32, 0x32, 0x32, 0x00, 0x00, 0x00,
    0x00, 0x00, 0x03, 0x00, 0x07, 0x00, 0x00, 0x00, 0x00, 0x00, 0x00, 0x00,
    0x00, 0x00, 0x00, 0x00, 0x00, 0x00, 0x5a, 0x48, 0x7f, 0x00, 0x1b, 0x0c,
    0x01, 0x04, 0x00, 0x21, 0x2f, 0x2e, 0x2a, 0x64, 0x64, 0x24, 0x00, 0x24,
    0x32, 0x0b, 0x00, 0x00, 0x00, 0x00, 0x07, 0x00, 0x00, 0x00, 0x00, 0x00,
    0x00, 0x00, 0x32, 0x32, 0x32, 0x32, 0x32, 0x00, 0x00, 0x00, 0x00, 0x00,
    0x0b, 0x00, 0x07, 0x00, 0x00, 0x00, 0x00, 0x00, 0x00, 0x00, 0x00, 0x00,
    0x00, 0x00, 0x00, 0x00, 0x00, 0x32, 0x5b, 0x0c, 0x1b, 0x0c, 0x00, 0x00,
    0x00, 0x00, 0x00, 0x00, 0x00, 0x00, 0x00, 0x00, 0x00, 0x00, 0x00, 0x00,
    0x00, 0x00, 0x00, 0x00, 0x00, 0x00, 0x00, 0x7c, 0xf7, 0x5a, 0xf0, 0x82,
    0x09, 0x41, 0x10, 0x16, 0x12, 0x08, 0x4a, 0x00, 0x46, 0x72, 0x20, 0x48,
    0x6f, 0x72, 0x6e, 0x20, 0x31, 0x20, 0x07, 0x02, 0x07, 0x00, 0x24, 0x37,
    0x10, 0x01, 0x01, 0x00, 0x00, 0x07, 0x06, 0x01, 0x04, 0x0e, 0x12, 0x16,
    0x00, 0x07, 0x17, 0x27, 0x32, 0x32, 0x3e, 0x06, 0x1f, 0x35, 0x00, 0x0a,
    0x29, 0x0b, 0x1f, 0x51, 0x00, 0x00, 0x1c, 0x1d, 0x32, 0x3f, 0x5a, 0x64,
    0x49, 0x64, 0x50, 0x4b, 0x3f, 0x5b, 0x0c, 0x1b, 0x0c, 0x02, 0x04, 0x05,
    0x09, 0x0a, 0x0d, 0x32, 0x4d, 0x33, 0x5f, 0x64, 0x24, 0x2f, 0x10, 0x01,
    0x00, 0x00, 0x50, 0x07, 0x06, 0x01, 0x04, 0x0e, 0x12, 0x16, 0x00, 0x07,
    0x17, 0x27, 0x32, 0x32, 0x3e, 0x06, 0x2b, 0x1f, 0x00, 0x0a, 0x29, 0x0a,
    0x1f, 0x51, 0x00, 0x00, 0x1c, 0x1d, 0x32, 0x3f, 0x5a, 0x64, 0x49, 0x64,
    0x50, 0x4b, 0x3f, 0x5b, 0x0c, 0x1b, 0x0c, 0x02, 0x04, 0x05, 0x09, 0x0a,
    0x0d, 0x32, 0x4d, 0x33, 0x5f, 0x64, 0x24, 0x32, 0x10, 0x01, 0x00, 0x26,
    0x00, 0x07, 0x00, 0x00, 0x00, 0x00, 0x00, 0x00, 0x00, 0x32, 0x32, 0x32,
    0x32, 0x32, 0x00, 0x00, 0x00, 0x00, 0x00, 0x03, 0x00, 0x07, 0x00, 0x00,
    0x00, 0x00, 0x00, 0x00, 0x00, 0x00, 0x00, 0x00, 0x00, 0x00, 0x00, 0x4e,
    0x53, 0x5b, 0x0c, 0x32, 0x0c, 0x01, 0x04, 0x0b, 0x10, 0x16, 0x43, 0x2c,
    0x4e, 0x5d, 0x63, 0x00, 0x24, 0x32, 0x0b, 0x00, 0x00, 0x00, 0x00, 0x07,
    0x00, 0x00, 0x00, 0x00, 0x00, 0x00, 0x00, 0x32, 0x32, 0x32, 0x32, 0x32,
    0x00, 0x00, 0x00, 0x00, 0x00, 0x0b, 0x00, 0x07, 0x00, 0x00, 0x00, 0x00,
    0x00, 0x00, 0x00, 0x00, 0x00, 0x00, 0x00, 0x00, 0x00, 0x00, 0x32, 0x5b,
    0x0c, 0x1b, 0x0c, 0x00, 0x00, 0x00, 0x00, 0x00, 0x00, 0x00, 0x00, 0x00,
    0x00, 0x00, 0x00, 0x00, 0x00, 0x00, 0x00, 0x00, 0x00, 0x00, 0x00, 0x00,
    0x3b, 0xf7, 0x50, 0xf0, 0x82, 0x09, 0x41, 0x10, 0x16, 0x12, 0x08, 0x4c,
    0x00, 0x42, 0x72, 0x73, 0x20, 0x53, 0x65, 0x63, 0x74, 0x20, 0x31, 0x05,
    0x07, 0x0f, 0x00, 0x30, 0x32, 0x10, 0x01, 0x00, 0x17, 0x00, 0x07, 0x00,
    0x00, 0x00, 0x00, 0x00, 0x00, 0x00, 0x32, 0x32, 0x32, 0x32, 0x32, 0x00,
    0x00, 0x00, 0x00, 0x00, 0x03, 0x00, 0x07, 0x00, 0x00, 0x00, 0x00, 0x00,
    0x00, 0x00, 0x00, 0x00, 0x00, 0x00, 0x00, 0x00, 0x46, 0x48, 0x7f, 0x06,
    0x24, 0x05, 0x00, 0x01, 0x00, 0x00, 0x00, 0x00, 0x14, 0x64, 0x64, 0x64,
    0x64, 0x24, 0x32, 0x10, 0x01, 0x00, 0x1d, 0x00, 0x07, 0x00, 0x00, 0x00,
    0x00, 0x00, 0x00, 0x00, 0x32, 0x32, 0x32, 0x32, 0x32, 0x00, 0x00, 0x00,
    0x00, 0x00, 0x03, 0x00, 0x07, 0x00, 0x00, 0x00, 0x00, 0x00, 0x00, 0x00,
    0x00, 0x00, 0x00, 0x00, 0x00, 0x00, 0x46, 0x48, 0x7f, 0x06, 0x24, 0x0c,
    0x00, 0x01, 0x00, 0x00, 0x1d, 0x2e, 0x28, 0x64, 0x64, 0x64, 0x00, 0x30,
    0x32, 0x10, 0x01, 0x01, 0x00, 0x00, 0x07, 0x06, 0x03, 0x00, 0x0b, 0x21,
    0x23, 0x00, 0x13, 0x22, 0x32, 0x32, 0x32, 0x3f, 0x0f, 0x28, 0x46, 0x08,
    0x09, 0x24, 0x09, 0x37, 0x3a, 0x00, 0x02, 0x13, 0x01, 0x08, 0x1f, 0x64,
    0x56, 0x3c, 0x57, 0x48, 0x37, 0x50, 0x7f, 0x00, 0x1b, 0x0c, 0x01, 0x02,
    0x06, 0x08, 0x04, 0x17, 0x14, 0x4b, 0x2c, 0x64, 0x5d, 0x24, 0x2f, 0x10,
    0x01, 0x00, 0x00, 0x48, 0x07, 0x06, 0x03, 0x00, 0x0b, 0x0f, 0x18, 0x00,
    0x13, 0x22, 0x2b, 0x32, 0x32, 0x3d, 0x0f, 0x28, 0x46, 0x08, 0x09, 0x24,
    0x09, 0x37, 0x3a, 0x00, 0x02, 0x18, 0x01, 0x08, 0x1f, 0x64, 0x56, 0x3c,
    0x57, 0x48, 0x37, 0x50, 0x7f, 0x00, 0x1b, 0x0c, 0x01, 0x02, 0x0b, 0x08,
    0x0d, 0x17, 0x14, 0x4b, 0x2c, 0x64, 0x5d, 0x00, 0x00, 0x00, 0x00, 0x00,
    0x00, 0x00, 0x00, 0x00, 0x00, 0x5d, 0xf7, 0x5a, 0xf0, 0x82, 0x09, 0x41,
    0x10, 0x16, 0x12, 0x08, 0x4e, 0x00, 0x53, 0x79, 0x6e, 0x20, 0x42, 0x72,
    0x61, 0x73, 0x73, 0x32, 0x00, 0x00, 0x07, 0x00, 0x24, 0x32, 0x10, 0x01,
    0x01, 0x00, 0x00, 0x07, 0x05, 0x01, 0x03, 0x0e, 0x0d, 0x19, 0x10, 0x06,
    0x1a, 0x28, 0x32, 0x32, 0x40, 0x0a, 0x28, 0x3c, 0x05, 0x09, 0x30, 0x0a,
    0x5f, 0x64, 0x00, 0x01, 0x0c, 0x18, 0x27, 0x2a, 0x2d, 0x2e, 0x44, 0x38,
    0x15, 0x46, 0x46, 0x7f, 0x03, 0x1b, 0x0c, 0x00, 0x00, 0x02, 0x04, 0x08,
    0x0c, 0x26, 0x4a, 0x5b, 0x62, 0x64, 0x24, 0x3b, 0x10, 0x01, 0x00, 0x00,
    0x41, 0x07, 0x00, 0x00, 0x00, 0x00, 0x00, 0x35, 0x00, 0x32, 0x32, 0x32,
    0x32, 0x32, 0x40, 0x0a, 0x2a, 0x2e, 0x00, 0x0a, 0x30, 0x0a, 0x46, 0x50,
    0x00, 0x02, 0x08, 0x1d, 0x28, 0x34, 0x38, 0x1c, 0x34, 0x32, 0x0e, 0x46,
    0x46, 0x7f, 0x00, 0x1b, 0x0c, 0x00, 0x00, 0x03, 0x05, 0x0a, 0x0e, 0x26,
    0x4d, 0x5b, 0x61, 0x64, 0x18, 0x32, 0x10, 0x01, 0x01, 0x00, 0x00, 0x07,
    0x03, 0x00, 0x00, 0x1b, 0x0d, 0x30, 0x10, 0x64, 0x07, 0x3d, 0x32, 0x32,
    0x3e, 0x0a, 0x1b, 0x3e, 0x12, 0x0a, 0x70, 0x05, 0x46, 0x4d, 0x00, 0x01,
    0x00, 0x24, 0x26, 0x24, 0x2d, 0x64, 0x5f, 0x50, 0x27, 0x2d, 0x64, 0x5b,
    0x0c, 0x27, 0x0a, 0x00, 0x00, 0x00, 0x03, 0x06, 0x0a, 0x26, 0x4e, 0x56,
    0x60, 0x64, 0x24, 0x32, 0x0b, 0x00, 0x00, 0x00, 0x00, 0x07, 0x00, 0x00,
    0x00, 0x00, 0x00, 0x00, 0x00, 0x32, 0x32, 0x32, 0x32, 0x32, 0x00, 0x00,
    0x00, 0x00, 0x00, 0x0b, 0x00, 0x07, 0x00, 0x00, 0x00, 0x00, 0x00, 0x00,
    0x00, 0x00, 0x00, 0x00, 0x00, 0x00, 0x00, 0x00, 0x32, 0x5b, 0x0c, 0x1b,
    0x0c, 0x00, 0x00, 0x00, 0x00, 0x00, 0x00, 0x00, 0x00, 0x00, 0x00, 0x00,
    0x00, 0x00, 0x00, 0x00, 0x00, 0x00, 0x00, 0x00, 0x00, 0x00, 0x33, 0xf7,
    0x5a, 0xf0, 0x82, 0x09, 0x41, 0x10, 0x16, 0x12, 0x08, 0x50, 0x00, 0x53,
    0x6c, 0x61, 0x70, 0x20, 0x42, 0x61, 0x73, 0x73, 0x31, 0x05, 0x00, 0x0f,
    0x00, 0x24, 0x32, 0x10, 0x01, 0x00, 0x24, 0x00, 0x07, 0x00, 0x00, 0x00,
    0x0f, 0x0c, 0x12, 0x00, 0x15, 0x23, 0x2c, 0x32, 0x32, 0x00, 0x00, 0x00,
    0x00, 0x00, 0x03, 0x00, 0x07, 0x00, 0x00, 0x00, 0x00, 0x00, 0x00, 0x00,
    0x00, 0x00, 0x00, 0x00, 0x00, 0x00, 0x64, 0x4b, 0x50, 0x06, 0x0f, 0x0c,
    0x00, 0x00, 0x00, 0x3c, 0x00, 0x00, 0x1e, 0x64, 0x00, 0x00, 0x00, 0x24,
    0x26, 0x10, 0x01, 0x00, 0x25, 0x00, 0x07, 0x00, 0x00, 0x00, 0x0d, 0x0c,
    0x12, 0x00, 0x15, 0x25, 0x2c, 0x32, 0x32, 0x40, 0x00, 0x38, 0x00, 0x00,
    0x03, 0x00, 0x07, 0x00, 0x00, 0x00, 0x00, 0x00, 0x00, 0x00, 0x00, 0x00,
    0x00, 0x00, 0x00, 0x00, 0x64, 0x4b, 0x43, 0x04, 0x0f, 0x0c, 0x00, 0x00,
    0x00, 0x3b, 0x4e, 0x64, 0x1e, 0x64, 0x50, 0x37, 0x00, 0x18, 0x37, 0x10,
    0x01, 0x01, 0x00, 0x26, 0x07, 0x04, 0x00, 0x00, 0x0c, 0x0c, 0x0c, 0x00,
    0x1b, 0x27, 0x2f, 0x32, 0x32, 0x37, 0x19, 0x26, 0x28, 0x14, 0x07, 0x2e,
    0x07, 0x64, 0x19, 0x00, 0x00, 0x00, 0x2d, 0x50, 0x5e, 0x1c, 0x64, 0x55,
    0x30, 0x1a, 0x5a, 0x4b, 0x5b, 0x0c, 0x0f, 0x0c, 0x00, 0x00, 0x00, 0x3b,
    0x3b, 0x64, 0x1e, 0x64, 0x50, 0x37, 0x00, 0x18, 0x37, 0x10, 0x01, 0x01,
    0x00, 0x26, 0x07, 0x04, 0x00, 0x00, 0x0c, 0x0c, 0x0c, 0x00, 0x1b, 0x27,
    0x2f, 0x32, 0x32, 0x37, 0x19, 0x26, 0x28, 0x14, 0x07, 0x2e, 0x07, 0x64,
    0x19, 0x00, 0x00, 0x00, 0x2d, 0x50, 0x5e, 0x1c, 0x64, 0x55, 0x30, 0x1a,
    0x5a, 0x4b, 0x5b, 0x0c, 0x0f, 0x0c, 0x00, 0x00, 0x00, 0x3b, 0x3b, 0x64,
    0x1e, 0x64, 0x50, 0x37, 0x00, 0x00, 0x00, 0x00, 0x00, 0x00, 0x00, 0x00,
    0x00, 0x00, 0x00, 0x42, 0xf7, 0x5a, 0xf0, 0x82, 0x09, 0x41, 0x10, 0x16,
    0x12, 0x08, 0x52, 0x00, 0x48, 0x6f, 0x6e, 0x6b, 0x79, 0x74, 0x6f, 0x6e,
    0x6b, 0x20, 0x01, 0x00, 0x07, 0x00, 0x24, 0x3c, 0x10, 0x01, 0x00, 0x00,
    0x44, 0x08, 0x07, 0x00, 0x01, 0x02, 0x00, 0x07, 0x00, 0x32, 0x64, 0x30,
    0x32, 0x32, 0x38, 0x04, 0x43, 0x32, 0x00, 0x06, 0x16, 0x08, 0x43, 0x47,
    0x00, 0x02, 0x00, 0x00, 0x3b, 0x47, 0x52, 0x64, 0x47, 0x29, 0x00, 0x5a,
    0x55, 0x5c, 0x0c, 0x69, 0x0a, 0x01, 0x00, 0x00, 0x32, 0x47, 0x4a, 0x3c,
    0x64, 0x52, 0x28, 0x00, 0x50, 0x4f, 0x0f, 0x01, 0x00, 0x00, 0x21, 0x07,
    0x00, 0x00, 0x00, 0x00, 0x00, 0x00, 0x00, 0x32, 0x32, 0x32, 0x32, 0x32,
    0x00, 0x00, 0x00, 0x54, 0x10, 0x06, 0x67, 0x06, 0x64, 0x00, 0x00, 0x02,
    0x00, 0x1d, 0x48, 0x4b, 0x1d, 0x58, 0x64, 0x00, 0x00, 0x2d, 0x46, 0x0f,
    0x06, 0x5b, 0x0c, 0x01, 0x01, 0x00, 0x28, 0x3d, 0x4a, 0x28, 0x64, 0x36,
    0x23, 0x00, 0x30, 0x28, 0x10, 0x01, 0x01, 0x00, 0x50, 0x08, 0x02, 0x00,
    0x01, 0x07, 0x03, 0x07, 0x00, 0x32, 0x46, 0x30, 0x32, 0x32, 0x38, 0x00,
    0x48, 0x32, 0x14, 0x06, 0x16, 0x08, 0x4b, 0x47, 0x00, 0x02, 0x00, 0x00,
    0x3b, 0x47, 0x52, 0x64, 0x47, 0x29, 0x00, 0x5a, 0x55, 0x5c, 0x0c, 0x5d,
    0x0a, 0x01, 0x00, 0x01, 0x32, 0x47, 0x4a, 0x3c, 0x64, 0x52, 0x28, 0x00,
    0x24, 0x32, 0x0b, 0x00, 0x00, 0x00, 0x00, 0x07, 0x00, 0x00, 0x00, 0x00,
    0x00, 0x00, 0x00, 0x32, 0x32, 0x32, 0x32, 0x32, 0x00, 0x00, 0x00, 0x00,
    0x00, 0x0b, 0x00, 0x07, 0x00, 0x00, 0x00, 0x00, 0x00, 0x00, 0x00, 0x00,
    0x00, 0x00, 0x00, 0x00, 0x00, 0x00, 0x32, 0x5b, 0x0c, 0x1b, 0x0c, 0x00,
    0x00, 0x00, 0x00, 0x00, 0x00, 0x00, 0x00, 0x00, 0x00, 0x00, 0x00, 0x00,
    0x00, 0x00, 0x00, 0x00, 0x00, 0x00, 0x00, 0x00, 0x1b, 0xf7, 0x5a, 0xf0,
    0x82, 0x09, 0x41, 0x10, 0x16, 0x12, 0x08, 0x54, 0x00, 0x43, 0x72, 0x79,
    0x73, 0x74, 0x61, 0x6c, 0x20, 0x20, 0x20, 0x05, 0x00, 0x03, 0x00, 0x24,
    0x3a, 0x10, 0x01, 0x00, 0x32, 0x00, 0x07, 0x06, 0x03, 0x00, 0x04, 0x03,
    0x2e, 0x00, 0x00, 0x64, 0x32, 0x32, 0x32, 0x3e, 0x13, 0x1e, 0x00, 0x00,
    0x03, 0x00, 0x07, 0x00, 0x00, 0x00, 0x00, 0x00, 0x00, 0x00, 0x00, 0x00,
    0x00, 0x00, 0x00, 0x00, 0x64, 0x46, 0x74, 0x00, 0x0d, 0x00, 0x00, 0x00,
    0x00, 0x22, 0x34, 0x4c, 0x4c, 0x64, 0x5e, 0x3c, 0x00, 0x24, 0x2a, 0x10,
    0x01, 0x00, 0x32, 0x00, 0x07, 0x06, 0x03, 0x00, 0x09, 0x0b, 0x2e, 0x00,
    0x0d, 0x5d, 0x32, 0x32, 0x32, 0x3d, 0x0d, 0x1a, 0x00, 0x00, 0x03, 0x00,
    0x07, 0x00, 0x00, 0x00, 0x00, 0x00, 0x00, 0x00, 0x00, 0x00, 0x00, 0x00,
    0x00, 0x00, 0x64, 0x46, 0x7c, 0x00, 0x06, 0x00, 0x00, 0x00, 0x00, 0x22,
    0x34, 0x4c, 0x4c, 0x64, 0x5e, 0x3c, 0x00, 0x24, 0x32, 0x0b, 0x00, 0x00,
    0x00, 0x00, 0x07, 0x00, 0x00, 0x00, 0x00, 0x00, 0x00, 0x00, 0x32, 0x32,
    0x32, 0x32, 0x32, 0x00, 0x00, 0x00, 0x00, 0x00, 0x0b, 0x00, 0x07, 0x00,
    0x00, 0x00, 0x00, 0x00, 0x00, 0x00, 0x00, 0x00, 0x00, 0x00, 0x00, 0x00,
    0x00, 0x32, 0x5b, 0x0c, 0x1b, 0x0c, 0x00, 0x00, 0x00, 0x00, 0x00, 0x00,
    0x00, 0x00, 0x00, 0x00, 0x00, 0x24, 0x32, 0x0b, 0x00, 0x00, 0x00, 0x00,
    0x07, 0x00, 0x00, 0x00, 0x00, 0x00, 0x00, 0x00, 0x32, 0x32, 0x32, 0x32,
    0x32, 0x00, 0x00, 0x00, 0x00, 0x00, 0x0b, 0x00, 0x07, 0x00, 0x00, 0x00,
    0x00, 0x00, 0x00, 0x00, 0x00, 0x00, 0x00, 0x00, 0x00, 0x00, 0x00, 0x32,
    0x5b, 0x0c, 0x1b, 0x0c, 0x00, 0x00, 0x00, 0x00, 0x00, 0x00, 0x00, 0x00,
    0x00, 0x00, 0x00, 0x00, 0x00, 0x00, 0x00, 0x00, 0x00, 0x00, 0x00, 0x00,
    0x00, 0x19, 0xf7, 0x5a, 0xf0, 0x82, 0x09, 0x41, 0x10, 0x16, 0x12, 0x08,
    0x56, 0x00, 0x43, 0x6f, 0x6e, 0x63, 0x65, 0x72, 0x74, 0x42, 0x44, 0x20,
    0x05, 0x00, 0x03, 0x01, 0x21, 0x00, 0x03, 0x01, 0x00, 0x00, 0x38, 0x07,
    0x03, 0x03, 0x00, 0x23, 0x00, 0x00, 0x00, 0x64, 0x32, 0x32, 0x32, 0x32,
    0x00, 0x00, 0x00, 0x00, 0x00, 0x03, 0x1b, 0x07, 0x00, 0x00, 0x00, 0x00,
    0x00, 0x00, 0x00, 0x00, 0x00, 0x00, 0x00, 0x00, 0x00, 0x64, 0x3e, 0x67,
    0x0c, 0x1b, 0x0c, 0x00, 0x00, 0x05, 0x64, 0x64, 0x39, 0x58, 0x64, 0x58,
    0x4a, 0x00, 0x16, 0x64, 0x03, 0x01, 0x00, 0x03, 0x38, 0x07, 0x03, 0x03,
    0x00, 0x23, 0x00, 0x00, 0x00, 0x64, 0x32, 0x32, 0x32, 0x32, 0x00, 0x00,
    0x00, 0x00, 0x00, 0x03, 0x1b, 0x07, 0x00, 0x00, 0x00, 0x00, 0x00, 0x00,
    0x00, 0x00, 0x00, 0x00, 0x00, 0x00, 0x00, 0x64, 0x4a, 0x67, 0x0c, 0x1b,
    0x0c, 0x00, 0x00, 0x05, 0x64, 0x64, 0x3e, 0x5a, 0x64, 0x64, 0x4a, 0x00,
    0x30, 0x32, 0x0b, 0x01, 0x01, 0x00, 0x64, 0x07, 0x00, 0x00, 0x00, 0x64,
    0x64, 0x4f, 0x64, 0x00, 0x63, 0x23, 0x32, 0x32, 0x00, 0x00, 0x00, 0x41,
    0x19, 0x05, 0x67, 0x07, 0x20, 0x2b, 0x00, 0x00, 0x00, 0x11, 0x59, 0x28,
    0x5b, 0x64, 0x62, 0x00, 0x00, 0x56, 0x4b, 0x5b, 0x0c, 0x1b, 0x0c, 0x00,
    0x04, 0x00, 0x14, 0x47, 0x54, 0x51, 0x64, 0x56, 0x00, 0x00, 0x3b, 0x32,
    0x05, 0x01, 0x03, 0x62, 0x00, 0x07, 0x00, 0x00, 0x00, 0x00, 0x00, 0x00,
    0x00, 0x32, 0x32, 0x32, 0x32, 0x32, 0x35, 0x64, 0x58, 0x00, 0x00, 0x0b,
    0x00, 0x07, 0x00, 0x00, 0x00, 0x00, 0x00, 0x00, 0x00, 0x00, 0x00, 0x00,
    0x00, 0x00, 0x00, 0x3f, 0x3b, 0x5b, 0x0c, 0x1b, 0x0c, 0x02, 0x00, 0x00,
    0x4e, 0x53, 0x64, 0x5d, 0x64, 0x64, 0x64, 0x64, 0x00, 0x00, 0x00, 0x00,
    0x00, 0x00, 0x00, 0x00, 0x00, 0x00, 0x5f, 0xf7, 0x5a, 0xf0, 0x82, 0x09,
    0x41, 0x10, 0x16, 0x12, 0x08, 0x58, 0x00, 0x43, 0x6f, 0x6e, 0x63, 0x65,
    0x72, 0x74, 0x53, 0x44, 0x20, 0x05, 0x00, 0x03, 0x01, 0x23, 0x64, 0x03,
    0x01, 0x00, 0x01, 0x38, 0x07, 0x03, 0x03, 0x00, 0x21, 0x00, 0x00, 0x00,
    0x64, 0x32, 0x32, 0x32, 0x32, 0x00, 0x00, 0x00, 0x00, 0x00, 0x03, 0x1b,
    0x07, 0x00, 0x00, 0x00, 0x00, 0x00, 0x00, 0x00, 0x00, 0x00, 0x00, 0x00,
    0x00, 0x00, 0x64, 0x5b, 0x67, 0x0c, 0x1b, 0x0c, 0x00, 0x00, 0x00, 0x39,
    0x2a, 0x17, 0x05, 0x64, 0x50, 0x00, 0x00, 0x2e, 0x05, 0x03, 0x01, 0x00,
    0x01, 0x1b, 0x08, 0x08, 0x03, 0x00, 0x26, 0x30, 0x20, 0x14, 0x64, 0x31,
    0x07, 0x00, 0x00, 0x00, 0x00, 0x00, 0x1d, 0x1e, 0x03, 0x5b, 0x07, 0x2c,
    0x64, 0x00, 0x00, 0x03, 0x08, 0x37, 0x42, 0x18, 0x64, 0x3a, 0x14, 0x00,
    0x32, 0x5c, 0x5b, 0x0c, 0x1b, 0x0c, 0x00, 0x00, 0x00, 0x3f, 0x1b, 0x3a,
    0x28, 0x64, 0x62, 0x50, 0x00, 0x24, 0x32, 0x0b, 0x01, 0x00, 0x00, 0x00,
    0x07, 0x00, 0x00, 0x00, 0x00, 0x00, 0x00, 0x00, 0x32, 0x32, 0x32, 0x32,
    0x32, 0x00, 0x00, 0x00, 0x00, 0x00, 0x0b, 0x00, 0x07, 0x00, 0x00, 0x00,
    0x00, 0x00, 0x00, 0x00, 0x00, 0x00, 0x00, 0x00, 0x00, 0x00, 0x00, 0x32,
    0x5b, 0x0c, 0x1b, 0x0c, 0x00, 0x00, 0x00, 0x00, 0x00, 0x00, 0x00, 0x00,
    0x00, 0x00, 0x00, 0x24, 0x32, 0x0b, 0x01, 0x00, 0x00, 0x00, 0x07, 0x00,
    0x00, 0x00, 0x00, 0x00, 0x00, 0x00, 0x32, 0x32, 0x32, 0x32, 0x32, 0x00,
    0x00, 0x00, 0x00, 0x00, 0x0b, 0x00, 0x07, 0x00, 0x00, 0x00, 0x00, 0x00,
    0x00, 0x00, 0x00, 0x00, 0x00, 0x00, 0x00, 0x00, 0x00, 0x32, 0x5b, 0x0c,
    0x1b, 0x0c, 0x00, 0x00, 0x00, 0x00, 0x00, 0x00, 0x00, 0x00, 0x00, 0x00,
    0x00, 0x00, 0x00, 0x00, 0x00, 0x00, 0x00, 0x00, 0x00, 0x00, 0x00, 0x61,
    0xf7, 0x5a, 0xf0, 0x82, 0x09, 0x41, 0x10, 0x16, 0x12, 0x08, 0x5a, 0x00,
    0x43, 0x6f, 0x6e, 0x63, 0x72, 0x74, 0x43, 0x79, 0x6d, 0x31, 0x05, 0x00,
    0x03, 0x01, 0x2a, 0x3d, 0x03, 0x01, 0x00, 0x07, 0x00, 0x07, 0x00, 0x00,
    0x00, 0x00, 0x00, 0x00, 0x00, 0x32, 0x32, 0x32, 0x32, 0x32, 0x00, 0x00,
    0x00, 0x00, 0x00, 0x0b, 0x00, 0x07, 0x00, 0x00, 0x00, 0x00, 0x00, 0x00,
    0x00, 0x00, 0x00, 0x00, 0x00, 0x00, 0x00, 0x5c, 0x64, 0x7f, 0x0c, 0x00,
    0x0c, 0x00, 0x01, 0x06, 0x3a, 0x34, 0x2c, 0x5e, 0x62, 0x56, 0x3e, 0x02,
    0x24, 0x13, 0x03, 0x01, 0x00, 0x07, 0x00, 0x07, 0x00, 0x00, 0x00, 0x00,
    0x00, 0x00, 0x00, 0x32, 0x32, 0x32, 0x32, 0x32, 0x00, 0x00, 0x00, 0x00,
    0x00, 0x0b, 0x00, 0x07, 0x00, 0x00, 0x00, 0x00, 0x00, 0x00, 0x00, 0x00,
    0x00, 0x00, 0x00, 0x00, 0x00, 0x64, 0x56, 0x7f, 0x0c, 0x00, 0x0c, 0x00,
    0x01, 0x06, 0x40, 0x4d, 0x45, 0x45, 0x64, 0x4e, 0x00, 0x00, 0x24, 0x32,
    0x0b, 0x01, 0x00, 0x00, 0x00, 0x07, 0x00, 0x00, 0x00, 0x00, 0x00, 0x00,
    0x00, 0x32, 0x32, 0x32, 0x32, 0x32, 0x00, 0x00, 0x00, 0x00, 0x00, 0x0b,
    0x00, 0x07, 0x00, 0x00, 0x00, 0x00, 0x00, 0x00, 0x00, 0x00, 0x00, 0x00,
    0x00, 0x00, 0x00, 0x00, 0x32, 0x5b, 0x0c, 0x1b, 0x0c, 0x00, 0x01, 0x00,
    0x00, 0x00, 0x00, 0x00, 0x00, 0x00, 0x00, 0x00, 0x24, 0x32, 0x0b, 0x01,
    0x00, 0x00, 0x00, 0x07, 0x00, 0x00, 0x00, 0x00, 0x00, 0x00, 0x00, 0x32,
    0x32, 0x32, 0x32, 0x32, 0x00, 0x00, 0x00, 0x00, 0x00, 0x0b, 0x00, 0x07,
    0x00, 0x00, 0x00, 0x00, 0x00, 0x00, 0x00, 0x00, 0x00, 0x00, 0x00, 0x00,
    0x00, 0x00, 0x32, 0x5b, 0x0c, 0x1b, 0x0c, 0x00, 0x01, 0x00, 0x00, 0x00,
    0x00, 0x00, 0x00, 0x00, 0x00, 0x00, 0x00, 0x00, 0x00, 0x00, 0x00, 0x00,
    0x00, 0x00, 0x00, 0x00, 0x1d, 0xf7, 0x5a, 0xf0, 0x82, 0x09, 0x41, 0x10,
    0x16, 0x12, 0x08, 0x5c, 0x00, 0x43, 0x6f, 0x6e, 0x63, 0x72, 0x74, 0x43,
    0x79, 0x6d, 0x32, 0x05, 0x00, 0x03, 0x01, 0x26, 0x3d, 0x03, 0x01, 0x00,
    0x07, 0x00, 0x07, 0x00, 0x00, 0x00, 0x00, 0x00, 0x00, 0x00, 0x32, 0x32,
    0x32, 0x32, 0x32, 0x00, 0x00, 0x00, 0x00, 0x00, 0x0b, 0x00, 0x07, 0x00,
    0x00, 0x00, 0x00, 0x00, 0x00, 0x00, 0x00, 0x00, 0x00, 0x00, 0x00, 0x00,
    0x5c, 0x64, 0x7f, 0x0c, 0x00, 0x0c, 0x00, 0x01, 0x06, 0x3a, 0x34, 0x2c,
    0x5e, 0x62, 0x56, 0x3e, 0x02, 0x1e, 0x13, 0x03, 0x01, 0x00, 0x07, 0x00,
    0x07, 0x00, 0x00, 0x00, 0x00, 0x00, 0x00, 0x00, 0x32, 0x32, 0x32, 0x32,
    0x32, 0x00, 0x00, 0x00, 0x00, 0x00, 0x0b, 0x00, 0x07, 0x00, 0x00, 0x00,
    0x00, 0x00, 0x00, 0x00, 0x00, 0x00, 0x00, 0x00, 0x00, 0x00, 0x64, 0x56,
    0x7f, 0x0c, 0x00, 0x0c, 0x00, 0x01, 0x06, 0x40, 0x4d, 0x45, 0x45, 0x64,
    0x4e, 0x00, 0x00, 0x24, 0x32, 0x0b, 0x01, 0x00, 0x00, 0x00, 0x07, 0x00,
    0x00, 0x00, 0x00, 0x00, 0x00, 0x00, 0x32, 0x32, 0x32, 0x32, 0x32, 0x00,
    0x00, 0x00, 0x00, 0x00, 0x0b, 0x00, 0x07, 0x00, 0x00, 0x00, 0x00, 0x00,
    0x00, 0x00, 0x00, 0x00, 0x00, 0x00, 0x00, 0x00, 0x00, 0x32, 0x5b, 0x0c,
    0x1b, 0x0c, 0x00, 0x01, 0x00, 0x00, 0x00, 0x00, 0x00, 0x00, 0x00, 0x00,
    0x00, 0x24, 0x32, 0x0b, 0x01, 0x00, 0x00, 0x00, 0x07, 0x00, 0x00, 0x00,
    0x00, 0x00, 0x00, 0x00, 0x32, 0x32, 0x32, 0x32, 0x32, 0x00, 0x00, 0x00,
    0x00, 0x00, 0x0b, 0x00, 0x07, 0x00, 0x00, 0x00, 0x00, 0x00, 0x00, 0x00,
    0x00, 0x00, 0x00, 0x00, 0x00, 0x00, 0x00, 0x32, 0x5b, 0x0c, 0x1b, 0x0c,
    0x00, 0x01, 0x00, 0x00, 0x00, 0x00, 0x00, 0x00, 0x00, 0x00, 0x00, 0x00,
    0x00, 0x00, 0x00, 0x00, 0x00, 0x00, 0x00, 0x00, 0x00, 0x24, 0xf7, 0x5a,
    0xf0, 0x82, 0x09, 0x41, 0x10, 0x16, 0x12, 0x08, 0x5e, 0x00, 0x54, 0x69,
    0x6d, 0x70, 0x61, 0x6e, 0x69, 0x20, 0x20, 0x20, 0x05, 0x00, 0x03, 0x00,
    0x24, 0x32, 0x0b, 0x01, 0x00, 0x2e, 0x00, 0x07, 0x00, 0x00, 0x00, 0x00,
    0x00, 0x00, 0x00, 0x32, 0x32, 0x32, 0x32, 0x32, 0x00, 0x00, 0x00, 0x00,
    0x00, 0x0b, 0x00, 0x07, 0x00, 0x00, 0x00, 0x00, 0x00, 0x00, 0x00, 0x00,
    0x00, 0x00, 0x00, 0x00, 0x00, 0x64, 0x50, 0x5b, 0x0c, 0x1b, 0x0c, 0x04,
    0x00, 0x00, 0x39, 0x64, 0x28, 0x58, 0x64, 0x64, 0x00, 0x00, 0x24, 0x32,
    0x0b, 0x01, 0x00, 0x2e, 0x00, 0x07, 0x00, 0x00, 0x00, 0x00, 0x00, 0x00,
    0x00, 0x32, 0x32, 0x32, 0x32, 0x32, 0x00, 0x00, 0x00, 0x00, 0x00, 0x0b,
    0x00, 0x07, 0x00, 0x00, 0x00, 0x00, 0x00, 0x00, 0x00, 0x00, 0x00, 0x00,
    0x00, 0x00, 0x00, 0x64, 0x45, 0x5b, 0x0c, 0x1b, 0x0c, 0x00, 0x00, 0x00,
    0x32, 0x64, 0x3a, 0x64, 0x64, 0x64, 0x00, 0x00, 0x24, 0x32, 0x0b, 0x01,
    0x00, 0x1f, 0x00, 0x07, 0x00, 0x00, 0x00, 0x00, 0x00, 0x00, 0x00, 0x32,
    0x32, 0x32, 0x32, 0x32, 0x00, 0x00, 0x00, 0x00, 0x00, 0x0b, 0x00, 0x07,
    0x00, 0x00, 0x00, 0x00, 0x00, 0x00, 0x00, 0x00, 0x00, 0x00, 0x00, 0x00,
    0x00, 0x64, 0x45, 0x5b, 0x0c, 0x1b, 0x0c, 0x00, 0x00, 0x00, 0x32, 0x64,
    0x3a, 0x64, 0x64, 0x64, 0x00, 0x00, 0x24, 0x32, 0x0b, 0x01, 0x00, 0x1f,
    0x00, 0x07, 0x00, 0x00, 0x00, 0x00, 0x00, 0x00, 0x00, 0x32, 0x32, 0x32,
    0x32, 0x32, 0x00, 0x00, 0x00, 0x00, 0x00, 0x0b, 0x00, 0x07, 0x00, 0x00,
    0x00, 0x00, 0x00, 0x00, 0x00, 0x00, 0x00, 0x00, 0x00, 0x00, 0x00, 0x64,
    0x45, 0x5b, 0x0c, 0x1b, 0x0c, 0x00, 0x00, 0x00, 0x32, 0x64, 0x3a, 0x64,
    0x64, 0x64, 0x00, 0x00, 0x00, 0x00, 0x00, 0x00, 0x00, 0x00, 0x00, 0x00,
    0x00, 0x00, 0x2e, 0xf7, 0x5a, 0xf0, 0x82, 0x09, 0x41, 0x10, 0x16, 0x12,
    0x08, 0x60, 0x00, 0x48, 0x69, 0x43, 0x61, 0x73, 0x74, 0x69, 0x6e, 0x65,
    0x74, 0x05, 0x05, 0x03, 0x01, 0x22, 0x2f, 0x03, 0x01, 0x00, 0x11, 0x00,
    0x07, 0x00, 0x00, 0x00, 0x00, 0x00, 0x00, 0x00, 0x32, 0x32, 0x32, 0x32,
    0x32, 0x00, 0x00, 0x00, 0x00, 0x00, 0x03, 0x00, 0x07, 0x00, 0x00, 0x00,
    0x00, 0x00, 0x00, 0x00, 0x00, 0x00, 0x00, 0x00, 0x00, 0x00, 0x60, 0x46,
    0x7f, 0x0c, 0x00, 0x0c, 0x00, 0x04, 0x00, 0x00, 0x00, 0x00, 0x32, 0x64,
    0x64, 0x64, 0x64, 0x25, 0x0c, 0x03, 0x01, 0x00, 0x11, 0x00, 0x07, 0x0a,
    0x00, 0x00, 0x09, 0x00, 0x4f, 0x64, 0x00, 0x00, 0x32, 0x32, 0x32, 0x00,
    0x00, 0x00, 0x00, 0x00, 0x03, 0x00, 0x07, 0x00, 0x00, 0x00, 0x00, 0x00,
    0x00, 0x00, 0x00, 0x00, 0x00, 0x00, 0x00, 0x00, 0x57, 0x50, 0x7f, 0x0c,
    0x00, 0x0c, 0x00, 0x03, 0x0e, 0x03, 0x00, 0x00, 0x32, 0x00, 0x64, 0x64,
    0x64, 0x25, 0x0c, 0x03, 0x01, 0x02, 0x1a, 0x00, 0x07, 0x0a, 0x00, 0x00,
    0x09, 0x00, 0x4f, 0x64, 0x00, 0x00, 0x32, 0x32, 0x32, 0x00, 0x00, 0x00,
    0x00, 0x00, 0x03, 0x00, 0x07, 0x00, 0x00, 0x00, 0x00, 0x00, 0x00, 0x00,
    0x00, 0x00, 0x00, 0x00, 0x00, 0x00, 0x57, 0x50, 0x7f, 0x0c, 0x00, 0x0c,
    0x00, 0x03, 0x0e, 0x03, 0x00, 0x00, 0x32, 0x00, 0x64, 0x64, 0x64, 0x25,
    0x0c, 0x03, 0x01, 0x02, 0x1a, 0x00, 0x07, 0x0a, 0x00, 0x00, 0x09, 0x00,
    0x4f, 0x64, 0x00, 0x00, 0x32, 0x32, 0x32, 0x00, 0x00, 0x00, 0x00, 0x00,
    0x03, 0x00, 0x07, 0x00, 0x00, 0x00, 0x00, 0x00, 0x00, 0x00, 0x00, 0x00,
    0x00, 0x00, 0x00, 0x00, 0x57, 0x50, 0x7f, 0x0c, 0x00, 0x0c, 0x00, 0x03,
    0x0e, 0x03, 0x00, 0x00, 0x32, 0x00, 0x64, 0x64, 0x64, 0x00, 0x00, 0x00,
    0x00, 0x00, 0x00, 0x00, 0x00, 0x00, 0x00, 0x6b, 0xf7, 0x5a, 0xf0, 0x82,
    0x09, 0x41, 0x10, 0x16, 0x12, 0x08, 0x62, 0x00, 0x4c, 0x6f, 0x43, 0x61,
    0x73, 0x74, 0x69, 0x6e, 0x65, 0x74, 0x05, 0x05, 0x03, 0x01, 0x17, 0x2f,
    0x03, 0x01, 0x00, 0x11, 0x00, 0x07, 0x00, 0x00, 0x00, 0x00, 0x00, 0x00,
    0x00, 0x32, 0x32, 0x32, 0x32, 0x32, 0x00, 0x00, 0x00, 0x00, 0x00, 0x03,
    0x00, 0x07, 0x00, 0x00, 0x00, 0x00, 0x00, 0x00, 0x00, 0x00, 0x00, 0x00,
    0x00, 0x00, 0x00, 0x60, 0x46, 0x7f, 0x0c, 0x00, 0x0c, 0x00, 0x04, 0x00,
    0x00, 0x00, 0x00, 0x32, 0x64, 0x64, 0x64, 0x64, 0x1a, 0x0c, 0x03, 0x01,
    0x00, 0x11, 0x00, 0x07, 0x0a, 0x00, 0x00, 0x09, 0x00, 0x4f, 0x64, 0x00,
    0x00, 0x32, 0x32, 0x32, 0x00, 0x00, 0x00, 0x00, 0x00, 0x03, 0x00, 0x07,
    0x00, 0x00, 0x00, 0x00, 0x00, 0x00, 0x00, 0x00, 0x00, 0x00, 0x00, 0x00,
    0x00, 0x57, 0x50, 0x7f, 0x0c, 0x00, 0x0c, 0x00, 0x03, 0x0e, 0x03, 0x00,
    0x00, 0x32, 0x00, 0x64, 0x64, 0x64, 0x25, 0x0c, 0x03, 0x01, 0x02, 0x1a,
    0x00, 0x07, 0x0a, 0x00, 0x00, 0x09, 0x00, 0x4f, 0x64, 0x00, 0x00, 0x32,
    0x32, 0x32, 0x00, 0x00, 0x00, 0x00, 0x00, 0x03, 0x00, 0x07, 0x00, 0x00,
    0x00, 0x00, 0x00, 0x00, 0x00, 0x00, 0x00, 0x00, 0x00, 0x00, 0x00, 0x57,
    0x50, 0x7f, 0x0c, 0x00, 0x0c, 0x00, 0x03, 0x0e, 0x03, 0x00, 0x00, 0x32,
    0x00, 0x64, 0x64, 0x64, 0x25, 0x0c, 0x03, 0x01, 0x02, 0x1a, 0x00, 0x07,
    0x0a, 0x00, 0x00, 0x09, 0x00, 0x4f, 0x64, 0x00, 0x00, 0x32, 0x32, 0x32,
    0x00, 0x00, 0x00, 0x00, 0x00, 0x03, 0x00, 0x07, 0x00, 0x00, 0x00, 0x00,
    0x00, 0x00, 0x00, 0x00, 0x00, 0x00, 0x00, 0x00, 0x00, 0x57, 0x50, 0x7f,
    0x0c, 0x00, 0x0c, 0x00, 0x03, 0x0e, 0x03, 0x00, 0x00, 0x32, 0x00, 0x64,
    0x64, 0x64, 0x00, 0x00, 0x00, 0x00, 0x00, 0x00, 0x00, 0x00, 0x00, 0x00,
    0x75, 0xf7, 0x5a, 0xf0, 0x82, 0x09, 0x41, 0x10, 0x16, 0x12, 0x08, 0x64,
    0x00, 0x42, 0x65, 0x6c, 0x6c, 0x73, 0x20, 0x20, 0x20, 0x20, 0x20, 0x05,
    0x00, 0x07, 0x00, 0x30, 0x32, 0x03, 0x01, 0x00, 0x33, 0x00, 0x07, 0x00,
    0x00, 0x00, 0x00, 0x01, 0x00, 0x00, 0x32, 0x32, 0x32, 0x32, 0x32, 0x00,
    0x00, 0x00, 0x00, 0x00, 0x03, 0x00, 0x07, 0x00, 0x00, 0x00, 0x00, 0x00,
    0x00, 0x00, 0x00, 0x00, 0x00, 0x00, 0x00, 0x00, 0x55, 0x46, 0x5b, 0x07,
    0x0f, 0x05, 0x00, 0x01, 0x00, 0x00, 0x3f, 0x55, 0x41, 0x64, 0x64, 0x00,
    0x00, 0x1b, 0x32, 0x03, 0x01, 0x00, 0x58, 0x00, 0x07, 0x07, 0x00, 0x00,
    0x00, 0x01, 0x00, 0x00, 0x32, 0x5a, 0x02, 0x32, 0x32, 0x3d, 0x19, 0x00,
    0x00, 0x00, 0x03, 0x00, 0x07, 0x00, 0x00, 0x00, 0x00, 0x00, 0x00, 0x00,
    0x00, 0x00, 0x00, 0x00, 0x00, 0x00, 0x3f, 0x57, 0x60, 0x04, 0x1b, 0x08,
    0x00, 0x01, 0x00, 0x00, 0x3e, 0x55, 0x34, 0x00, 0x5e, 0x00, 0x00, 0x3c,
    0x32, 0x03, 0x01, 0x00, 0x00, 0x00, 0x07, 0x05, 0x00, 0x00, 0x00, 0x01,
    0x00, 0x00, 0x32, 0x5a, 0x02, 0x32, 0x32, 0x41, 0x09, 0x23, 0x37, 0x1a,
    0x09, 0x1b, 0x0a, 0x1c, 0x34, 0x00, 0x00, 0x00, 0x05, 0x28, 0x41, 0x2a,
    0x64, 0x12, 0x08, 0x00, 0x32, 0x41, 0x5b, 0x0c, 0x1b, 0x05, 0x02, 0x01,
    0x00, 0x08, 0x2f, 0x4c, 0x33, 0x56, 0x42, 0x10, 0x00, 0x3c, 0x32, 0x10,
    0x01, 0x00, 0x00, 0x00, 0x07, 0x05, 0x00, 0x00, 0x00, 0x01, 0x00, 0x00,
    0x32, 0x5a, 0x02, 0x32, 0x32, 0x41, 0x09, 0x23, 0x37, 0x1a, 0x09, 0x1b,
    0x0a, 0x1c, 0x34, 0x00, 0x00, 0x00, 0x05, 0x28, 0x41, 0x2a, 0x64, 0x12,
    0x08, 0x00, 0x52, 0x41, 0x5b, 0x0c, 0x1b, 0x05, 0x02, 0x01, 0x01, 0x06,
    0x42, 0x55, 0x4e, 0x55, 0x5c, 0x25, 0x00, 0x00, 0x00, 0x00, 0x00, 0x00,
    0x00, 0x00, 0x00, 0x00, 0x00, 0x08, 0xf7, 0x5a, 0xf0, 0x82, 0x09, 0x41,
    0x10, 0x16, 0x12, 0x08, 0x66, 0x00, 0x46, 0x61, 0x74, 0x20, 0x54, 0x6f,
    0x6d, 0x2d, 0x48, 0x20, 0x02, 0x00, 0x03, 0x01, 0x26, 0x64, 0x03, 0x01,
    0x00, 0x03, 0x38, 0x07, 0x03, 0x03, 0x00, 0x21, 0x00, 0x00, 0x00, 0x64,
    0x32, 0x32, 0x32, 0x32, 0x00, 0x00, 0x00, 0x00, 0x00, 0x03, 0x1b, 0x07,
    0x00, 0x00, 0x00, 0x00, 0x00, 0x00, 0x00, 0x00, 0x00, 0x00, 0x00, 0x00,
    0x00, 0x64, 0x56, 0x67, 0x0c, 0x1b, 0x0c, 0x00, 0x00, 0x00, 0x24, 0x2a,
    0x17, 0x05, 0x64, 0x4e, 0x00, 0x00, 0x1a, 0x64, 0x03, 0x01, 0x00, 0x00,
    0x1b, 0x08, 0x08, 0x03, 0x00, 0x26, 0x30, 0x20, 0x14, 0x64, 0x31, 0x07,
    0x00, 0x00, 0x00, 0x00, 0x00, 0x1d, 0x1e, 0x03, 0x5b, 0x07, 0x2c, 0x64,
    0x00, 0x00, 0x03, 0x08, 0x37, 0x42, 0x18, 0x64, 0x3a, 0x14, 0x00, 0x32,
    0x5c, 0x5b, 0x0c, 0x1b, 0x0c, 0x00, 0x00, 0x00, 0x28, 0x12, 0x3a, 0x28,
    0x64, 0x64, 0x5a, 0x00, 0x24, 0x32, 0x0b, 0x01, 0x00, 0x00, 0x00, 0x07,
    0x00, 0x00, 0x00, 0x00, 0x00, 0x00, 0x00, 0x32, 0x32, 0x32, 0x32, 0x32,
    0x00, 0x00, 0x00, 0x00, 0x00, 0x0b, 0x00, 0x07, 0x00, 0x00, 0x00, 0x00,
    0x00, 0x00, 0x00, 0x00, 0x00, 0x00, 0x00, 0x00, 0x00, 0x00, 0x32, 0x5b,
    0x0c, 0x1b, 0x0c, 0x00, 0x00, 0x00, 0x00, 0x00, 0x00, 0x00, 0x00, 0x00,
    0x00, 0x00, 0x24, 0x32, 0x0b, 0x01, 0x00, 0x00, 0x00, 0x07, 0x00, 0x00,
    0x00, 0x00, 0x00, 0x00, 0x00, 0x32, 0x32, 0x32, 0x32, 0x32, 0x00, 0x00,
    0x00, 0x00, 0x00, 0x0b, 0x00, 0x07, 0x00, 0x00, 0x00, 0x00, 0x00, 0x00,
    0x00, 0x00, 0x00, 0x00, 0x00, 0x00, 0x00, 0x00, 0x32, 0x5b, 0x0c, 0x1b,
    0x0c, 0x00, 0x00, 0x00, 0x00, 0x00, 0x00, 0x00, 0x00, 0x00, 0x00, 0x00,
    0x00, 0x00, 0x00, 0x00, 0x00, 0x00, 0x00, 0x00, 0x00, 0x00, 0x3c, 0xf7,
    0x5a, 0xf0, 0x82, 0x09, 0x41, 0x10, 0x16, 0x12, 0x08, 0x68, 0x00, 0x46,
    0x61, 0x74, 0x20, 0x54, 0x6f, 0x6d, 0x20, 0x4d, 0x20, 0x02, 0x00, 0x03,
    0x01, 0x1f, 0x32, 0x03, 0x01, 0x00, 0x03, 0x38, 0x07, 0x03, 0x03, 0x00,
    0x22, 0x00, 0x00, 0x00, 0x64, 0x32, 0x32, 0x32, 0x32, 0x00, 0x00, 0x00,
    0x00, 0x00, 0x03, 0x1b, 0x07, 0x00, 0x00, 0x00, 0x00, 0x00, 0x00, 0x00,
    0x00, 0x00, 0x00, 0x00, 0x00, 0x00, 0x64, 0x55, 0x67, 0x0c, 0x1b, 0x0c,
    0x00, 0x00, 0x00, 0x26, 0x3c, 0x18, 0x06, 0x64, 0x58, 0x00, 0x00, 0x17,
    0x4b, 0x03, 0x01, 0x00, 0x00, 0x1b, 0x08, 0x08, 0x03, 0x00, 0x27, 0x31,
    0x21, 0x15, 0x64, 0x31, 0x07, 0x00, 0x00, 0x00, 0x00, 0x00, 0x1e, 0x1e,
    0x03, 0x5b, 0x07, 0x2d, 0x64, 0x00, 0x00, 0x03, 0x09, 0x38, 0x43, 0x19,
    0x64, 0x3a, 0x14, 0x00, 0x32, 0x5f, 0x5b, 0x0c, 0x1b, 0x0c, 0x00, 0x00,
    0x00, 0x29, 0x13, 0x3b, 0x29, 0x64, 0x64, 0x5a, 0x00, 0x30, 0x32, 0x0b,
    0x01, 0x01, 0x00, 0x64, 0x07, 0x00, 0x00, 0x00, 0x64, 0x64, 0x4f, 0x64,
    0x00, 0x63, 0x23, 0x32, 0x32, 0x00, 0x00, 0x00, 0x41, 0x19, 0x05, 0x67,
    0x07, 0x20, 0x2b, 0x00, 0x00, 0x00, 0x11, 0x59, 0x28, 0x5b, 0x64, 0x62,
    0x00, 0x00, 0x56, 0x4b, 0x5b, 0x0c, 0x1b, 0x0c, 0x00, 0x04, 0x00, 0x14,
    0x47, 0x54, 0x51, 0x64, 0x56, 0x00, 0x00, 0x3b, 0x32, 0x05, 0x01, 0x03,
    0x62, 0x00, 0x07, 0x00, 0x00, 0x00, 0x00, 0x00, 0x00, 0x00, 0x32, 0x32,
    0x32, 0x32, 0x32, 0x35, 0x64, 0x58, 0x00, 0x00, 0x0b, 0x00, 0x07, 0x00,
    0x00, 0x00, 0x00, 0x00, 0x00, 0x00, 0x00, 0x00, 0x00, 0x00, 0x00, 0x00,
    0x3f, 0x3b, 0x5b, 0x0c, 0x1b, 0x0c, 0x02, 0x00, 0x00, 0x4e, 0x53, 0x64,
    0x5d, 0x64, 0x64, 0x64, 0x64, 0x00, 0x00, 0x00, 0x00, 0x00, 0x00, 0x00,
    0x00, 0x00, 0x00, 0x01, 0xf7, 0x5a, 0xf0, 0x82, 0x09, 0x41, 0x10, 0x16,
    0x12, 0x08, 0x6a, 0x00, 0x46, 0x61, 0x74, 0x20, 0x54, 0x6f, 0x6d, 0x20,
    0x4c, 0x20, 0x02, 0x00, 0x03, 0x01, 0x16, 0x64, 0x03, 0x01, 0x00, 0x03,
    0x38, 0x07, 0x03, 0x03, 0x00, 0x23, 0x00, 0x00, 0x00, 0x64, 0x32, 0x32,
    0x32, 0x32, 0x00, 0x00, 0x00, 0x00, 0x00, 0x03, 0x1b, 0x07, 0x00, 0x00,
    0x00, 0x00, 0x00, 0x00, 0x00, 0x00, 0x00, 0x00, 0x00, 0x00, 0x00, 0x64,
    0x5a, 0x67, 0x0c, 0x1b, 0x0c, 0x00, 0x00, 0x00, 0x28, 0x61, 0x19, 0x06,
    0x64, 0x56, 0x00, 0x00, 0x0e, 0x32, 0x03, 0x01, 0x00, 0x00, 0x1b, 0x08,
    0x08, 0x03, 0x00, 0x28, 0x32, 0x22, 0x16, 0x64, 0x31, 0x07, 0x00, 0x00,
    0x00, 0x00, 0x00, 0x20, 0x1e, 0x03, 0x5b, 0x07, 0x2d, 0x64, 0x00, 0x00,
    0x03, 0x09, 0x39, 0x44, 0x1a, 0x64, 0x3a, 0x14, 0x00, 0x32, 0x5f, 0x5b,
    0x0c, 0x1b, 0x0c, 0x00, 0x00, 0x00, 0x2a, 0x14, 0x45, 0x2a, 0x64, 0x64,
    0x5a, 0x00, 0x30, 0x32, 0x0b, 0x01, 0x01, 0x00, 0x64, 0x07, 0x00, 0x00,
    0x00, 0x64, 0x64, 0x4f, 0x64, 0x00, 0x63, 0x23, 0x32, 0x32, 0x00, 0x00,
    0x00, 0x41, 0x19, 0x05, 0x67, 0x07, 0x20, 0x2b, 0x00, 0x00, 0x00, 0x11,
    0x59, 0x28, 0x5b, 0x64, 0x62, 0x00, 0x00, 0x56, 0x4b, 0x5b, 0x0c, 0x1b,
    0x0c, 0x00, 0x04, 0x00, 0x14, 0x47, 0x54, 0x51, 0x64, 0x56, 0x00, 0x00,
    0x3b, 0x32, 0x05, 0x01, 0x03, 0x62, 0x00, 0x07, 0x00, 0x00, 0x00, 0x00,
    0x00, 0x00, 0x00, 0x32, 0x32, 0x32, 0x32, 0x32, 0x35, 0x64, 0x58, 0x00,
    0x00, 0x0b, 0x00, 0x07, 0x00, 0x00, 0x00, 0x00, 0x00, 0x00, 0x00, 0x00,
    0x00, 0x00, 0x00, 0x00, 0x00, 0x3f, 0x3b, 0x5b, 0x0c, 0x1b, 0x0c, 0x02,
    0x00, 0x00, 0x4e, 0x53, 0x64, 0x5d, 0x64, 0x64, 0x64, 0x64, 0x00, 0x00,
    0x00, 0x00, 0x00, 0x00, 0x00, 0x00, 0x00, 0x00, 0x37, 0xf7, 0x55, 0xf0,
    0x82, 0x09, 0x41, 0x10, 0x16, 0x12, 0x08, 0x6c, 0x00, 0x48, 0x57, 0x6f,
    0x6f, 0x64, 0x42, 0x6c, 0x6f, 0x63, 0x6b, 0x05, 0x05, 0x01, 0x01, 0x48,
    0x4b, 0x03, 0x01, 0x00, 0x0c, 0x00, 0x07, 0x03, 0x00, 0x00, 0x03, 0x04,
    0x08, 0x0a, 0x5c, 0x30, 0x2c, 0x32, 0x4e, 0x00, 0x00, 0x00, 0x00, 0x00,
    0x0b, 0x00, 0x07, 0x00, 0x00, 0x00, 0x00, 0x00, 0x00, 0x00, 0x00, 0x00,
    0x00, 0x00, 0x00, 0x00, 0x64, 0x4c, 0x7f, 0x0c, 0x00, 0x0c, 0x00, 0x02,
    0x00, 0x64, 0x64, 0x64, 0x64, 0x64, 0x64, 0x64, 0x64, 0x4a, 0x4b, 0x03,
    0x01, 0x02, 0x15, 0x00, 0x07, 0x03, 0x00, 0x00, 0x03, 0x04, 0x08, 0x0a,
    0x5c, 0x30, 0x2c, 0x32, 0x4e, 0x00, 0x00, 0x00, 0x00, 0x00, 0x0b, 0x00,
    0x07, 0x00, 0x00, 0x00, 0x00, 0x00, 0x00, 0x00, 0x00, 0x00, 0x00, 0x00,
    0x00, 0x00, 0x64, 0x4c, 0x7f, 0x0c, 0x00, 0x0c, 0x00, 0x02, 0x00, 0x64,
    0x64, 0x64, 0x64, 0x64, 0x64, 0x64, 0x64, 0x4a, 0x4b, 0x03, 0x01, 0x02,
    0x15, 0x00, 0x07, 0x03, 0x00, 0x00, 0x03, 0x04, 0x08, 0x0a, 0x5c, 0x30,
    0x2c, 0x32, 0x4e, 0x00, 0x00, 0x00, 0x00, 0x00, 0x0b, 0x00, 0x07, 0x00,
    0x00, 0x00, 0x00, 0x00, 0x00, 0x00, 0x00, 0x00, 0x00, 0x00, 0x00, 0x00,
    0x64, 0x4c, 0x7f, 0x0c, 0x00, 0x0c, 0x00, 0x02, 0x00, 0x64, 0x64, 0x64,
    0x64, 0x64, 0x64, 0x64, 0x64, 0x4a, 0x4b, 0x03, 0x01, 0x02, 0x15, 0x00,
    0x07, 0x03, 0x00, 0x00, 0x03, 0x04, 0x08, 0x0a, 0x5c, 0x30, 0x2c, 0x32,
    0x4e, 0x00, 0x00, 0x00, 0x00, 0x00, 0x0b, 0x00, 0x07, 0x00, 0x00, 0x00,
    0x00, 0x00, 0x00, 0x00, 0x00, 0x00, 0x00, 0x00, 0x00, 0x00, 0x64, 0x4c,
    0x7f, 0x0c, 0x00, 0x0c, 0x00, 0x02, 0x00, 0x64, 0x64, 0x64, 0x64, 0x64,
    0x64, 0x64, 0x64, 0x00, 0x00, 0x00, 0x00, 0x00, 0x00, 0x00, 0x00, 0x00,
    0x00, 0x29, 0xf7, 0x5a, 0xf0, 0x82, 0x09, 0x41, 0x10, 0x16, 0x12, 0x08,
    0x6e, 0x00, 0x4c, 0x57, 0x6f, 0x6f, 0x64, 0x42, 0x6c, 0x6f, 0x63, 0x6b,
    0x05, 0x05, 0x01, 0x01, 0x43, 0x32, 0x03, 0x01, 0x01, 0x0c, 0x00, 0x07,
    0x03, 0x00, 0x00, 0x03, 0x04, 0x08, 0x0a, 0x5c, 0x30, 0x2c, 0x32, 0x4e,
    0x00, 0x00, 0x00, 0x00, 0x00, 0x0b, 0x00, 0x07, 0x00, 0x00, 0x00, 0x00,
    0x00, 0x00, 0x00, 0x00, 0x00, 0x00, 0x00, 0x00, 0x00, 0x64, 0x3c, 0x7f,
    0x0c, 0x00, 0x0c, 0x00, 0x02, 0x00, 0x64, 0x64, 0x64, 0x64, 0x64, 0x64,
    0x64, 0x64, 0x4a, 0x32, 0x03, 0x01, 0x01, 0x15, 0x00, 0x07, 0x03, 0x00,
    0x00, 0x03, 0x04, 0x08, 0x0a, 0x5c, 0x30, 0x2c, 0x32, 0x4e, 0x00, 0x00,
    0x00, 0x00, 0x00, 0x0b, 0x00, 0x07, 0x00, 0x00, 0x00, 0x00, 0x00, 0x00,
    0x00, 0x00, 0x00, 0x00, 0x00, 0x00, 0x00, 0x64, 0x4c, 0x7f, 0x0c, 0x00,
    0x0c, 0x00, 0x02, 0x00, 0x64, 0x64, 0x64, 0x64, 0x64, 0x64, 0x64, 0x64,
    0x4a, 0x4b, 0x03, 0x01, 0x01, 0x15, 0x00, 0x07, 0x03, 0x00, 0x00, 0x03,
    0x04, 0x08, 0x0a, 0x5c, 0x30, 0x2c, 0x32, 0x4e, 0x00, 0x00, 0x00, 0x00,
    0x00, 0x0b, 0x00, 0x07, 0x00, 0x00, 0x00, 0x00, 0x00, 0x00, 0x00, 0x00,
    0x00, 0x00, 0x00, 0x00, 0x00, 0x64, 0x4c, 0x7f, 0x0c, 0x00, 0x0c, 0x00,
    0x02, 0x00, 0x64, 0x64, 0x64, 0x64, 0x64, 0x64, 0x64, 0x64, 0x4a, 0x4b,
    0x03, 0x01, 0x01, 0x15, 0x00, 0x07, 0x03, 0x00, 0x00, 0x03, 0x04, 0x08,
    0x0a, 0x5c, 0x30, 0x2c, 0x32, 0x4e, 0x00, 0x00, 0x00, 0x00, 0x00, 0x0b,
    0x00, 0x07, 0x00, 0x00, 0x00, 0x00, 0x00, 0x00, 0x00, 0x00, 0x00, 0x00,
    0x00, 0x00, 0x00, 0x64, 0x4c, 0x7f, 0x0c, 0x00, 0x0c, 0x00, 0x02, 0x00,
    0x64, 0x64, 0x64, 0x64, 0x64, 0x64, 0x64, 0x64, 0x00, 0x00, 0x00, 0x00,
    0x00, 0x00, 0x00, 0x00, 0x00, 0x00, 0x6c, 0xf7, 0x5a, 0xf0, 0x82, 0x09,
    0x41, 0x10, 0x16, 0x12, 0x08, 0x70, 0x00, 0x4d, 0x75, 0x54, 0x72, 0x69,
    0x61, 0x6e, 0x67, 0x6c, 0x65, 0x02, 0x00, 0x03, 0x00, 0x3f, 0x32, 0x03,
    0x01, 0x00, 0x32, 0x00, 0x07, 0x00, 0x00, 0x00, 0x00, 0x00, 0x00, 0x00,
    0x32, 0x32, 0x32, 0x32, 0x32, 0x00, 0x00, 0x00, 0x00, 0x00, 0x0b, 0x00,
    0x07, 0x00, 0x00, 0x00, 0x00, 0x00, 0x00, 0x00, 0x00, 0x00, 0x00, 0x00,
    0x00, 0x00, 0x42, 0x53, 0x62, 0x0c, 0x16, 0x0c, 0x00, 0x00, 0x01, 0x08,
    0x00, 0x15, 0x17, 0x64, 0x64, 0x64, 0x00, 0x4b, 0x32, 0x03, 0x01, 0x00,
    0x00, 0x00, 0x07, 0x00, 0x00, 0x00, 0x00, 0x00, 0x00, 0x00, 0x32, 0x32,
    0x32, 0x32, 0x32, 0x3f, 0x04, 0x00, 0x64, 0x00, 0x0b, 0x00, 0x07, 0x12,
    0x00, 0x00, 0x00, 0x16, 0x21, 0x19, 0x23, 0x5d, 0x19, 0x2d, 0x35, 0x39,
    0x4b, 0x50, 0x62, 0x09, 0x16, 0x0c, 0x00, 0x00, 0x01, 0x03, 0x08, 0x30,
    0x14, 0x64, 0x62, 0x54, 0x00, 0x48, 0x59, 0x04, 0x01, 0x00, 0x00, 0x00,
    0x07, 0x00, 0x00, 0x00, 0x00, 0x00, 0x00, 0x00, 0x32, 0x32, 0x32, 0x32,
    0x32, 0x3f, 0x04, 0x00, 0x64, 0x00, 0x0b, 0x00, 0x07, 0x12, 0x00, 0x00,
    0x00, 0x16, 0x21, 0x19, 0x23, 0x5d, 0x19, 0x2d, 0x35, 0x39, 0x57, 0x50,
    0x62, 0x09, 0x16, 0x0c, 0x00, 0x00, 0x01, 0x17, 0x12, 0x34, 0x52, 0x64,
    0x61, 0x57, 0x00, 0x48, 0x59, 0x04, 0x01, 0x00, 0x00, 0x00, 0x07, 0x00,
    0x00, 0x00, 0x00, 0x00, 0x00, 0x00, 0x32, 0x32, 0x32, 0x32, 0x32, 0x3f,
    0x04, 0x00, 0x64, 0x00, 0x0b, 0x00, 0x07, 0x12, 0x00, 0x00, 0x00, 0x16,
    0x21, 0x19, 0x23, 0x5d, 0x19, 0x2d, 0x35, 0x39, 0x57, 0x50, 0x62, 0x09,
    0x16, 0x0c, 0x00, 0x00, 0x01, 0x17, 0x12, 0x34, 0x52, 0x64, 0x61, 0x57,
    0x00, 0x00, 0x00, 0x00, 0x00, 0x00, 0x00, 0x00, 0x00, 0x00, 0x00, 0x7c,
    0xf7, 0x5a, 0xf0, 0x82, 0x09, 0x41, 0x10, 0x16, 0x12, 0x08, 0x72, 0x00,
    0x4f, 0x70, 0x54, 0x72, 0x69, 0x61, 0x6e, 0x67, 0x6c, 0x65, 0x02, 0x00,
    0x03, 0x00, 0x3f, 0x32, 0x03, 0x01, 0x00, 0x32, 0x00, 0x07, 0x00, 0x00,
    0x00, 0x00, 0x00, 0x00, 0x00, 0x32, 0x32, 0x32, 0x32, 0x32, 0x00, 0x00,
    0x00, 0x00, 0x00, 0x0b, 0x00, 0x07, 0x00, 0x00, 0x00, 0x00, 0x00, 0x00,
    0x00, 0x00, 0x00, 0x00, 0x00, 0x00, 0x00, 0x42, 0x53, 0x62, 0x0c, 0x16,
    0x0c, 0x00, 0x00, 0x01, 0x08, 0x00, 0x35, 0x41, 0x64, 0x64, 0x64, 0x00,
    0x4b, 0x32, 0x03, 0x01, 0x00, 0x00, 0x00, 0x07, 0x00, 0x00, 0x00, 0x00,
    0x00, 0x00, 0x00, 0x32, 0x32, 0x32, 0x32, 0x32, 0x3f, 0x04, 0x00, 0x64,
    0x00, 0x0b, 0x00, 0x07, 0x12, 0x00, 0x00, 0x00, 0x16, 0x21, 0x19, 0x23,
    0x5d, 0x19, 0x2d, 0x35, 0x39, 0x4b, 0x50, 0x62, 0x09, 0x16, 0x0c, 0x00,
    0x00, 0x01, 0x17, 0x12, 0x43, 0x47, 0x64, 0x61, 0x57, 0x00, 0x48, 0x59,
    0x04, 0x01, 0x00, 0x00, 0x00, 0x07, 0x00, 0x00, 0x00, 0x00, 0x00, 0x00,
    0x00, 0x32, 0x32, 0x32, 0x32, 0x32, 0x3f, 0x04, 0x00, 0x64, 0x00, 0x0b,
    0x00, 0x07, 0x12, 0x00, 0x00, 0x00, 0x16, 0x21, 0x19, 0x23, 0x5d, 0x19,
    0x2d, 0x35, 0x39, 0x57, 0x50, 0x62, 0x09, 0x16, 0x0c, 0x00, 0x00, 0x01,
    0x17, 0x12, 0x34, 0x52, 0x64, 0x61, 0x57, 0x00, 0x48, 0x59, 0x04, 0x01,
    0x00, 0x00, 0x00, 0x07, 0x00, 0x00, 0x00, 0x00, 0x00, 0x00, 0x00, 0x32,
    0x32, 0x32, 0x32, 0x32, 0x3f, 0x04, 0x00, 0x64, 0x00, 0x0b, 0x00, 0x07,
    0x12, 0x00, 0x00, 0x00, 0x16, 0x21, 0x19, 0x23, 0x5d, 0x19, 0x2d, 0x35,
    0x39, 0x57, 0x50, 0x62, 0x09, 0x16, 0x0c, 0x00, 0x00, 0x01, 0x17, 0x12,
    0x34, 0x52, 0x64, 0x61, 0x57, 0x00, 0x00, 0x00, 0x00, 0x00, 0x00, 0x00,
    0x00, 0x00, 0x00, 0x00, 0x4d, 0xf7, 0x5a, 0xf0, 0x82, 0x09, 0x41, 0x10,
    0x16, 0x12, 0x08, 0x74, 0x00, 0x53, 0x68, 0x61, 0x6b, 0x65, 0x72, 0x20,
    0x20, 0x20, 0x20, 0x05, 0x00, 0x01, 0x00, 0x2b, 0x32, 0x03, 0x01, 0x00,
    0x13, 0x00, 0x07, 0x00, 0x00, 0x00, 0x00, 0x00, 0x00, 0x00, 0x32, 0x32,
    0x32, 0x32, 0x32, 0x00, 0x00, 0x00, 0x00, 0x00, 0x03, 0x00, 0x07, 0x00,
    0x00, 0x00, 0x00, 0x00, 0x00, 0x00, 0x00, 0x00, 0x00, 0x00, 0x00, 0x00,
    0x64, 0x4e, 0x5b, 0x0c, 0x1b, 0x0c, 0x00, 0x00, 0x0d, 0x1e, 0x1f, 0x5e,
    0x3c, 0x50, 0x56, 0x00, 0x00, 0x2b, 0x32, 0x03, 0x01, 0x00, 0x13, 0x00,
    0x07, 0x00, 0x00, 0x00, 0x00, 0x00, 0x00, 0x00, 0x32, 0x32, 0x32, 0x32,
    0x32, 0x00, 0x00, 0x00, 0x00, 0x00, 0x03, 0x00, 0x07, 0x00, 0x00, 0x00,
    0x00, 0x00, 0x00, 0x00, 0x00, 0x00, 0x00, 0x00, 0x00, 0x00, 0x64, 0x4e,
    0x5b, 0x01, 0x1b, 0x0c, 0x00, 0x00, 0x0d, 0x1e, 0x1f, 0x5e, 0x3c, 0x50,
    0x56, 0x00, 0x00, 0x24, 0x32, 0x0b, 0x00, 0x00, 0x00, 0x00, 0x07, 0x00,
    0x00, 0x00, 0x00, 0x00, 0x00, 0x00, 0x32, 0x32, 0x32, 0x32, 0x32, 0x00,
    0x00, 0x00, 0x00, 0x00, 0x0b, 0x00, 0x07, 0x00, 0x00, 0x00, 0x00, 0x00,
    0x00, 0x00, 0x00, 0x00, 0x00, 0x00, 0x00, 0x00, 0x00, 0x32, 0x5b, 0x0c,
    0x1b, 0x0c, 0x00, 0x00, 0x00, 0x00, 0x00, 0x00, 0x00, 0x00, 0x00, 0x00,
    0x00, 0x24, 0x32, 0x0b, 0x00, 0x00, 0x00, 0x00, 0x07, 0x00, 0x00, 0x00,
    0x00, 0x00, 0x00, 0x00, 0x32, 0x32, 0x32, 0x32, 0x32, 0x00, 0x00, 0x00,
    0x00, 0x00, 0x0b, 0x00, 0x07, 0x00, 0x00, 0x00, 0x00, 0x00, 0x00, 0x00,
    0x00, 0x00, 0x00, 0x00, 0x00, 0x00, 0x00, 0x32, 0x5b, 0x0c, 0x1b, 0x0c,
    0x00, 0x00, 0x00, 0x00, 0x00, 0x00, 0x00, 0x00, 0x00, 0x00, 0x00, 0x00,
    0x00, 0x00, 0x00, 0x00, 0x00, 0x00, 0x00, 0x00, 0x00, 0x31, 0xf7, 0x50,
    0xf0, 0x82, 0x09, 0x41, 0x10, 0x16, 0x12, 0x08, 0x76, 0x00, 0x52, 0x69,
    0x63, 0x68, 0x20, 0x52, 0x69, 0x64, 0x65, 0x20, 0x05, 0x05, 0x07, 0x01,
    0x27, 0x00, 0x03, 0x01, 0x00, 0x08, 0x00, 0x07, 0x02, 0x00, 0x00, 0x05,
    0x0e, 0x1f, 0x64, 0x32, 0x30, 0x2c, 0x27, 0x0f, 0x40, 0x00, 0x50, 0x00,
    0x00, 0x0b, 0x00, 0x07, 0x00, 0x00, 0x00, 0x00, 0x00, 0x00, 0x00, 0x00,
    0x00, 0x00, 0x00, 0x00, 0x00, 0x64, 0x50, 0x5b, 0x09, 0x40, 0x0a, 0x00,
    0x00, 0x00, 0x01, 0x1d, 0x2b, 0x58, 0x5e, 0x64, 0x5e, 0x42, 0x27, 0x0e,
    0x03, 0x01, 0x00, 0x3e, 0x00, 0x07, 0x02, 0x00, 0x00, 0x05, 0x0e, 0x1f,
    0x64, 0x32, 0x30, 0x2c, 0x27, 0x0f, 0x40, 0x00, 0x50, 0x00, 0x00, 0x0b,
    0x00, 0x07, 0x00, 0x00, 0x00, 0x00, 0x00, 0x00, 0x00, 0x00, 0x00, 0x00,
    0x00, 0x00, 0x00, 0x2b, 0x45, 0x5b, 0x0c, 0x1b, 0x0c, 0x00, 0x00, 0x00,
    0x28, 0x32, 0x3a, 0x4d, 0x64, 0x5e, 0x4a, 0x25, 0x24, 0x5b, 0x03, 0x01,
    0x00, 0x3d, 0x00, 0x07, 0x03, 0x00, 0x00, 0x03, 0x05, 0x13, 0x64, 0x3d,
    0x33, 0x2d, 0x26, 0x1c, 0x40, 0x00, 0x50, 0x00, 0x00, 0x0b, 0x00, 0x07,
    0x00, 0x00, 0x00, 0x00, 0x00, 0x00, 0x00, 0x00, 0x00, 0x00, 0x00, 0x00,
    0x00, 0x33, 0x64, 0x6a, 0x05, 0x54, 0x08, 0x00, 0x00, 0x00, 0x28, 0x2a,
    0x33, 0x4c, 0x64, 0x60, 0x50, 0x30, 0x25, 0x35, 0x03, 0x01, 0x00, 0x0f,
    0x00, 0x07, 0x00, 0x00, 0x00, 0x00, 0x00, 0x00, 0x00, 0x32, 0x32, 0x32,
    0x32, 0x32, 0x40, 0x00, 0x50, 0x00, 0x00, 0x0b, 0x00, 0x07, 0x00, 0x00,
    0x00, 0x00, 0x00, 0x00, 0x00, 0x00, 0x00, 0x00, 0x00, 0x00, 0x00, 0x52,
    0x41, 0x38, 0x07, 0x2d, 0x03, 0x00, 0x00, 0x00, 0x15, 0x26, 0x1a, 0x64,
    0x64, 0x64, 0x64, 0x00, 0x00, 0x00, 0x00, 0x00, 0x00, 0x00, 0x00, 0x00,
    0x00, 0x00, 0x45, 0xf7, 0x5a, 0xf0, 0x82, 0x09, 0x41, 0x10, 0x16, 0x12,
    0x08, 0x78, 0x00, 0x43, 0x72, 0x61, 0x73, 0x68, 0x43, 0x79, 0x6d, 0x20,
    0x32, 0x05, 0x00, 0x03, 0x01, 0x2d, 0x3d, 0x03, 0x01, 0x00, 0x06, 0x00,
    0x07, 0x00, 0x00, 0x00, 0x00, 0x00, 0x00, 0x00, 0x32, 0x32, 0x32, 0x32,
    0x32, 0x00, 0x00, 0x00, 0x00, 0x00, 0x0b, 0x00, 0x07, 0x00, 0x00, 0x00,
    0x00, 0x00, 0x00, 0x00, 0x00, 0x00, 0x00, 0x00, 0x00, 0x00, 0x5c, 0x64,
    0x7f, 0x0c, 0x00, 0x0c, 0x00, 0x02, 0x00, 0x2b, 0x1e, 0x2d, 0x2d, 0x64,
    0x5f, 0x20, 0x00, 0x28, 0x13, 0x03, 0x01, 0x00, 0x07, 0x00, 0x07, 0x00,
    0x00, 0x00, 0x00, 0x00, 0x00, 0x00, 0x32, 0x32, 0x32, 0x32, 0x32, 0x00,
    0x00, 0x00, 0x00, 0x00, 0x0b, 0x00, 0x07, 0x00, 0x00, 0x00, 0x00, 0x00,
    0x00, 0x00, 0x00, 0x00, 0x00, 0x00, 0x00, 0x00, 0x64, 0x56, 0x7f, 0x0c,
    0x00, 0x0c, 0x00, 0x01, 0x06, 0x41, 0x34, 0x45, 0x45, 0x64, 0x1d, 0x00,
    0x00, 0x24, 0x32, 0x0b, 0x01, 0x00, 0x00, 0x00, 0x07, 0x00, 0x00, 0x00,
    0x00, 0x00, 0x00, 0x00, 0x32, 0x32, 0x32, 0x32, 0x32, 0x00, 0x00, 0x00,
    0x00, 0x00, 0x0b, 0x00, 0x07, 0x00, 0x00, 0x00, 0x00, 0x00, 0x00, 0x00,
    0x00, 0x00, 0x00, 0x00, 0x00, 0x00, 0x00, 0x32, 0x5b, 0x0c, 0x1b, 0x0c,
    0x00, 0x01, 0x00, 0x00, 0x00, 0x00, 0x00, 0x00, 0x00, 0x00, 0x00, 0x24,
    0x32, 0x0b, 0x01, 0x00, 0x00, 0x00, 0x07, 0x00, 0x00, 0x00, 0x00, 0x00,
    0x00, 0x00, 0x32, 0x32, 0x32, 0x32, 0x32, 0x00, 0x00, 0x00, 0x00, 0x00,
    0x0b, 0x00, 0x07, 0x00, 0x00, 0x00, 0x00, 0x00, 0x00, 0x00, 0x00, 0x00,
    0x00, 0x00, 0x00, 0x00, 0x00, 0x32, 0x5b, 0x0c, 0x1b, 0x0c, 0x00, 0x01,
    0x00, 0x00, 0x00, 0x00, 0x00, 0x00, 0x00, 0x00, 0x00, 0x00, 0x00, 0x00,
    0x00, 0x00, 0x00, 0x00, 0x00, 0x00, 0x00, 0x08, 0xf7, 0x5a, 0xf0, 0x82,
    0x09, 0x41, 0x10, 0x16, 0x12, 0x08, 0x7a, 0x00, 0x53, 0x70, 0x6c, 0x61,
    0x73, 0x68, 0x20, 0x43, 0x79, 0x6d, 0x05, 0x00, 0x03, 0x01, 0x29, 0x35,
    0x03, 0x01, 0x00, 0x06, 0x00, 0x07, 0x07, 0x03, 0x00, 0x08, 0x02, 0x07,
    0x64, 0x00, 0x5a, 0x1e, 0x32, 0x27, 0x40, 0x00, 0x50, 0x00, 0x00, 0x0b,
    0x00, 0x07, 0x00, 0x00, 0x00, 0x00, 0x00, 0x00, 0x00, 0x00, 0x00, 0x00,
    0x00, 0x00, 0x00, 0x5b, 0x50, 0x5b, 0x0c, 0x1b, 0x0c, 0x00, 0x02, 0x02,
    0x3c, 0x24, 0x20, 0x58, 0x3c, 0x46, 0x42, 0x34, 0x27, 0x35, 0x03, 0x01,
    0x00, 0x3d, 0x00, 0x07, 0x06, 0x03, 0x00, 0x08, 0x02, 0x07, 0x64, 0x00,
    0x5a, 0x1e, 0x32, 0x27, 0x40, 0x00, 0x50, 0x00, 0x00, 0x0b, 0x00, 0x07,
    0x00, 0x00, 0x00, 0x00, 0x00, 0x00, 0x00, 0x00, 0x00, 0x00, 0x00, 0x00,
    0x00, 0x5b, 0x50, 0x5b, 0x0c, 0x1b, 0x0c, 0x00, 0x02, 0x00, 0x22, 0x23,
    0x21, 0x4c, 0x44, 0x52, 0x50, 0x43, 0x24, 0x32, 0x0b, 0x00, 0x00, 0x00,
    0x00, 0x07, 0x00, 0x00, 0x00, 0x00, 0x00, 0x00, 0x00, 0x32, 0x32, 0x32,
    0x32, 0x32, 0x00, 0x00, 0x00, 0x00, 0x00, 0x0b, 0x00, 0x07, 0x00, 0x00,
    0x00, 0x00, 0x00, 0x00, 0x00, 0x00, 0x00, 0x00, 0x00, 0x00, 0x00, 0x00,
    0x32, 0x5b, 0x0c, 0x1b, 0x0c, 0x00, 0x00, 0x00, 0x00, 0x00, 0x00, 0x00,
    0x00, 0x00, 0x00, 0x00, 0x24, 0x32, 0x0b, 0x00, 0x00, 0x00, 0x00, 0x07,
    0x00, 0x00, 0x00, 0x00, 0x00, 0x00, 0x00, 0x32, 0x32, 0x32, 0x32, 0x32,
    0x00, 0x00, 0x00, 0x00, 0x00, 0x0b, 0x00, 0x07, 0x00, 0x00, 0x00, 0x00,
    0x00, 0x00, 0x00, 0x00, 0x00, 0x00, 0x00, 0x00, 0x00, 0x00, 0x32, 0x5b,
    0x0c, 0x1b, 0x0c, 0x00, 0x00, 0x00, 0x00, 0x00, 0x00, 0x00, 0x00, 0x00,
    0x00, 0x00, 0x00, 0x00, 0x00, 0x00, 0x00, 0x00, 0x00, 0x00, 0x00, 0x00,
    0x40, 0xf7, 0x5a, 0xf0, 0x82, 0x09, 0x41, 0x10, 0x16, 0x12, 0x08, 0x7c,
    0x00, 0x52, 0x69, 0x63, 0x68, 0x20, 0x52, 0x69, 0x64, 0x65, 0x20, 0x05,
    0x05, 0x03, 0x01, 0x25, 0x00, 0x03, 0x01, 0x00, 0x08, 0x00, 0x07, 0x02,
    0x00, 0x00, 0x05, 0x0e, 0x1f, 0x64, 0x32, 0x30, 0x2c, 0x27, 0x0f, 0x40,
    0x00, 0x50, 0x00, 0x00, 0x0b, 0x00, 0x07, 0x00, 0x00, 0x00, 0x00, 0x00,
    0x00, 0x00, 0x00, 0x00, 0x00, 0x00, 0x00, 0x00, 0x64, 0x50, 0x5b, 0x09,
    0x40, 0x0a, 0x00, 0x00, 0x00, 0x01, 0x1d, 0x2b, 0x58, 0x5e, 0x64, 0x5e,
    0x42, 0x23, 0x0e, 0x03, 0x01, 0x00, 0x3e, 0x00, 0x07, 0x02, 0x00, 0x00,
    0x05, 0x0e, 0x1f, 0x64, 0x32, 0x30, 0x2c, 0x27, 0x0f, 0x40, 0x00, 0x50,
    0x00, 0x00, 0x0b, 0x00, 0x07, 0x00, 0x00, 0x00, 0x00, 0x00, 0x00, 0x00,
    0x00, 0x00, 0x00, 0x00, 0x00, 0x00, 0x2b, 0x45, 0x5b, 0x0c, 0x1b, 0x0c,
    0x00, 0x00, 0x00, 0x28, 0x32, 0x3a, 0x4d, 0x64, 0x5e, 0x4a, 0x25, 0x24,
    0x5b, 0x03, 0x01, 0x02, 0x0c, 0x00, 0x07, 0x03, 0x00, 0x00, 0x03, 0x05,
    0x13, 0x64, 0x3d, 0x33, 0x2d, 0x26, 0x1c, 0x40, 0x00, 0x50, 0x00, 0x00,
    0x0b, 0x00, 0x07, 0x00, 0x00, 0x00, 0x00, 0x00, 0x00, 0x00, 0x00, 0x00,
    0x00, 0x00, 0x00, 0x00, 0x33, 0x64, 0x6a, 0x05, 0x54, 0x08, 0x00, 0x00,
    0x00, 0x28, 0x2a, 0x33, 0x4c, 0x64, 0x60, 0x50, 0x30, 0x25, 0x35, 0x03,
    0x01, 0x02, 0x0f, 0x00, 0x07, 0x00, 0x00, 0x00, 0x00, 0x00, 0x00, 0x00,
    0x32, 0x32, 0x32, 0x32, 0x32, 0x40, 0x00, 0x50, 0x00, 0x00, 0x0b, 0x00,
    0x07, 0x00, 0x00, 0x00, 0x00, 0x00, 0x00, 0x00, 0x00, 0x00, 0x00, 0x00,
    0x00, 0x00, 0x52, 0x41, 0x38, 0x07, 0x2d, 0x03, 0x00, 0x00, 0x00, 0x15,
    0x26, 0x1a, 0x64, 0x64, 0x64, 0x64, 0x00, 0x00, 0x00, 0x00, 0x00, 0x00,
    0x00, 0x00, 0x00, 0x00, 0x00, 0x76, 0xf7, 0x5a, 0xf0, 0x82, 0x09, 0x41,
    0x10, 0x16, 0x12, 0x08, 0x7e, 0x00, 0x43, 0x68, 0x69, 0x6e, 0x61, 0x43,
    0x79, 0x6d, 0x20, 0x20, 0x05, 0x00, 0x03, 0x01, 0x30, 0x35, 0x03, 0x01,
    0x00, 0x06, 0x00, 0x07, 0x07, 0x03, 0x00, 0x08, 0x02, 0x07, 0x64, 0x00,
    0x5a, 0x1e, 0x32, 0x27, 0x40, 0x00, 0x50, 0x00, 0x00, 0x0b, 0x00, 0x07,
    0x00, 0x00, 0x00, 0x00, 0x00, 0x00, 0x00, 0x00, 0x00, 0x00, 0x00, 0x00,
    0x00, 0x5b, 0x50, 0x5b, 0x0c, 0x1b, 0x0c, 0x00, 0x02, 0x10, 0x23, 0x1f,
    0x1c, 0x58, 0x54, 0x5a, 0x51, 0x32, 0x24, 0x35, 0x03, 0x01, 0x00, 0x3d,
    0x00, 0x07, 0x06, 0x03, 0x00, 0x08, 0x02, 0x07, 0x64, 0x00, 0x5a, 0x1e,
    0x32, 0x27, 0x40, 0x00, 0x50, 0x00, 0x00, 0x0b, 0x00, 0x07, 0x00, 0x00,
    0x00, 0x00, 0x00, 0x00, 0x00, 0x00, 0x00, 0x00, 0x00, 0x00, 0x00, 0x5b,
    0x50, 0x5b, 0x0c, 0x1b, 0x0c, 0x00, 0x02, 0x0b, 0x1f, 0x1f, 0x21, 0x4d,
    0x5c, 0x5e, 0x58, 0x43, 0x24, 0x32, 0x0b, 0x00, 0x00, 0x00, 0x00, 0x07,
    0x00, 0x00, 0x00, 0x00, 0x00, 0x00, 0x00, 0x32, 0x32, 0x32, 0x32, 0x32,
    0x00, 0x00, 0x00, 0x00, 0x00, 0x0b, 0x00, 0x07, 0x00, 0x00, 0x00, 0x00,
    0x00, 0x00, 0x00, 0x00, 0x00, 0x00, 0x00, 0x00, 0x00, 0x00, 0x32, 0x5b,
    0x0c, 0x1b, 0x0c, 0x00, 0x00, 0x00, 0x00, 0x00, 0x00, 0x00, 0x00, 0x00,
    0x00, 0x00, 0x24, 0x32, 0x0b, 0x00, 0x00, 0x00, 0x00, 0x07, 0x00, 0x00,
    0x00, 0x00, 0x00, 0x00, 0x00, 0x32, 0x32, 0x32, 0x32, 0x32, 0x00, 0x00,
    0x00, 0x00, 0x00, 0x0b, 0x00, 0x07, 0x00, 0x00, 0x00, 0x00, 0x00, 0x00,
    0x00, 0x00, 0x00, 0x00, 0x00, 0x00, 0x00, 0x00, 0x32, 0x5b, 0x0c, 0x1b,
    0x0c, 0x00, 0x00, 0x00, 0x00, 0x00, 0x00, 0x00, 0x00, 0x00, 0x00, 0x00,
    0x00, 0x00, 0x00, 0x00, 0x00, 0x00, 0x00, 0x00, 0x00, 0x00, 0x4a, 0xf7,
    0x81, 0x16, 0xf0, 0x82, 0x09, 0x41, 0x10, 0x16, 0x12, 0x06, 0x00, 0x00,
    0x7f, 0x7f, 0x7f, 0x7f, 0x7f, 0x7f, 0x7f, 0x7f, 0x7f, 0x7f, 0x02, 0x03,
    0x04, 0x08, 0x04, 0x04, 0x03, 0x03, 0x03, 0x03, 0x02, 0x02, 0x00, 0x01,
    0x02, 0x03, 0x04, 0x05, 0x06, 0x07, 0x09, 0x00, 0x00, 0x18, 0x32, 0x02,
    0x00, 0x01, 0x00, 0x50, 0x07, 0x00, 0x7f, 0x00, 0x00, 0x18, 0x32, 0x02,
    0x00, 0x01, 0x00, 0x50, 0x07, 0x00, 0x7f, 0x00, 0x00, 0x18, 0x32, 0x02,
    0x00, 0x01, 0x00, 0x50, 0x07, 0x00, 0x7f, 0x00, 0x00, 0x18, 0x32, 0x02,
    0x00, 0x01, 0x00, 0x50, 0x07, 0x00, 0x7f, 0x00, 0x00, 0x18, 0x32, 0x02,
    0x00, 0x01, 0x00, 0x50, 0x07, 0x00, 0x7f, 0x00, 0x00, 0x18, 0x32, 0x02,
    0x00, 0x01, 0x00, 0x50, 0x07, 0x00, 0x7f, 0x00, 0x00, 0x18, 0x32, 0x02,
    0x00, 0x01, 0x00, 0x50, 0x07, 0x00, 0x7f, 0x00, 0x00, 0x18, 0x32, 0x02,
    0x00, 0x01, 0x00, 0x50, 0x07, 0x00, 0x7f, 0x50, 0x7f, 0x7f, 0x7f, 0x7f,
    0x7f, 0x7f, 0x7f, 0x7f, 0x7f, 0x7f, 0x02, 0x03, 0x04, 0x08, 0x04, 0x04,
    0x03, 0x03, 0x03, 0x03, 0x02, 0x02, 0x00, 0x01, 0x02, 0x03, 0x04, 0x05,
    0x06, 0x07, 0x09, 0x00, 0x00, 0x18, 0x32, 0x02, 0x00, 0x01, 0x00, 0x50,
    0x07, 0x00, 0x7f, 0x00, 0x00, 0x18, 0x32, 0x02, 0x00, 0x01, 0x00, 0x50,
    0x07, 0x00, 0x7f, 0x00, 0x00, 0x18, 0x32, 0x02, 0x00, 0x01, 0x00, 0x50,
    0x07, 0x00, 0x7f, 0x00, 0x00, 0x18, 0x32, 0x02, 0x00, 0x01, 0x00, 0x50,
    0x07, 0x00, 0x7f, 0x00, 0x00, 0x18, 0x32, 0x02, 0x00, 0x01, 0x00, 0x50,
    0x07, 0x00, 0x7f, 0x00, 0x00, 0x18, 0x32, 0x02, 0x00, 0x01, 0x00, 0x50,
    0x07, 0x00, 0x7f, 0x00, 0x00, 0x18, 0x32, 0x02, 0x00, 0x01, 0x00, 0x50,
    0x07, 0x00, 0x7f, 0x00, 0x00, 0x18, 0x32, 0x02, 0x00, 0x01, 0x00, 0x50,
    0x07, 0x00, 0x7f, 0x50, 0x22, 0xf7, 0x55, 0xf0, 0x82, 0x09, 0x41, 0x10,
    0x16, 0x12, 0x06, 0x02, 0x00, 0x7f, 0x7f, 0x7f, 0x7f, 0x7f, 0x7f, 0x7f,
    0x7f, 0x7f, 0x7f, 0x02, 0x03, 0x04, 0x08, 0x04, 0x04, 0x03, 0x03, 0x03,
    0x03, 0x02, 0x02, 0x00, 0x01, 0x02, 0x03, 0x04, 0x05, 0x06, 0x07, 0x09,
    0x00, 0x00, 0x18, 0x32, 0x02, 0x00, 0x01, 0x00, 0x50, 0x07, 0x00, 0x7f,
    0x00, 0x00, 0x18, 0x32, 0x02, 0x00, 0x01, 0x00, 0x50, 0x07, 0x00, 0x7f,
    0x00, 0x00, 0x18, 0x32, 0x02, 0x00, 0x01, 0x00, 0x50, 0x07, 0x00, 0x7f,
    0x00, 0x00, 0x18, 0x32, 0x02, 0x00, 0x01, 0x00, 0x50, 0x07, 0x00, 0x7f,
    0x00, 0x00, 0x18, 0x32, 0x02, 0x00, 0x01, 0x00, 0x50, 0x07, 0x00, 0x7f,
    0x00, 0x00, 0x18, 0x32, 0x02, 0x00, 0x01, 0x00, 0x50, 0x07, 0x00, 0x7f,
    0x00, 0x00, 0x18, 0x32, 0x02, 0x00, 0x01, 0x00, 0x50, 0x07, 0x00, 0x7f,
    0x00, 0x00, 0x18, 0x32, 0x02, 0x00, 0x01, 0x00, 0x50, 0x07, 0x00, 0x7f,
    0x50, 0x7f, 0x7f, 0x7f, 0x7f, 0x7f, 0x7f, 0x7f, 0x7f, 0x7f, 0x7f, 0x02,
    0x03, 0x04, 0x08, 0x04, 0x04, 0x03, 0x03, 0x03, 0x03, 0x02, 0x02, 0x00,
    0x01, 0x02, 0x03, 0x04, 0x05, 0x06, 0x07, 0x09, 0x00, 0x00, 0x18, 0x32,
    0x02, 0x00, 0x01, 0x00, 0x50, 0x07, 0x00, 0x7f, 0x00, 0x00, 0x18, 0x32,
    0x02, 0x00, 0x01, 0x00, 0x50, 0x07, 0x00, 0x7f, 0x00, 0x00, 0x18, 0x32,
    0x02, 0x00, 0x01, 0x00, 0x50, 0x07, 0x00, 0x7f, 0x00, 0x00, 0x18, 0x32,
    0x02, 0x00, 0x01, 0x00, 0x50, 0x07, 0x00, 0x7f, 0x00, 0x00, 0x18, 0x32,
    0x02, 0x00, 0x01, 0x00, 0x50, 0x07, 0x00, 0x7f, 0x00, 0x00, 0x18, 0x32,
    0x02, 0x00, 0x01, 0x00, 0x50, 0x07, 0x00, 0x7f, 0x00, 0x00, 0x18, 0x32,
    0x02, 0x00, 0x01, 0x00, 0x50, 0x07, 0x00, 0x7f, 0x00, 0x00, 0x18, 0x32,
    0x02, 0x00, 0x01, 0x00, 0x50, 0x07, 0x00, 0x7f, 0x50, 0x20, 0xf7, 0x55,
    0xf0, 0x82, 0x09, 0x41, 0x10, 0x16, 0x12, 0x06, 0x04, 0x00, 0x7f, 0x7f,
    0x7f, 0x7f, 0x7f, 0x7f, 0x7f, 0x7f, 0x7f, 0x7f, 0x02, 0x03, 0x04, 0x08,
    0x04, 0x04, 0x03, 0x03, 0x03, 0x03, 0x02, 0x02, 0x00, 0x01, 0x02, 0x03,
    0x04, 0x05, 0x06, 0x07, 0x09, 0x00, 0x00, 0x18, 0x32, 0x02, 0x00, 0x01,
    0x00, 0x50, 0x07, 0x00, 0x7f, 0x00, 0x00, 0x18, 0x32, 0x02, 0x00, 0x01,
    0x00, 0x50, 0x07, 0x00, 0x7f, 0x00, 0x00, 0x18, 0x32, 0x02, 0x00, 0x01,
    0x00, 0x50, 0x07, 0x00, 0x7f, 0x00, 0x00, 0x18, 0x32, 0x02, 0x00, 0x01,
    0x00, 0x50, 0x07, 0x00, 0x7f, 0x00, 0x00, 0x18, 0x32, 0x02, 0x00, 0x01,
    0x00, 0x50, 0x07, 0x00, 0x7f, 0x00, 0x00, 0x18, 0x32, 0x02, 0x00, 0x01,
    0x00, 0x50, 0x07, 0x00, 0x7f, 0x00, 0x00, 0x18, 0x32, 0x02, 0x00, 0x01,
    0x00, 0x50, 0x07, 0x00, 0x7f, 0x00, 0x00, 0x18, 0x32, 0x02, 0x00, 0x01,
    0x00, 0x50, 0x07, 0x00, 0x7f, 0x50, 0x7f, 0x7f, 0x7f, 0x7f, 0x7f, 0x7f,
    0x7f, 0x7f, 0x7f, 0x7f, 0x02, 0x03, 0x04, 0x08, 0x04, 0x04, 0x03, 0x03,
    0x03, 0x03, 0x02, 0x02, 0x00, 0x01, 0x02, 0x03, 0x04, 0x05, 0x06, 0x07,
    0x09, 0x00, 0x00, 0x18, 0x32, 0x02, 0x00, 0x01, 0x00, 0x50, 0x07, 0x00,
    0x7f, 0x00, 0x00, 0x18, 0x32, 0x02, 0x00, 0x01, 0x00, 0x50, 0x07, 0x00,
    0x7f, 0x00, 0x00, 0x18, 0x32, 0x02, 0x00, 0x01, 0x00, 0x50, 0x07, 0x00,
    0x7f, 0x00, 0x00, 0x18, 0x32, 0x02, 0x00, 0x01, 0x00, 0x50, 0x07, 0x00,
    0x7f, 0x00, 0x00, 0x18, 0x32, 0x02, 0x00, 0x01, 0x00, 0x50, 0x07, 0x00,
    0x7f, 0x00, 0x00, 0x18, 0x32, 0x02, 0x00, 0x01, 0x00, 0x50, 0x07, 0x00,
    0x7f, 0x00, 0x00, 0x18, 0x32, 0x02, 0x00, 0x01, 0x00, 0x50, 0x07, 0x00,
    0x7f, 0x00, 0x00, 0x18, 0x32, 0x02, 0x00, 0x01, 0x00, 0x50, 0x07, 0x00,
    0x7f, 0x50, 0x1e, 0xf7, 0x55, 0xf0, 0x82, 0x09, 0x41, 0x10, 0x16, 0x12,
    0x06, 0x06, 0x00, 0x7f, 0x7f, 0x7f, 0x7f, 0x7f, 0x7f, 0x7f, 0x7f, 0x7f,
    0x7f, 0x02, 0x03, 0x04, 0x08, 0x04, 0x04, 0x03, 0x03, 0x03, 0x03, 0x02,
    0x02, 0x00, 0x01, 0x02, 0x03, 0x04, 0x05, 0x06, 0x07, 0x09, 0x00, 0x00,
    0x18, 0x32, 0x02, 0x00, 0x01, 0x00, 0x50, 0x07, 0x00, 0x7f, 0x00, 0x00,
    0x18, 0x32, 0x02, 0x00, 0x01, 0x00, 0x50, 0x07, 0x00, 0x7f, 0x00, 0x00,
    0x18, 0x32, 0x02, 0x00, 0x01, 0x00, 0x50, 0x07, 0x00, 0x7f, 0x00, 0x00,
    0x18, 0x32, 0x02, 0x00, 0x01, 0x00, 0x50, 0x07, 0x00, 0x7f, 0x00, 0x00,
    0x18, 0x32, 0x02, 0x00, 0x01, 0x00, 0x50, 0x07, 0x00, 0x7f, 0x00, 0x00,
    0x18, 0x32, 0x02, 0x00, 0x01, 0x00, 0x50, 0x07, 0x00, 0x7f, 0x00, 0x00,
    0x18, 0x32, 0x02, 0x00, 0x01, 0x00, 0x50, 0x07, 0x00, 0x7f, 0x00, 0x00,
    0x18, 0x32, 0x02, 0x00, 0x01, 0x00, 0x50, 0x07, 0x00, 0x7f, 0x50, 0x7f,
    0x7f, 0x7f, 0x7f, 0x7f, 0x7f, 0x7f, 0x7f, 0x7f, 0x7f, 0x02, 0x03, 0x04,
    0x08, 0x04, 0x04, 0x03, 0x03, 0x03, 0x03, 0x02, 0x02, 0x00, 0x01, 0x02,
    0x03, 0x04, 0x05, 0x06, 0x07, 0x09, 0x00, 0x00, 0x18, 0x32, 0x02, 0x00,
    0x01, 0x00, 0x50, 0x07, 0x00, 0x7f, 0x00, 0x00, 0x18, 0x32, 0x02, 0x00,
    0x01, 0x00, 0x50, 0x07, 0x00, 0x7f, 0x00, 0x00, 0x18, 0x32, 0x02, 0x00,
    0x01, 0x00, 0x50, 0x07, 0x00, 0x7f, 0x00, 0x00, 0x18, 0x32, 0x02, 0x00,
    0x01, 0x00, 0x50, 0x07, 0x00, 0x7f, 0x00, 0x00, 0x18, 0x32, 0x02, 0x00,
    0x01, 0x00, 0x50, 0x07, 0x00, 0x7f, 0x00, 0x00, 0x18, 0x32, 0x02, 0x00,
    0x01, 0x00, 0x50, 0x07, 0x00, 0x7f, 0x00, 0x00, 0x18, 0x32, 0x02, 0x00,
    0x01, 0x00, 0x50, 0x07, 0x00, 0x7f, 0x00, 0x00, 0x18, 0x32, 0x02, 0x00,
    0x01, 0x00, 0x50, 0x07, 0x00, 0x7f, 0x50, 0x1c, 0xf7, 0x55, 0xf0, 0x82,
    0x09, 0x41, 0x10, 0x16, 0x12, 0x06, 0x08, 0x00, 0x7f, 0x7f, 0x7f, 0x7f,
    0x7f, 0x7f, 0x7f, 0x7f, 0x7f, 0x7f, 0x02, 0x03, 0x04, 0x08, 0x04, 0x04,
    0x03, 0x03, 0x03, 0x03, 0x02, 0x02, 0x00, 0x01, 0x02, 0x03, 0x04, 0x05,
    0x06, 0x07, 0x09, 0x00, 0x00, 0x18, 0x32, 0x02, 0x00, 0x01, 0x00, 0x50,
    0x07, 0x00, 0x7f, 0x00, 0x00, 0x18, 0x32, 0x02, 0x00, 0x01, 0x00, 0x50,
    0x07, 0x00, 0x7f, 0x00, 0x00, 0x18, 0x32, 0x02, 0x00, 0x01, 0x00, 0x50,
    0x07, 0x00, 0x7f, 0x00, 0x00, 0x18, 0x32, 0x02, 0x00, 0x01, 0x00, 0x50,
    0x07, 0x00, 0x7f, 0x00, 0x00, 0x18, 0x32, 0x02, 0x00, 0x01, 0x00, 0x50,
    0x07, 0x00, 0x7f, 0x00, 0x00, 0x18, 0x32, 0x02, 0x00, 0x01, 0x00, 0x50,
    0x07, 0x00, 0x7f, 0x00, 0x00, 0x18, 0x32, 0x02, 0x00, 0x01, 0x00, 0x50,
    0x07, 0x00, 0x7f, 0x00, 0x00, 0x18, 0x32, 0x02, 0x00, 0x01, 0x00, 0x50,
    0x07, 0x00, 0x7f, 0x50, 0x7f, 0x7f, 0x7f, 0x7f, 0x7f, 0x7f, 0x7f, 0x7f,
    0x7f, 0x7f, 0x02, 0x03, 0x04, 0x08, 0x04, 0x04, 0x03, 0x03, 0x03, 0x03,
    0x02, 0x02, 0x00, 0x01, 0x02, 0x03, 0x04, 0x05, 0x06, 0x07, 0x09, 0x00,
    0x00, 0x18, 0x32, 0x02, 0x00, 0x01, 0x00, 0x50, 0x07, 0x00, 0x7f, 0x00,
    0x00, 0x18, 0x32, 0x02, 0x00, 0x01, 0x00, 0x50, 0x07, 0x00, 0x7f, 0x00,
    0x00, 0x18, 0x32, 0x02, 0x00, 0x01, 0x00, 0x50, 0x07, 0x00, 0x7f, 0x00,
    0x00, 0x18, 0x32, 0x02, 0x00, 0x01, 0x00, 0x50, 0x07, 0x00, 0x7f, 0x00,
    0x00, 0x18, 0x32, 0x02, 0x00, 0x01, 0x00, 0x50, 0x07, 0x00, 0x7f, 0x00,
    0x00, 0x18, 0x32, 0x02, 0x00, 0x01, 0x00, 0x50, 0x07, 0x00, 0x7f, 0x00,
    0x00, 0x18, 0x32, 0x02, 0x00, 0x01, 0x00, 0x50, 0x07, 0x00, 0x7f, 0x00,
    0x00, 0x18, 0x32, 0x02, 0x00, 0x01, 0x00, 0x50, 0x07, 0x00, 0x7f, 0x50,
    0x1a, 0xf7, 0x55, 0xf0, 0x82, 0x09, 0x41, 0x10, 0x16, 0x12, 0x06, 0x0a,
    0x00, 0x7f, 0x7f, 0x7f, 0x7f, 0x7f, 0x7f, 0x7f, 0x7f, 0x7f, 0x7f, 0x02,
    0x03, 0x04, 0x08, 0x04, 0x04, 0x03, 0x03, 0x03, 0x03, 0x02, 0x02, 0x00,
    0x01, 0x02, 0x03, 0x04, 0x05, 0x06, 0x07, 0x09, 0x00, 0x00, 0x18, 0x32,
    0x02, 0x00, 0x01, 0x00, 0x50, 0x07, 0x00, 0x7f, 0x00, 0x00, 0x18, 0x32,
    0x02, 0x00, 0x01, 0x00, 0x50, 0x07, 0x00, 0x7f, 0x00, 0x00, 0x18, 0x32,
    0x02, 0x00, 0x01, 0x00, 0x50, 0x07, 0x00, 0x7f, 0x00, 0x00, 0x18, 0x32,
    0x02, 0x00, 0x01, 0x00, 0x50, 0x07, 0x00, 0x7f, 0x00, 0x00, 0x18, 0x32,
    0x02, 0x00, 0x01, 0x00, 0x50, 0x07, 0x00, 0x7f, 0x00, 0x00, 0x18, 0x32,
    0x02, 0x00, 0x01, 0x00, 0x50, 0x07, 0x00, 0x7f, 0x00, 0x00, 0x18, 0x32,
    0x02, 0x00, 0x01, 0x00, 0x50, 0x07, 0x00, 0x7f, 0x00, 0x00, 0x18, 0x32,
    0x02, 0x00, 0x01, 0x00, 0x50, 0x07, 0x00, 0x7f, 0x50, 0x7f, 0x7f, 0x7f,
    0x7f, 0x7f, 0x7f, 0x7f, 0x7f, 0x7f, 0x7f, 0x02, 0x03, 0x04, 0x08, 0x04,
    0x04, 0x03, 0x03, 0x03, 0x03, 0x02, 0x02, 0x00, 0x01, 0x02, 0x03, 0x04,
    0x05, 0x06, 0x07, 0x09, 0x00, 0x00, 0x18, 0x32, 0x02, 0x00, 0x01, 0x00,
    0x50, 0x07, 0x00, 0x7f, 0x00, 0x00, 0x18, 0x32, 0x02, 0x00, 0x01, 0x00,
    0x50, 0x07, 0x00, 0x7f, 0x00, 0x00, 0x18, 0x32, 0x02, 0x00, 0x01, 0x00,
    0x50, 0x07, 0x00, 0x7f, 0x00, 0x00, 0x18, 0x32, 0x02, 0x00, 0x01, 0x00,
    0x50, 0x07, 0x00, 0x7f, 0x00, 0x00, 0x18, 0x32, 0x02, 0x00, 0x01, 0x00,
    0x50, 0x07, 0x00, 0x7f, 0x00, 0x00, 0x18, 0x32, 0x02, 0x00, 0x01, 0x00,
    0x50, 0x07, 0x00, 0x7f, 0x00, 0x00, 0x18, 0x32, 0x02, 0x00, 0x01, 0x00,
    0x50, 0x07, 0x00, 0x7f, 0x00, 0x00, 0x18, 0x32, 0x02, 0x00, 0x01, 0x00,
    0x50, 0x07, 0x00, 0x7f, 0x50, 0x18, 0xf7, 0x55, 0xf0, 0x82, 0x09, 0x41,
    0x10, 0x16, 0x12, 0x06, 0x0c, 0x00, 0x7f, 0x7f, 0x7f, 0x7f, 0x7f, 0x7f,
    0x7f, 0x7f, 0x7f, 0x7f, 0x02, 0x03, 0x04, 0x08, 0x04, 0x04, 0x03, 0x03,
    0x03, 0x03, 0x02, 0x02, 0x00, 0x01, 0x02, 0x03, 0x04, 0x05, 0x06, 0x07,
    0x09, 0x00, 0x00, 0x18, 0x32, 0x02, 0x00, 0x01, 0x00, 0x50, 0x07, 0x00,
    0x7f, 0x00, 0x00, 0x18, 0x32, 0x02, 0x00, 0x01, 0x00, 0x50, 0x07, 0x00,
    0x7f, 0x00, 0x00, 0x18, 0x32, 0x02, 0x00, 0x01, 0x00, 0x50, 0x07, 0x00,
    0x7f, 0x00, 0x00, 0x18, 0x32, 0x02, 0x00, 0x01, 0x00, 0x50, 0x07, 0x00,
    0x7f, 0x00, 0x00, 0x18, 0x32, 0x02, 0x00, 0x01, 0x00, 0x50, 0x07, 0x00,
    0x7f, 0x00, 0x00, 0x18, 0x32, 0x02, 0x00, 0x01, 0x00, 0x50, 0x07, 0x00,
    0x7f, 0x00, 0x00, 0x18, 0x32, 0x02, 0x00, 0x01, 0x00, 0x50, 0x07, 0x00,
    0x7f, 0x00, 0x00, 0x18, 0x32, 0x02, 0x00, 0x01, 0x00, 0x50, 0x07, 0x00,
    0x7f, 0x50, 0x7f, 0x7f, 0x7f, 0x7f, 0x7f, 0x7f, 0x7f, 0x7f, 0x7f, 0x7f,
    0x02, 0x03, 0x04, 0x08, 0x04, 0x04, 0x03, 0x03, 0x03, 0x03, 0x02, 0x02,
    0x00, 0x01, 0x02, 0x03, 0x04, 0x05, 0x06, 0x07, 0x09, 0x00, 0x00, 0x18,
    0x32, 0x02, 0x00, 0x01, 0x00, 0x50, 0x07, 0x00, 0x7f, 0x00, 0x00, 0x18,
    0x32, 0x02, 0x00, 0x01, 0x00, 0x50, 0x07, 0x00, 0x7f, 0x00, 0x00, 0x18,
    0x32, 0x02, 0x00, 0x01, 0x00, 0x50, 0x07, 0x00, 0x7f, 0x00, 0x00, 0x18,
    0x32, 0x02, 0x00, 0x01, 0x00, 0x50, 0x07, 0x00, 0x7f, 0x00, 0x00, 0x18,
    0x32, 0x02, 0x00, 0x01, 0x00, 0x50, 0x07, 0x00, 0x7f, 0x00, 0x00, 0x18,
    0x32, 0x02, 0x00, 0x01, 0x00, 0x50, 0x07, 0x00, 0x7f, 0x00, 0x00, 0x18,
    0x32, 0x02, 0x00, 0x01, 0x00, 0x50, 0x07, 0x00, 0x7f, 0x00, 0x00, 0x18,
    0x32, 0x02, 0x00, 0x01, 0x00, 0x50, 0x07, 0x00, 0x7f, 0x50, 0x16, 0xf7,
    0x55, 0xf0, 0x82, 0x09, 0x41, 0x10, 0x16, 0x12, 0x06, 0x0e, 0x00, 0x7f,
    0x7f, 0x7f, 0x7f, 0x7f, 0x7f, 0x7f, 0x7f, 0x7f, 0x7f, 0x02, 0x03, 0x04,
    0x08, 0x04, 0x04, 0x03, 0x03, 0x03, 0x03, 0x02, 0x02, 0x00, 0x01, 0x02,
    0x03, 0x04, 0x05, 0x06, 0x07, 0x09, 0x00, 0x00, 0x18, 0x32, 0x02, 0x00,
    0x01, 0x00, 0x50, 0x07, 0x00, 0x7f, 0x00, 0x00, 0x18, 0x32, 0x02, 0x00,
    0x01, 0x00, 0x50, 0x07, 0x00, 0x7f, 0x00, 0x00, 0x18, 0x32, 0x02, 0x00,
    0x01, 0x00, 0x50, 0x07, 0x00, 0x7f, 0x00, 0x00, 0x18, 0x32, 0x02, 0x00,
    0x01, 0x00, 0x50, 0x07, 0x00, 0x7f, 0x00, 0x00, 0x18, 0x32, 0x02, 0x00,
    0x01, 0x00, 0x50, 0x07, 0x00, 0x7f, 0x00, 0x00, 0x18, 0x32, 0x02, 0x00,
    0x01, 0x00, 0x50, 0x07, 0x00, 0x7f, 0x00, 0x00, 0x18, 0x32, 0x02, 0x00,
    0x01, 0x00, 0x50, 0x07, 0x00, 0x7f, 0x00, 0x00, 0x18, 0x32, 0x02, 0x00,
    0x01, 0x00, 0x50, 0x07, 0x00, 0x7f, 0x50, 0x7f, 0x7f, 0x7f, 0x7f, 0x7f,
    0x7f, 0x7f, 0x7f, 0x7f, 0x7f, 0x02, 0x03, 0x04, 0x08, 0x04, 0x04, 0x03,
    0x03, 0x03, 0x03, 0x02, 0x02, 0x00, 0x01, 0x02, 0x03, 0x04, 0x05, 0x06,
    0x07, 0x09, 0x00, 0x00, 0x18, 0x32, 0x02, 0x00, 0x01, 0x00, 0x50, 0x07,
    0x00, 0x7f, 0x00, 0x00, 0x18, 0x32, 0x02, 0x00, 0x01, 0x00, 0x50, 0x07,
    0x00, 0x7f, 0x00, 0x00, 0x18, 0x32, 0x02, 0x00, 0x01, 0x00, 0x50, 0x07,
    0x00, 0x7f, 0x00, 0x00, 0x18, 0x32, 0x02, 0x00, 0x01, 0x00, 0x50, 0x07,
    0x00, 0x7f, 0x00, 0x00, 0x18, 0x32, 0x02, 0x00, 0x01, 0x00, 0x50, 0x07,
    0x00, 0x7f, 0x00, 0x00, 0x18, 0x32, 0x02, 0x00, 0x01, 0x00, 0x50, 0x07,
    0x00, 0x7f, 0x00, 0x00, 0x18, 0x32, 0x02, 0x00, 0x01, 0x00, 0x50, 0x07,
    0x00, 0x7f, 0x00, 0x00, 0x18, 0x32, 0x02, 0x00, 0x01, 0x00, 0x50, 0x07,
    0x00, 0x7f, 0x50, 0x14, 0xf7, 0x55, 0xf0, 0x82, 0x09, 0x41, 0x10, 0x16,
    0x12, 0x06, 0x10, 0x00, 0x7f, 0x7f, 0x7f, 0x7f, 0x7f, 0x7f, 0x7f, 0x7f,
    0x7f, 0x7f, 0x02, 0x03, 0x04, 0x08, 0x04, 0x04, 0x03, 0x03, 0x03, 0x03,
    0x02, 0x02, 0x00, 0x01, 0x02, 0x03, 0x04, 0x05, 0x06, 0x07, 0x09, 0x00,
    0x00, 0x18, 0x32, 0x02, 0x00, 0x01, 0x00, 0x50, 0x07, 0x00, 0x7f, 0x00,
    0x00, 0x18, 0x32, 0x02, 0x00, 0x01, 0x00, 0x50, 0x07, 0x00, 0x7f, 0x00,
    0x00, 0x18, 0x32, 0x02, 0x00, 0x01, 0x00, 0x50, 0x07, 0x00, 0x7f, 0x00,
    0x00, 0x18, 0x32, 0x02, 0x00, 0x01, 0x00, 0x50, 0x07, 0x00, 0x7f, 0x00,
    0x00, 0x18, 0x32, 0x02, 0x00, 0x01, 0x00, 0x50, 0x07, 0x00, 0x7f, 0x00,
    0x00, 0x18, 0x32, 0x02, 0x00, 0x01, 0x00, 0x50, 0x07, 0x00, 0x7f, 0x00,
    0x00, 0x18, 0x32, 0x02, 0x00, 0x01, 0x00, 0x50, 0x07, 0x00, 0x7f, 0x00,
    0x00, 0x18, 0x32, 0x02, 0x00, 0x01, 0x00, 0x50, 0x07, 0x00, 0x7f, 0x50,
    0x7f, 0x7f, 0x7f, 0x7f, 0x7f, 0x7f, 0x7f, 0x7f, 0x7f, 0x7f, 0x02, 0x03,
    0x04, 0x08, 0x04, 0x04, 0x03, 0x03, 0x03, 0x03, 0x02, 0x02, 0x00, 0x01,
    0x02, 0x03, 0x04, 0x05, 0x06, 0x07, 0x09, 0x00, 0x00, 0x18, 0x32, 0x02,
    0x00, 0x01, 0x00, 0x50, 0x07, 0x00, 0x7f, 0x00, 0x00, 0x18, 0x32, 0x02,
    0x00, 0x01, 0x00, 0x50, 0x07, 0x00, 0x7f, 0x00, 0x00, 0x18, 0x32, 0x02,
    0x00, 0x01, 0x00, 0x50, 0x07, 0x00, 0x7f, 0x00, 0x00, 0x18, 0x32, 0x02,
    0x00, 0x01, 0x00, 0x50, 0x07, 0x00, 0x7f, 0x00, 0x00, 0x18, 0x32, 0x02,
    0x00, 0x01, 0x00, 0x50, 0x07, 0x00, 0x7f, 0x00, 0x00, 0x18, 0x32, 0x02,
    0x00, 0x01, 0x00, 0x50, 0x07, 0x00, 0x7f, 0x00, 0x00, 0x18, 0x32, 0x02,
    0x00, 0x01, 0x00, 0x50, 0x07, 0x00, 0x7f, 0x00, 0x00, 0x18, 0x32, 0x02,
    0x00, 0x01, 0x00, 0x50, 0x07, 0x00, 0x7f, 0x50, 0x12, 0xf7, 0x55, 0xf0,
    0x82, 0x09, 0x41, 0x10, 0x16, 0x12, 0x06, 0x12, 0x00, 0x7f, 0x7f, 0x7f,
    0x7f, 0x7f, 0x7f, 0x7f, 0x7f, 0x7f, 0x7f, 0x02, 0x03, 0x04, 0x08, 0x04,
    0x04, 0x03, 0x03, 0x03, 0x03, 0x02, 0x02, 0x00, 0x01, 0x02, 0x03, 0x04,
    0x05, 0x06, 0x07, 0x09, 0x00, 0x00, 0x18, 0x32, 0x02, 0x00, 0x01, 0x00,
    0x50, 0x07, 0x00, 0x7f, 0x00, 0x00, 0x18, 0x32, 0x02, 0x00, 0x01, 0x00,
    0x50, 0x07, 0x00, 0x7f, 0x00, 0x00, 0x18, 0x32, 0x02, 0x00, 0x01, 0x00,
    0x50, 0x07, 0x00, 0x7f, 0x00, 0x00, 0x18, 0x32, 0x02, 0x00, 0x01, 0x00,
    0x50, 0x07, 0x00, 0x7f, 0x00, 0x00, 0x18, 0x32, 0x02, 0x00, 0x01, 0x00,
    0x50, 0x07, 0x00, 0x7f, 0x00, 0x00, 0x18, 0x32, 0x02, 0x00, 0x01, 0x00,
    0x50, 0x07, 0x00, 0x7f, 0x00, 0x00, 0x18, 0x32, 0x02, 0x00, 0x01, 0x00,
    0x50, 0x07, 0x00, 0x7f, 0x00, 0x00, 0x18, 0x32, 0x02, 0x00, 0x01, 0x00,
    0x50, 0x07, 0x00, 0x7f, 0x50, 0x7f, 0x7f, 0x7f, 0x7f, 0x7f, 0x7f, 0x7f,
    0x7f, 0x7f, 0x7f, 0x02, 0x03, 0x04, 0x08, 0x04, 0x04, 0x03, 0x03, 0x03,
    0x03, 0x02, 0x02, 0x00, 0x01, 0x02, 0x03, 0x04, 0x05, 0x06, 0x07, 0x09,
    0x00, 0x00, 0x18, 0x32, 0x02, 0x00, 0x01, 0x00, 0x50, 0x07, 0x00, 0x7f,
    0x00, 0x00, 0x18, 0x32, 0x02, 0x00, 0x01, 0x00, 0x50, 0x07, 0x00, 0x7f,
    0x00, 0x00, 0x18, 0x32, 0x02, 0x00, 0x01, 0x00, 0x50, 0x07, 0x00, 0x7f,
    0x00, 0x00, 0x18, 0x32, 0x02, 0x00, 0x01, 0x00, 0x50, 0x07, 0x00, 0x7f,
    0x00, 0x00, 0x18, 0x32, 0x02, 0x00, 0x01, 0x00, 0x50, 0x07, 0x00, 0x7f,
    0x00, 0x00, 0x18, 0x32, 0x02, 0x00, 0x01, 0x00, 0x50, 0x07, 0x00, 0x7f,
    0x00, 0x00, 0x18, 0x32, 0x02, 0x00, 0x01, 0x00, 0x50, 0x07, 0x00, 0x7f,
    0x00, 0x00, 0x18, 0x32, 0x02, 0x00, 0x01, 0x00, 0x50, 0x07, 0x00, 0x7f,
    0x50, 0x10, 0xf7, 0x55, 0xf0, 0x82, 0x09, 0x41, 0x10, 0x16, 0x12, 0x06,
    0x14, 0x00, 0x7f, 0x7f, 0x7f, 0x7f, 0x7f, 0x7f, 0x7f, 0x7f, 0x7f, 0x7f,
    0x02, 0x03, 0x04, 0x08, 0x04, 0x04, 0x03, 0x03, 0x03, 0x03, 0x02, 0x02,
    0x00, 0x01, 0x02, 0x03, 0x04, 0x05, 0x06, 0x07, 0x09, 0x00, 0x00, 0x18,
    0x32, 0x02, 0x00, 0x01, 0x00, 0x50, 0x07, 0x00, 0x7f, 0x00, 0x00, 0x18,
    0x32, 0x02, 0x00, 0x01, 0x00, 0x50, 0x07, 0x00, 0x7f, 0x00, 0x00, 0x18,
    0x32, 0x02, 0x00, 0x01, 0x00, 0x50, 0x07, 0x00, 0x7f, 0x00, 0x00, 0x18,
    0x32, 0x02, 0x00, 0x01, 0x00, 0x50, 0x07, 0x00, 0x7f, 0x00, 0x00, 0x18,
    0x32, 0x02, 0x00, 0x01, 0x00, 0x50, 0x07, 0x00, 0x7f, 0x00, 0x00, 0x18,
    0x32, 0x02, 0x00, 0x01, 0x00, 0x50, 0x07, 0x00, 0x7f, 0x00, 0x00, 0x18,
    0x32, 0x02, 0x00, 0x01, 0x00, 0x50, 0x07, 0x00, 0x7f, 0x00, 0x00, 0x18,
    0x32, 0x02, 0x00, 0x01, 0x00, 0x50, 0x07, 0x00, 0x7f, 0x50, 0x7f, 0x7f,
    0x7f, 0x7f, 0x7f, 0x7f, 0x7f, 0x7f, 0x7f, 0x7f, 0x02, 0x03, 0x04, 0x08,
    0x04, 0x04, 0x03, 0x03, 0x03, 0x03, 0x02, 0x02, 0x00, 0x01, 0x02, 0x03,
    0x04, 0x05, 0x06, 0x07, 0x09, 0x00, 0x00, 0x18, 0x32, 0x02, 0x00, 0x01,
    0x00, 0x50, 0x07, 0x00, 0x7f, 0x00, 0x00, 0x18, 0x32, 0x02, 0x00, 0x01,
    0x00, 0x50, 0x07, 0x00, 0x7f, 0x00, 0x00, 0x18, 0x32, 0x02, 0x00, 0x01,
    0x00, 0x50, 0x07, 0x00, 0x7f, 0x00, 0x00, 0x18, 0x32, 0x02, 0x00, 0x01,
    0x00, 0x50, 0x07, 0x00, 0x7f, 0x00, 0x00, 0x18, 0x32, 0x02, 0x00, 0x01,
    0x00, 0x50, 0x07, 0x00, 0x7f, 0x00, 0x00, 0x18, 0x32, 0x02, 0x00, 0x01,
    0x00, 0x50, 0x07, 0x00, 0x7f, 0x00, 0x00, 0x18, 0x32, 0x02, 0x00, 0x01,
    0x00, 0x50, 0x07, 0x00, 0x7f, 0x00, 0x00, 0x18, 0x32, 0x02, 0x00, 0x01,
    0x00, 0x50, 0x07, 0x00, 0x7f, 0x50, 0x0e, 0xf7, 0x55, 0xf0, 0x82, 0x09,
    0x41, 0x10, 0x16, 0x12, 0x06, 0x16, 0x00, 0x7f, 0x7f, 0x7f, 0x7f, 0x7f,
    0x7f, 0x7f, 0x7f, 0x7f, 0x7f, 0x02, 0x03, 0x04, 0x08, 0x04, 0x04, 0x03,
    0x03, 0x03, 0x03, 0x02, 0x02, 0x00, 0x01, 0x02, 0x03, 0x04, 0x05, 0x06,
    0x07, 0x09, 0x00, 0x00, 0x18, 0x32, 0x02, 0x00, 0x01, 0x00, 0x50, 0x07,
    0x00, 0x7f, 0x00, 0x00, 0x18, 0x32, 0x02, 0x00, 0x01, 0x00, 0x50, 0x07,
    0x00, 0x7f, 0x00, 0x00, 0x18, 0x32, 0x02, 0x00, 0x01, 0x00, 0x50, 0x07,
    0x00, 0x7f, 0x00, 0x00, 0x18, 0x32, 0x02, 0x00, 0x01, 0x00, 0x50, 0x07,
    0x00, 0x7f, 0x00, 0x00, 0x18, 0x32, 0x02, 0x00, 0x01, 0x00, 0x50, 0x07,
    0x00, 0x7f, 0x00, 0x00, 0x18, 0x32, 0x02, 0x00, 0x01, 0x00, 0x50, 0x07,
    0x00, 0x7f, 0x00, 0x00, 0x18, 0x32, 0x02, 0x00, 0x01, 0x00, 0x50, 0x07,
    0x00, 0x7f, 0x00, 0x00, 0x18, 0x32, 0x02, 0x00, 0x01, 0x00, 0x50, 0x07,
    0x00, 0x7f, 0x50, 0x7f, 0x7f, 0x7f, 0x7f, 0x7f, 0x7f, 0x7f, 0x7f, 0x7f,
    0x7f, 0x02, 0x03, 0x04, 0x08, 0x04, 0x04, 0x03, 0x03, 0x03, 0x03, 0x02,
    0x02, 0x00, 0x01, 0x02, 0x03, 0x04, 0x05, 0x06, 0x07, 0x09, 0x00, 0x00,
    0x18, 0x32, 0x02, 0x00, 0x01, 0x00, 0x50, 0x07, 0x00, 0x7f, 0x00, 0x00,
    0x18, 0x32, 0x02, 0x00, 0x01, 0x00, 0x50, 0x07, 0x00, 0x7f, 0x00, 0x00,
    0x18, 0x32, 0x02, 0x00, 0x01, 0x00, 0x50, 0x07, 0x00, 0x7f, 0x00, 0x00,
    0x18, 0x32, 0x02, 0x00, 0x01, 0x00, 0x50, 0x07, 0x00, 0x7f, 0x00, 0x00,
    0x18, 0x32, 0x02, 0x00, 0x01, 0x00, 0x50, 0x07, 0x00, 0x7f, 0x00, 0x00,
    0x18, 0x32, 0x02, 0x00, 0x01, 0x00, 0x50, 0x07, 0x00, 0x7f, 0x00, 0x00,
    0x18, 0x32, 0x02, 0x00, 0x01, 0x00, 0x50, 0x07, 0x00, 0x7f, 0x00, 0x00,
    0x18, 0x32, 0x02, 0x00, 0x01, 0x00, 0x50, 0x07, 0x00, 0x7f, 0x50, 0x0c,
    0xf7, 0x55, 0xf0, 0x82, 0x09, 0x41, 0x10, 0x16, 0x12, 0x06, 0x18, 0x00,
    0x7f, 0x7f, 0x7f, 0x7f, 0x7f, 0x7f, 0x7f, 0x7f, 0x7f, 0x7f, 0x02, 0x03,
    0x04, 0x08, 0x04, 0x04, 0x03, 0x03, 0x03, 0x03, 0x02, 0x02, 0x00, 0x01,
    0x02, 0x03, 0x04, 0x05, 0x06, 0x07, 0x09, 0x00, 0x00, 0x18, 0x32, 0x02,
    0x00, 0x01, 0x00, 0x50, 0x07, 0x00, 0x7f, 0x00, 0x00, 0x18, 0x32, 0x02,
    0x00, 0x01, 0x00, 0x50, 0x07, 0x00, 0x7f, 0x00, 0x00, 0x18, 0x32, 0x02,
    0x00, 0x01, 0x00, 0x50, 0x07, 0x00, 0x7f, 0x00, 0x00, 0x18, 0x32, 0x02,
    0x00, 0x01, 0x00, 0x50, 0x07, 0x00, 0x7f, 0x00, 0x00, 0x18, 0x32, 0x02,
    0x00, 0x01, 0x00, 0x50, 0x07, 0x00, 0x7f, 0x00, 0x00, 0x18, 0x32, 0x02,
    0x00, 0x01, 0x00, 0x50, 0x07, 0x00, 0x7f, 0x00, 0x00, 0x18, 0x32, 0x02,
    0x00, 0x01, 0x00, 0x50, 0x07, 0x00, 0x7f, 0x00, 0x00, 0x18, 0x32, 0x02,
    0x00, 0x01, 0x00, 0x50, 0x07, 0x00, 0x7f, 0x50, 0x7f, 0x7f, 0x7f, 0x7f,
    0x7f, 0x7f, 0x7f, 0x7f, 0x7f, 0x7f, 0x02, 0x03, 0x04, 0x08, 0x04, 0x04,
    0x03, 0x03, 0x03, 0x03, 0x02, 0x02, 0x00, 0x01, 0x02, 0x03, 0x04, 0x05,
    0x06, 0x07, 0x09, 0x00, 0x00, 0x18, 0x32, 0x02, 0x00, 0x01, 0x00, 0x50,
    0x07, 0x00, 0x7f, 0x00, 0x00, 0x18, 0x32, 0x02, 0x00, 0x01, 0x00, 0x50,
    0x07, 0x00, 0x7f, 0x00, 0x00, 0x18, 0x32, 0x02, 0x00, 0x01, 0x00, 0x50,
    0x07, 0x00, 0x7f, 0x00, 0x00, 0x18, 0x32, 0x02, 0x00, 0x01, 0x00, 0x50,
    0x07, 0x00, 0x7f, 0x00, 0x00, 0x18, 0x32, 0x02, 0x00, 0x01, 0x00, 0x50,
    0x07, 0x00, 0x7f, 0x00, 0x00, 0x18, 0x32, 0x02, 0x00, 0x01, 0x00, 0x50,
    0x07, 0x00, 0x7f, 0x00, 0x00, 0x18, 0x32, 0x02, 0x00, 0x01, 0x00, 0x50,
    0x07, 0x00, 0x7f, 0x00, 0x00, 0x18, 0x32, 0x02, 0x00, 0x01, 0x00, 0x50,
    0x07, 0x00, 0x7f, 0x50, 0x0a, 0xf7, 0x55, 0xf0, 0x82, 0x09, 0x41, 0x10,
    0x16, 0x12, 0x06, 0x1a, 0x00, 0x7f, 0x7f, 0x7f, 0x7f, 0x7f, 0x7f, 0x7f,
    0x7f, 0x7f, 0x7f, 0x02, 0x03, 0x04, 0x08, 0x04, 0x04, 0x03, 0x03, 0x03,
    0x03, 0x02, 0x02, 0x00, 0x01, 0x02, 0x03, 0x04, 0x05, 0x06, 0x07, 0x09,
    0x00, 0x00, 0x18, 0x32, 0x02, 0x00, 0x01, 0x00, 0x50, 0x07, 0x00, 0x7f,
    0x00, 0x00, 0x18, 0x32, 0x02, 0x00, 0x01, 0x00, 0x50, 0x07, 0x00, 0x7f,
    0x00, 0x00, 0x18, 0x32, 0x02, 0x00, 0x01, 0x00, 0x50, 0x07, 0x00, 0x7f,
    0x00, 0x00, 0x18, 0x32, 0x02, 0x00, 0x01, 0x00, 0x50, 0x07, 0x00, 0x7f,
    0x00, 0x00, 0x18, 0x32, 0x02, 0x00, 0x01, 0x00, 0x50, 0x07, 0x00, 0x7f,
    0x00, 0x00, 0x18, 0x32, 0x02, 0x00, 0x01, 0x00, 0x50, 0x07, 0x00, 0x7f,
    0x00, 0x00, 0x18, 0x32, 0x02, 0x00, 0x01, 0x00, 0x50, 0x07, 0x00, 0x7f,
    0x00, 0x00, 0x18, 0x32, 0x02, 0x00, 0x01, 0x00, 0x50, 0x07, 0x00, 0x7f,
    0x50, 0x7f, 0x7f, 0x7f, 0x7f, 0x7f, 0x7f, 0x7f, 0x7f, 0x7f, 0x7f, 0x02,
    0x03, 0x04, 0x08, 0x04, 0x04, 0x03, 0x03, 0x03, 0x03, 0x02, 0x02, 0x00,
    0x01, 0x02, 0x03, 0x04, 0x05, 0x06, 0x07, 0x09, 0x00, 0x00, 0x18, 0x32,
    0x02, 0x00, 0x01, 0x00, 0x50, 0x07, 0x00, 0x7f, 0x00, 0x00, 0x18, 0x32,
    0x02, 0x00, 0x01, 0x00, 0x50, 0x07, 0x00, 0x7f, 0x00, 0x00, 0x18, 0x32,
    0x02, 0x00, 0x01, 0x00, 0x50, 0x07, 0x00, 0x7f, 0x00, 0x00, 0x18, 0x32,
    0x02, 0x00, 0x01, 0x00, 0x50, 0x07, 0x00, 0x7f, 0x00, 0x00, 0x18, 0x32,
    0x02, 0x00, 0x01, 0x00, 0x50, 0x07, 0x00, 0x7f, 0x00, 0x00, 0x18, 0x32,
    0x02, 0x00, 0x01, 0x00, 0x50, 0x07, 0x00, 0x7f, 0x00, 0x00, 0x18, 0x32,
    0x02, 0x00, 0x01, 0x00, 0x50, 0x07, 0x00, 0x7f, 0x00, 0x00, 0x18, 0x32,
    0x02, 0x00, 0x01, 0x00, 0x50, 0x07, 0x00, 0x7f, 0x50, 0x08, 0xf7, 0x55,
    0xf0, 0x82, 0x09, 0x41, 0x10, 0x16, 0x12, 0x06, 0x1c, 0x00, 0x7f, 0x7f,
    0x7f, 0x7f, 0x7f, 0x7f, 0x7f, 0x7f, 0x7f, 0x7f, 0x02, 0x03, 0x04, 0x08,
    0x04, 0x04, 0x03, 0x03, 0x03, 0x03, 0x02, 0x02, 0x00, 0x01, 0x02, 0x03,
    0x04, 0x05, 0x06, 0x07, 0x09, 0x00, 0x00, 0x18, 0x32, 0x02, 0x00, 0x01,
    0x00, 0x50, 0x07, 0x00, 0x7f, 0x00, 0x00, 0x18, 0x32, 0x02, 0x00, 0x01,
    0x00, 0x50, 0x07, 0x00, 0x7f, 0x00, 0x00, 0x18, 0x32, 0x02, 0x00, 0x01,
    0x00, 0x50, 0x07, 0x00, 0x7f, 0x00, 0x00, 0x18, 0x32, 0x02, 0x00, 0x01,
    0x00, 0x50, 0x07, 0x00, 0x7f, 0x00, 0x00, 0x18, 0x32, 0x02, 0x00, 0x01,
    0x00, 0x50, 0x07, 0x00, 0x7f, 0x00, 0x00, 0x18, 0x32, 0x02, 0x00, 0x01,
    0x00, 0x50, 0x07, 0x00, 0x7f, 0x00, 0x00, 0x18, 0x32, 0x02, 0x00, 0x01,
    0x00, 0x50, 0x07, 0x00, 0x7f, 0x00, 0x00, 0x18, 0x32, 0x02, 0x00, 0x01,
    0x00, 0x50, 0x07, 0x00, 0x7f, 0x50, 0x7f, 0x7f, 0x7f, 0x7f, 0x7f, 0x7f,
    0x7f, 0x7f, 0x7f, 0x7f, 0x02, 0x03, 0x04, 0x08, 0x04, 0x04, 0x03, 0x03,
    0x03, 0x03, 0x02, 0x02, 0x00, 0x01, 0x02, 0x03, 0x04, 0x05, 0x06, 0x07,
    0x09, 0x00, 0x00, 0x18, 0x32, 0x02, 0x00, 0x01, 0x00, 0x50, 0x07, 0x00,
    0x7f, 0x00, 0x00, 0x18, 0x32, 0x02, 0x00, 0x01, 0x00, 0x50, 0x07, 0x00,
    0x7f, 0x00, 0x00, 0x18, 0x32, 0x02, 0x00, 0x01, 0x00, 0x50, 0x07, 0x00,
    0x7f, 0x00, 0x00, 0x18, 0x32, 0x02, 0x00, 0x01, 0x00, 0x50, 0x07, 0x00,
    0x7f, 0x00, 0x00, 0x18, 0x32, 0x02, 0x00, 0x01, 0x00, 0x50, 0x07, 0x00,
    0x7f, 0x00, 0x00, 0x18, 0x32, 0x02, 0x00, 0x01, 0x00, 0x50, 0x07, 0x00,
    0x7f, 0x00, 0x00, 0x18, 0x32, 0x02, 0x00, 0x01, 0x00, 0x50, 0x07, 0x00,
    0x7f, 0x00, 0x00, 0x18, 0x32, 0x02, 0x00, 0x01, 0x00, 0x50, 0x07, 0x00,
    0x7f, 0x50, 0x06, 0xf7, 0x55, 0xf0, 0x82, 0x09, 0x41, 0x10, 0x16, 0x12,
    0x06, 0x1e, 0x00, 0x7f, 0x7f, 0x7f, 0x7f, 0x7f, 0x7f, 0x7f, 0x7f, 0x7f,
    0x7f, 0x02, 0x03, 0x04, 0x08, 0x04, 0x04, 0x03, 0x03, 0x03, 0x03, 0x02,
    0x02, 0x00, 0x01, 0x02, 0x03, 0x04, 0x05, 0x06, 0x07, 0x09, 0x00, 0x00,
    0x18, 0x32, 0x02, 0x00, 0x01, 0x00, 0x50, 0x07, 0x00, 0x7f, 0x00, 0x00,
    0x18, 0x32, 0x02, 0x00, 0x01, 0x00, 0x50, 0x07, 0x00, 0x7f, 0x00, 0x00,
    0x18, 0x32, 0x02, 0x00, 0x01, 0x00, 0x50, 0x07, 0x00, 0x7f, 0x00, 0x00,
    0x18, 0x32, 0x02, 0x00, 0x01, 0x00, 0x50, 0x07, 0x00, 0x7f, 0x00, 0x00,
    0x18, 0x32, 0x02, 0x00, 0x01, 0x00, 0x50, 0x07, 0x00, 0x7f, 0x00, 0x00,
    0x18, 0x32, 0x02, 0x00, 0x01, 0x00, 0x50, 0x07, 0x00, 0x7f, 0x00, 0x00,
    0x18, 0x32, 0x02, 0x00, 0x01, 0x00, 0x50, 0x07, 0x00, 0x7f, 0x00, 0x00,
    0x18, 0x32, 0x02, 0x00, 0x01, 0x00, 0x50, 0x07, 0x00, 0x7f, 0x50, 0x7f,
    0x7f, 0x7f, 0x7f, 0x7f, 0x7f, 0x7f, 0x7f, 0x7f, 0x7f, 0x02, 0x03, 0x04,
    0x08, 0x04, 0x04, 0x03, 0x03, 0x03, 0x03, 0x02, 0x02, 0x00, 0x01, 0x02,
    0x03, 0x04, 0x05, 0x06, 0x07, 0x09, 0x00, 0x00, 0x18, 0x32, 0x02, 0x00,
    0x01, 0x00, 0x50, 0x07, 0x00, 0x7f, 0x00, 0x00, 0x18, 0x32, 0x02, 0x00,
    0x01, 0x00, 0x50, 0x07, 0x00, 0x7f, 0x00, 0x00, 0x18, 0x32, 0x02, 0x00,
    0x01, 0x00, 0x50, 0x07, 0x00, 0x7f, 0x00, 0x00, 0x18, 0x32, 0x02, 0x00,
    0x01, 0x00, 0x50, 0x07, 0x00, 0x7f, 0x00, 0x00, 0x18, 0x32, 0x02, 0x00,
    0x01, 0x00, 0x50, 0x07, 0x00, 0x7f, 0x00, 0x00, 0x18, 0x32, 0x02, 0x00,
    0x01, 0x00, 0x50, 0x07, 0x00, 0x7f, 0x00, 0x00, 0x18, 0x32, 0x02, 0x00,
    0x01, 0x00, 0x50, 0x07, 0x00, 0x7f, 0x00, 0x00, 0x18, 0x32, 0x02, 0x00,
    0x01, 0x00, 0x50, 0x07, 0x00, 0x7f, 0x50, 0x04, 0xf7, 0x55, 0xf0, 0x82,
    0x09, 0x41, 0x10, 0x16, 0x12, 0x06, 0x20, 0x00, 0x7f, 0x7f, 0x7f, 0x7f,
    0x7f, 0x7f, 0x7f, 0x7f, 0x7f, 0x7f, 0x02, 0x03, 0x04, 0x08, 0x04, 0x04,
    0x03, 0x03, 0x03, 0x03, 0x02, 0x02, 0x00, 0x01, 0x02, 0x03, 0x04, 0x05,
    0x06, 0x07, 0x09, 0x00, 0x00, 0x18, 0x32, 0x02, 0x00, 0x01, 0x00, 0x50,
    0x07, 0x00, 0x7f, 0x00, 0x00, 0x18, 0x32, 0x02, 0x00, 0x01, 0x00, 0x50,
    0x07, 0x00, 0x7f, 0x00, 0x00, 0x18, 0x32, 0x02, 0x00, 0x01, 0x00, 0x50,
    0x07, 0x00, 0x7f, 0x00, 0x00, 0x18, 0x32, 0x02, 0x00, 0x01, 0x00, 0x50,
    0x07, 0x00, 0x7f, 0x00, 0x00, 0x18, 0x32, 0x02, 0x00, 0x01, 0x00, 0x50,
    0x07, 0x00, 0x7f, 0x00, 0x00, 0x18, 0x32, 0x02, 0x00, 0x01, 0x00, 0x50,
    0x07, 0x00, 0x7f, 0x00, 0x00, 0x18, 0x32, 0x02, 0x00, 0x01, 0x00, 0x50,
    0x07, 0x00, 0x7f, 0x00, 0x00, 0x18, 0x32, 0x02, 0x00, 0x01, 0x00, 0x50,
    0x07, 0x00, 0x7f, 0x50, 0x7f, 0x7f, 0x7f, 0x7f, 0x7f, 0x7f, 0x7f, 0x7f,
    0x7f, 0x7f, 0x02, 0x03, 0x04, 0x08, 0x04, 0x04, 0x03, 0x03, 0x03, 0x03,
    0x02, 0x02, 0x00, 0x01, 0x02, 0x03, 0x04, 0x05, 0x06, 0x07, 0x09, 0x00,
    0x00, 0x18, 0x32, 0x02, 0x00, 0x01, 0x00, 0x50, 0x07, 0x00, 0x7f, 0x00,
    0x00, 0x18, 0x32, 0x02, 0x00, 0x01, 0x00, 0x50, 0x07, 0x00, 0x7f, 0x00,
    0x00, 0x18, 0x32, 0x02, 0x00, 0x01, 0x00, 0x50, 0x07, 0x00, 0x7f, 0x00,
    0x00, 0x18, 0x32, 0x02, 0x00, 0x01, 0x00, 0x50, 0x07, 0x00, 0x7f, 0x00,
    0x00, 0x18, 0x32, 0x02, 0x00, 0x01, 0x00, 0x50, 0x07, 0x00, 0x7f, 0x00,
    0x00, 0x18, 0x32, 0x02, 0x00, 0x01, 0x00, 0x50, 0x07, 0x00, 0x7f, 0x00,
    0x00, 0x18, 0x32, 0x02, 0x00, 0x01, 0x00, 0x50, 0x07, 0x00, 0x7f, 0x00,
    0x00, 0x18, 0x32, 0x02, 0x00, 0x01, 0x00, 0x50, 0x07, 0x00, 0x7f, 0x50,
    0x02, 0xf7, 0x4b, 0xf0, 0x82, 0x09, 0x41, 0x10, 0x16, 0x12, 0x06, 0x22,
    0x00, 0x7f, 0x7f, 0x7f, 0x7f, 0x7f, 0x7f, 0x7f, 0x7f, 0x7f, 0x7f, 0x02,
    0x03, 0x04, 0x08, 0x04, 0x04, 0x03, 0x03, 0x03, 0x03, 0x02, 0x02, 0x00,
    0x01, 0x02, 0x03, 0x04, 0x05, 0x06, 0x07, 0x09, 0x00, 0x00, 0x18, 0x32,
    0x02, 0x00, 0x01, 0x00, 0x50, 0x07, 0x00, 0x7f, 0x00, 0x00, 0x18, 0x32,
    0x02, 0x00, 0x01, 0x00, 0x50, 0x07, 0x00, 0x7f, 0x00, 0x00, 0x18, 0x32,
    0x02, 0x00, 0x01, 0x00, 0x50, 0x07, 0x00, 0x7f, 0x00, 0x00, 0x18, 0x32,
    0x02, 0x00, 0x01, 0x00, 0x50, 0x07, 0x00, 0x7f, 0x00, 0x00, 0x18, 0x32,
    0x02, 0x00, 0x01, 0x00, 0x50, 0x07, 0x00, 0x7f, 0x00, 0x00, 0x18, 0x32,
    0x02, 0x00, 0x01, 0x00, 0x50, 0x07, 0x00, 0x7f, 0x00, 0x00, 0x18, 0x32,
    0x02, 0x00, 0x01, 0x00, 0x50, 0x07, 0x00, 0x7f, 0x00, 0x00, 0x18, 0x32,
    0x02, 0x00, 0x01, 0x00, 0x50, 0x07, 0x00, 0x7f, 0x50, 0x7f, 0x7f, 0x7f,
    0x7f, 0x7f, 0x7f, 0x7f, 0x7f, 0x7f, 0x7f, 0x02, 0x03, 0x04, 0x08, 0x04,
    0x04, 0x03, 0x03, 0x03, 0x03, 0x02, 0x02, 0x00, 0x01, 0x02, 0x03, 0x04,
    0x05, 0x06, 0x07, 0x09, 0x00, 0x00, 0x18, 0x32, 0x02, 0x00, 0x01, 0x00,
    0x50, 0x07, 0x00, 0x7f, 0x00, 0x00, 0x18, 0x32, 0x02, 0x00, 0x01, 0x00,
    0x50, 0x07, 0x00, 0x7f, 0x00, 0x00, 0x18, 0x32, 0x02, 0x00, 0x01, 0x00,
    0x50, 0x07, 0x00, 0x7f, 0x00, 0x00, 0x18, 0x32, 0x02, 0x00, 0x01, 0x00,
    0x50, 0x07, 0x00, 0x7f, 0x00, 0x00, 0x18, 0x32, 0x02, 0x00, 0x01, 0x00,
    0x50, 0x07, 0x00, 0x7f, 0x00, 0x00, 0x18, 0x32, 0x02, 0x00, 0x01, 0x00,
    0x50, 0x07, 0x00, 0x7f, 0x00, 0x00, 0x18, 0x32, 0x02, 0x00, 0x01, 0x00,
    0x50, 0x07, 0x00, 0x7f, 0x00, 0x00, 0x18, 0x32, 0x02, 0x00, 0x01, 0x00,
    0x50, 0x07, 0x00, 0x7f, 0x50, 0x00, 0xf7, 0x55, 0xf0, 0x82, 0x09, 0x41,
    0x10, 0x16, 0x12, 0x06, 0x24, 0x00, 0x7f, 0x7f, 0x7f, 0x7f, 0x7f, 0x7f,
    0x7f, 0x7f, 0x7f, 0x7f, 0x02, 0x03, 0x04, 0x08, 0x04, 0x04, 0x03, 0x03,
    0x03, 0x03, 0x02, 0x02, 0x00, 0x01, 0x02, 0x03, 0x04, 0x05, 0x06, 0x07,
    0x09, 0x00, 0x00, 0x18, 0x32, 0x02, 0x00, 0x01, 0x00, 0x50, 0x07, 0x00,
    0x7f, 0x00, 0x00, 0x18, 0x32, 0x02, 0x00, 0x01, 0x00, 0x50, 0x07, 0x00,
    0x7f, 0x00, 0x00, 0x18, 0x32, 0x02, 0x00, 0x01, 0x00, 0x50, 0x07, 0x00,
    0x7f, 0x00, 0x00, 0x18, 0x32, 0x02, 0x00, 0x01, 0x00, 0x50, 0x07, 0x00,
    0x7f, 0x00, 0x00, 0x18, 0x32, 0x02, 0x00, 0x01, 0x00, 0x50, 0x07, 0x00,
    0x7f, 0x00, 0x00, 0x18, 0x32, 0x02, 0x00, 0x01, 0x00, 0x50, 0x07, 0x00,
    0x7f, 0x00, 0x00, 0x18, 0x32, 0x02, 0x00, 0x01, 0x00, 0x50, 0x07, 0x00,
    0x7f, 0x00, 0x00, 0x18, 0x32, 0x02, 0x00, 0x01, 0x00, 0x50, 0x07, 0x00,
    0x7f, 0x50, 0x7f, 0x7f, 0x7f, 0x7f, 0x7f, 0x7f, 0x7f, 0x7f, 0x7f, 0x7f,
    0x02, 0x03, 0x04, 0x08, 0x04, 0x04, 0x03, 0x03, 0x03, 0x03, 0x02, 0x02,
    0x00, 0x01, 0x02, 0x03, 0x04, 0x05, 0x06, 0x07, 0x09, 0x00, 0x00, 0x18,
    0x32, 0x02, 0x00, 0x01, 0x00, 0x50, 0x07, 0x00, 0x7f, 0x00, 0x00, 0x18,
    0x32, 0x02, 0x00, 0x01, 0x00, 0x50, 0x07, 0x00, 0x7f, 0x00, 0x00, 0x18,
    0x32, 0x02, 0x00, 0x01, 0x00, 0x50, 0x07, 0x00, 0x7f, 0x00, 0x00, 0x18,
    0x32, 0x02, 0x00, 0x01, 0x00, 0x50, 0x07, 0x00, 0x7f, 0x00, 0x00, 0x18,
    0x32, 0x02, 0x00, 0x01, 0x00, 0x50, 0x07, 0x00, 0x7f, 0x00, 0x00, 0x18,
    0x32, 0x02, 0x00, 0x01, 0x00, 0x50, 0x07, 0x00, 0x7f, 0x00, 0x00, 0x18,
    0x32, 0x02, 0x00, 0x01, 0x00, 0x50, 0x07, 0x00, 0x7f, 0x00, 0x00, 0x18,
    0x32, 0x02, 0x00, 0x01, 0x00, 0x50, 0x07, 0x00, 0x7f, 0x50, 0x7e, 0xf7,
    0x55, 0xf0, 0x82, 0x09, 0x41, 0x10, 0x16, 0x12, 0x06, 0x26, 0x00, 0x7f,
    0x7f, 0x7f, 0x7f, 0x7f, 0x7f, 0x7f, 0x7f, 0x7f, 0x7f, 0x02, 0x03, 0x04,
    0x08, 0x04, 0x04, 0x03, 0x03, 0x03, 0x03, 0x02, 0x02, 0x00, 0x01, 0x02,
    0x03, 0x04, 0x05, 0x06, 0x07, 0x09, 0x00, 0x00, 0x18, 0x32, 0x02, 0x00,
    0x01, 0x00, 0x50, 0x07, 0x00, 0x7f, 0x00, 0x00, 0x18, 0x32, 0x02, 0x00,
    0x01, 0x00, 0x50, 0x07, 0x00, 0x7f, 0x00, 0x00, 0x18, 0x32, 0x02, 0x00,
    0x01, 0x00, 0x50, 0x07, 0x00, 0x7f, 0x00, 0x00, 0x18, 0x32, 0x02, 0x00,
    0x01, 0x00, 0x50, 0x07, 0x00, 0x7f, 0x00, 0x00, 0x18, 0x32, 0x02, 0x00,
    0x01, 0x00, 0x50, 0x07, 0x00, 0x7f, 0x00, 0x00, 0x18, 0x32, 0x02, 0x00,
    0x01, 0x00, 0x50, 0x07, 0x00, 0x7f, 0x00, 0x00, 0x18, 0x32, 0x02, 0x00,
    0x01, 0x00, 0x50, 0x07, 0x00, 0x7f, 0x00, 0x00, 0x18, 0x32, 0x02, 0x00,
    0x01, 0x00, 0x50, 0x07, 0x00, 0x7f, 0x50, 0x7f, 0x7f, 0x7f, 0x7f, 0x7f,
    0x7f, 0x7f, 0x7f, 0x7f, 0x7f, 0x02, 0x03, 0x04, 0x08, 0x04, 0x04, 0x03,
    0x03, 0x03, 0x03, 0x02, 0x02, 0x00, 0x01, 0x02, 0x03, 0x04, 0x05, 0x06,
    0x07, 0x09, 0x00, 0x00, 0x18, 0x32, 0x02, 0x00, 0x01, 0x00, 0x50, 0x07,
    0x00, 0x7f, 0x00, 0x00, 0x18, 0x32, 0x02, 0x00, 0x01, 0x00, 0x50, 0x07,
    0x00, 0x7f, 0x00, 0x00, 0x18, 0x32, 0x02, 0x00, 0x01, 0x00, 0x50, 0x07,
    0x00, 0x7f, 0x00, 0x00, 0x18, 0x32, 0x02, 0x00, 0x01, 0x00, 0x50, 0x07,
    0x00, 0x7f, 0x00, 0x00, 0x18, 0x32, 0x02, 0x00, 0x01, 0x00, 0x50, 0x07,
    0x00, 0x7f, 0x00, 0x00, 0x18, 0x32, 0x02, 0x00, 0x01, 0x00, 0x50, 0x07,
    0x00, 0x7f, 0x00, 0x00, 0x18, 0x32, 0x02, 0x00, 0x01, 0x00, 0x50, 0x07,
    0x00, 0x7f, 0x00, 0x00, 0x18, 0x32, 0x02, 0x00, 0x01, 0x00, 0x50, 0x07,
    0x00, 0x7f, 0x50, 0x7c, 0xf7, 0x55, 0xf0, 0x82, 0x09, 0x41, 0x10, 0x16,
    0x12, 0x06, 0x28, 0x00, 0x7f, 0x7f, 0x7f, 0x7f, 0x7f, 0x7f, 0x7f, 0x7f,
    0x7f, 0x7f, 0x02, 0x03, 0x04, 0x08, 0x04, 0x04, 0x03, 0x03, 0x03, 0x03,
    0x02, 0x02, 0x00, 0x01, 0x02, 0x03, 0x04, 0x05, 0x06, 0x07, 0x09, 0x00,
    0x00, 0x18, 0x32, 0x02, 0x00, 0x01, 0x00, 0x50, 0x07, 0x00, 0x7f, 0x00,
    0x00, 0x18, 0x32, 0x02, 0x00, 0x01, 0x00, 0x50, 0x07, 0x00, 0x7f, 0x00,
    0x00, 0x18, 0x32, 0x02, 0x00, 0x01, 0x00, 0x50, 0x07, 0x00, 0x7f, 0x00,
    0x00, 0x18, 0x32, 0x02, 0x00, 0x01, 0x00, 0x50, 0x07, 0x00, 0x7f, 0x00,
    0x00, 0x18, 0x32, 0x02, 0x00, 0x01, 0x00, 0x50, 0x07, 0x00, 0x7f, 0x00,
    0x00, 0x18, 0x32, 0x02, 0x00, 0x01, 0x00, 0x50, 0x07, 0x00, 0x7f, 0x00,
    0x00, 0x18, 0x32, 0x02, 0x00, 0x01, 0x00, 0x50, 0x07, 0x00, 0x7f, 0x00,
    0x00, 0x18, 0x32, 0x02, 0x00, 0x01, 0x00, 0x50, 0x07, 0x00, 0x7f, 0x50,
    0x7f, 0x7f, 0x7f, 0x7f, 0x7f, 0x7f, 0x7f, 0x7f, 0x7f, 0x7f, 0x02, 0x03,
    0x04, 0x08, 0x04, 0x04, 0x03, 0x03, 0x03, 0x03, 0x02, 0x02, 0x00, 0x01,
    0x02, 0x03, 0x04, 0x05, 0x06, 0x07, 0x09, 0x00, 0x00, 0x18, 0x32, 0x02,
    0x00, 0x01, 0x00, 0x50, 0x07, 0x00, 0x7f, 0x00, 0x00, 0x18, 0x32, 0x02,
    0x00, 0x01, 0x00, 0x50, 0x07, 0x00, 0x7f, 0x00, 0x00, 0x18, 0x32, 0x02,
    0x00, 0x01, 0x00, 0x50, 0x07, 0x00, 0x7f, 0x00, 0x00, 0x18, 0x32, 0x02,
    0x00, 0x01, 0x00, 0x50, 0x07, 0x00, 0x7f, 0x00, 0x00, 0x18, 0x32, 0x02,
    0x00, 0x01, 0x00, 0x50, 0x07, 0x00, 0x7f, 0x00, 0x00, 0x18, 0x32, 0x02,
    0x00, 0x01, 0x00, 0x50, 0x07, 0x00, 0x7f, 0x00, 0x00, 0x18, 0x32, 0x02,
    0x00, 0x01, 0x00, 0x50, 0x07, 0x00, 0x7f, 0x00, 0x00, 0x18, 0x32, 0x02,
    0x00, 0x01, 0x00, 0x50, 0x07, 0x00, 0x7f, 0x50, 0x7a, 0xf7, 0x55, 0xf0,
    0x82, 0x09, 0x41, 0x10, 0x16, 0x12, 0x06, 0x2a, 0x00, 0x7f, 0x7f, 0x7f,
    0x7f, 0x7f, 0x7f, 0x7f, 0x7f, 0x7f, 0x7f, 0x02, 0x03, 0x04, 0x08, 0x04,
    0x04, 0x03, 0x03, 0x03, 0x03, 0x02, 0x02, 0x00, 0x01, 0x02, 0x03, 0x04,
    0x05, 0x06, 0x07, 0x09, 0x00, 0x00, 0x18, 0x32, 0x02, 0x00, 0x01, 0x00,
    0x50, 0x07, 0x00, 0x7f, 0x00, 0x00, 0x18, 0x32, 0x02, 0x00, 0x01, 0x00,
    0x50, 0x07, 0x00, 0x7f, 0x00, 0x00, 0x18, 0x32, 0x02, 0x00, 0x01, 0x00,
    0x50, 0x07, 0x00, 0x7f, 0x00, 0x00, 0x18, 0x32, 0x02, 0x00, 0x01, 0x00,
    0x50, 0x07, 0x00, 0x7f, 0x00, 0x00, 0x18, 0x32, 0x02, 0x00, 0x01, 0x00,
    0x50, 0x07, 0x00, 0x7f, 0x00, 0x00, 0x18, 0x32, 0x02, 0x00, 0x01, 0x00,
    0x50, 0x07, 0x00, 0x7f, 0x00, 0x00, 0x18, 0x32, 0x02, 0x00, 0x01, 0x00,
    0x50, 0x07, 0x00, 0x7f, 0x00, 0x00, 0x18, 0x32, 0x02, 0x00, 0x01, 0x00,
    0x50, 0x07, 0x00, 0x7f, 0x50, 0x7f, 0x7f, 0x7f, 0x7f, 0x7f, 0x7f, 0x7f,
    0x7f, 0x7f, 0x7f, 0x02, 0x03, 0x04, 0x08, 0x04, 0x04, 0x03, 0x03, 0x03,
    0x03, 0x02, 0x02, 0x00, 0x01, 0x02, 0x03, 0x04, 0x05, 0x06, 0x07, 0x09,
    0x00, 0x00, 0x18, 0x32, 0x02, 0x00, 0x01, 0x00, 0x50, 0x07, 0x00, 0x7f,
    0x00, 0x00, 0x18, 0x32, 0x02, 0x00, 0x01, 0x00, 0x50, 0x07, 0x00, 0x7f,
    0x00, 0x00, 0x18, 0x32, 0x02, 0x00, 0x01, 0x00, 0x50, 0x07, 0x00, 0x7f,
    0x00, 0x00, 0x18, 0x32, 0x02, 0x00, 0x01, 0x00, 0x50, 0x07, 0x00, 0x7f,
    0x00, 0x00, 0x18, 0x32, 0x02, 0x00, 0x01, 0x00, 0x50, 0x07, 0x00, 0x7f,
    0x00, 0x00, 0x18, 0x32, 0x02, 0x00, 0x01, 0x00, 0x50, 0x07, 0x00, 0x7f,
    0x00, 0x00, 0x18, 0x32, 0x02, 0x00, 0x01, 0x00, 0x50, 0x07, 0x00, 0x7f,
    0x00, 0x00, 0x18, 0x32, 0x02, 0x00, 0x01, 0x00, 0x50, 0x07, 0x00, 0x7f,
    0x50, 0x78, 0xf7, 0x55, 0xf0, 0x82, 0x09, 0x41, 0x10, 0x16, 0x12, 0x06,
    0x2c, 0x00, 0x7f, 0x7f, 0x7f, 0x7f, 0x7f, 0x7f, 0x7f, 0x7f, 0x7f, 0x7f,
    0x02, 0x03, 0x04, 0x08, 0x04, 0x04, 0x03, 0x03, 0x03, 0x03, 0x02, 0x02,
    0x00, 0x01, 0x02, 0x03, 0x04, 0x05, 0x06, 0x07, 0x09, 0x00, 0x00, 0x18,
    0x32, 0x02, 0x00, 0x01, 0x00, 0x50, 0x07, 0x00, 0x7f, 0x00, 0x00, 0x18,
    0x32, 0x02, 0x00, 0x01, 0x00, 0x50, 0x07, 0x00, 0x7f, 0x00, 0x00, 0x18,
    0x32, 0x02, 0x00, 0x01, 0x00, 0x50, 0x07, 0x00, 0x7f, 0x00, 0x00, 0x18,
    0x32, 0x02, 0x00, 0x01, 0x00, 0x50, 0x07, 0x00, 0x7f, 0x00, 0x00, 0x18,
    0x32, 0x02, 0x00, 0x01, 0x00, 0x50, 0x07, 0x00, 0x7f, 0x00, 0x00, 0x18,
    0x32, 0x02, 0x00, 0x01, 0x00, 0x50, 0x07, 0x00, 0x7f, 0x00, 0x00, 0x18,
    0x32, 0x02, 0x00, 0x01, 0x00, 0x50, 0x07, 0x00, 0x7f, 0x00, 0x00, 0x18,
    0x32, 0x02, 0x00, 0x01, 0x00, 0x50, 0x07, 0x00, 0x7f, 0x50, 0x7f, 0x7f,
    0x7f, 0x7f, 0x7f, 0x7f, 0x7f, 0x7f, 0x7f, 0x7f, 0x02, 0x03, 0x04, 0x08,
    0x04, 0x04, 0x03, 0x03, 0x03, 0x03, 0x02, 0x02, 0x00, 0x01, 0x02, 0x03,
    0x04, 0x05, 0x06, 0x07, 0x09, 0x00, 0x00, 0x18, 0x32, 0x02, 0x00, 0x01,
    0x00, 0x50, 0x07, 0x00, 0x7f, 0x00, 0x00, 0x18, 0x32, 0x02, 0x00, 0x01,
    0x00, 0x50, 0x07, 0x00, 0x7f, 0x00, 0x00, 0x18, 0x32, 0x02, 0x00, 0x01,
    0x00, 0x50, 0x07, 0x00, 0x7f, 0x00, 0x00, 0x18, 0x32, 0x02, 0x00, 0x01,
    0x00, 0x50, 0x07, 0x00, 0x7f, 0x00, 0x00, 0x18, 0x32, 0x02, 0x00, 0x01,
    0x00, 0x50, 0x07, 0x00, 0x7f, 0x00, 0x00, 0x18, 0x32, 0x02, 0x00, 0x01,
    0x00, 0x50, 0x07, 0x00, 0x7f, 0x00, 0x00, 0x18, 0x32, 0x02, 0x00, 0x01,
    0x00, 0x50, 0x07, 0x00, 0x7f, 0x00, 0x00, 0x18, 0x32, 0x02, 0x00, 0x01,
    0x00, 0x50, 0x07, 0x00, 0x7f, 0x50, 0x76, 0xf7, 0x55, 0xf0, 0x82, 0x09,
    0x41, 0x10, 0x16, 0x12, 0x06, 0x2e, 0x00, 0x7f, 0x7f, 0x7f, 0x7f, 0x7f,
    0x7f, 0x7f, 0x7f, 0x7f, 0x7f, 0x02, 0x03, 0x04, 0x08, 0x04, 0x04, 0x03,
    0x03, 0x03, 0x03, 0x02, 0x02, 0x00, 0x01, 0x02, 0x03, 0x04, 0x05, 0x06,
    0x07, 0x09, 0x00, 0x00, 0x18, 0x32, 0x02, 0x00, 0x01, 0x00, 0x50, 0x07,
    0x00, 0x7f, 0x00, 0x00, 0x18, 0x32, 0x02, 0x00, 0x01, 0x00, 0x50, 0x07,
    0x00, 0x7f, 0x00, 0x00, 0x18, 0x32, 0x02, 0x00, 0x01, 0x00, 0x50, 0x07,
    0x00, 0x7f, 0x00, 0x00, 0x18, 0x32, 0x02, 0x00, 0x01, 0x00, 0x50, 0x07,
    0x00, 0x7f, 0x00, 0x00, 0x18, 0x32, 0x02, 0x00, 0x01, 0x00, 0x50, 0x07,
    0x00, 0x7f, 0x00, 0x00, 0x18, 0x32, 0x02, 0x00, 0x01, 0x00, 0x50, 0x07,
    0x00, 0x7f, 0x00, 0x00, 0x18, 0x32, 0x02, 0x00, 0x01, 0x00, 0x50, 0x07,
    0x00, 0x7f, 0x00, 0x00, 0x18, 0x32, 0x02, 0x00, 0x01, 0x00, 0x50, 0x07,
    0x00, 0x7f, 0x50, 0x7f, 0x7f, 0x7f, 0x7f, 0x7f, 0x7f, 0x7f, 0x7f, 0x7f,
    0x7f, 0x02, 0x03, 0x04, 0x08, 0x04, 0x04, 0x03, 0x03, 0x03, 0x03, 0x02,
    0x02, 0x00, 0x01, 0x02, 0x03, 0x04, 0x05, 0x06, 0x07, 0x09, 0x00, 0x00,
    0x18, 0x32, 0x02, 0x00, 0x01, 0x00, 0x50, 0x07, 0x00, 0x7f, 0x00, 0x00,
    0x18, 0x32, 0x02, 0x00, 0x01, 0x00, 0x50, 0x07, 0x00, 0x7f, 0x00, 0x00,
    0x18, 0x32, 0x02, 0x00, 0x01, 0x00, 0x50, 0x07, 0x00, 0x7f, 0x00, 0x00,
    0x18, 0x32, 0x02, 0x00, 0x01, 0x00, 0x50, 0x07, 0x00, 0x7f, 0x00, 0x00,
    0x18, 0x32, 0x02, 0x00, 0x01, 0x00, 0x50, 0x07, 0x00, 0x7f, 0x00, 0x00,
    0x18, 0x32, 0x02, 0x00, 0x01, 0x00, 0x50, 0x07, 0x00, 0x7f, 0x00, 0x00,
    0x18, 0x32, 0x02, 0x00, 0x01, 0x00, 0x50, 0x07, 0x00, 0x7f, 0x00, 0x00,
    0x18, 0x32, 0x02, 0x00, 0x01, 0x00, 0x50, 0x07, 0x00, 0x7f, 0x50, 0x74,
    0xf7, 0x55, 0xf0, 0x82, 0x09, 0x41, 0x10, 0x16, 0x12, 0x06, 0x30, 0x00,
    0x7f, 0x7f, 0x7f, 0x7f, 0x7f, 0x7f, 0x7f, 0x7f, 0x7f, 0x7f, 0x02, 0x03,
    0x04, 0x08, 0x04, 0x04, 0x03, 0x03, 0x03, 0x03, 0x02, 0x02, 0x00, 0x01,
    0x02, 0x03, 0x04, 0x05, 0x06, 0x07, 0x09, 0x00, 0x00, 0x18, 0x32, 0x02,
    0x00, 0x01, 0x00, 0x50, 0x07, 0x00, 0x7f, 0x00, 0x00, 0x18, 0x32, 0x02,
    0x00, 0x01, 0x00, 0x50, 0x07, 0x00, 0x7f, 0x00, 0x00, 0x18, 0x32, 0x02,
    0x00, 0x01, 0x00, 0x50, 0x07, 0x00, 0x7f, 0x00, 0x00, 0x18, 0x32, 0x02,
    0x00, 0x01, 0x00, 0x50, 0x07, 0x00, 0x7f, 0x00, 0x00, 0x18, 0x32, 0x02,
    0x00, 0x01, 0x00, 0x50, 0x07, 0x00, 0x7f, 0x00, 0x00, 0x18, 0x32, 0x02,
    0x00, 0x01, 0x00, 0x50, 0x07, 0x00, 0x7f, 0x00, 0x00, 0x18, 0x32, 0x02,
    0x00, 0x01, 0x00, 0x50, 0x07, 0x00, 0x7f, 0x00, 0x00, 0x18, 0x32, 0x02,
    0x00, 0x01, 0x00, 0x50, 0x07, 0x00, 0x7f, 0x50, 0x7f, 0x7f, 0x7f, 0x7f,
    0x7f, 0x7f, 0x7f, 0x7f, 0x7f, 0x7f, 0x02, 0x03, 0x04, 0x08, 0x04, 0x04,
    0x03, 0x03, 0x03, 0x03, 0x02, 0x02, 0x00, 0x01, 0x02, 0x03, 0x04, 0x05,
    0x06, 0x07, 0x09, 0x00, 0x00, 0x18, 0x32, 0x02, 0x00, 0x01, 0x00, 0x50,
    0x07, 0x00, 0x7f, 0x00, 0x00, 0x18, 0x32, 0x02, 0x00, 0x01, 0x00, 0x50,
    0x07, 0x00, 0x7f, 0x00, 0x00, 0x18, 0x32, 0x02, 0x00, 0x01, 0x00, 0x50,
    0x07, 0x00, 0x7f, 0x00, 0x00, 0x18, 0x32, 0x02, 0x00, 0x01, 0x00, 0x50,
    0x07, 0x00, 0x7f, 0x00, 0x00, 0x18, 0x32, 0x02, 0x00, 0x01, 0x00, 0x50,
    0x07, 0x00, 0x7f, 0x00, 0x00, 0x18, 0x32, 0x02, 0x00, 0x01, 0x00, 0x50,
    0x07, 0x00, 0x7f, 0x00, 0x00, 0x18, 0x32, 0x02, 0x00, 0x01, 0x00, 0x50,
    0x07, 0x00, 0x7f, 0x00, 0x00, 0x18, 0x32, 0x02, 0x00, 0x01, 0x00, 0x50,
    0x07, 0x00, 0x7f, 0x50, 0x72, 0xf7, 0x55, 0xf0, 0x82, 0x09, 0x41, 0x10,
    0x16, 0x12, 0x06, 0x32, 0x00, 0x7f, 0x7f, 0x7f, 0x7f, 0x7f, 0x7f, 0x7f,
    0x7f, 0x7f, 0x7f, 0x02, 0x03, 0x04, 0x08, 0x04, 0x04, 0x03, 0x03, 0x03,
    0x03, 0x02, 0x02, 0x00, 0x01, 0x02, 0x03, 0x04, 0x05, 0x06, 0x07, 0x09,
    0x00, 0x00, 0x18, 0x32, 0x02, 0x00, 0x01, 0x00, 0x50, 0x07, 0x00, 0x7f,
    0x00, 0x00, 0x18, 0x32, 0x02, 0x00, 0x01, 0x00, 0x50, 0x07, 0x00, 0x7f,
    0x00, 0x00, 0x18, 0x32, 0x02, 0x00, 0x01, 0x00, 0x50, 0x07, 0x00, 0x7f,
    0x00, 0x00, 0x18, 0x32, 0x02, 0x00, 0x01, 0x00, 0x50, 0x07, 0x00, 0x7f,
    0x00, 0x00, 0x18, 0x32, 0x02, 0x00, 0x01, 0x00, 0x50, 0x07, 0x00, 0x7f,
    0x00, 0x00, 0x18, 0x32, 0x02, 0x00, 0x01, 0x00, 0x50, 0x07, 0x00, 0x7f,
    0x00, 0x00, 0x18, 0x32, 0x02, 0x00, 0x01, 0x00, 0x50, 0x07, 0x00, 0x7f,
    0x00, 0x00, 0x18, 0x32, 0x02, 0x00, 0x01, 0x00, 0x50, 0x07, 0x00, 0x7f,
    0x50, 0x7f, 0x7f, 0x7f, 0x7f, 0x7f, 0x7f, 0x7f, 0x7f, 0x7f, 0x7f, 0x02,
    0x03, 0x04, 0x08, 0x04, 0x04, 0x03, 0x03, 0x03, 0x03, 0x02, 0x02, 0x00,
    0x01, 0x02, 0x03, 0x04, 0x05, 0x06, 0x07, 0x09, 0x00, 0x00, 0x18, 0x32,
    0x02, 0x00, 0x01, 0x00, 0x50, 0x07, 0x00, 0x7f, 0x00, 0x00, 0x18, 0x32,
    0x02, 0x00, 0x01, 0x00, 0x50, 0x07, 0x00, 0x7f, 0x00, 0x00, 0x18, 0x32,
    0x02, 0x00, 0x01, 0x00, 0x50, 0x07, 0x00, 0x7f, 0x00, 0x00, 0x18, 0x32,
    0x02, 0x00, 0x01, 0x00, 0x50, 0x07, 0x00, 0x7f, 0x00, 0x00, 0x18, 0x32,
    0x02, 0x00, 0x01, 0x00, 0x50, 0x07, 0x00, 0x7f, 0x00, 0x00, 0x18, 0x32,
    0x02, 0x00, 0x01, 0x00, 0x50, 0x07, 0x00, 0x7f, 0x00, 0x00, 0x18, 0x32,
    0x02, 0x00, 0x01, 0x00, 0x50, 0x07, 0x00, 0x7f, 0x00, 0x00, 0x18, 0x32,
    0x02, 0x00, 0x01, 0x00, 0x50, 0x07, 0x00, 0x7f, 0x50, 0x70, 0xf7, 0x55,
    0xf0, 0x82, 0x09, 0x41, 0x10, 0x16, 0x12, 0x06, 0x34, 0x00, 0x7f, 0x7f,
    0x7f, 0x7f, 0x7f, 0x7f, 0x7f, 0x7f, 0x7f, 0x7f, 0x02, 0x03, 0x04, 0x08,
    0x04, 0x04, 0x03, 0x03, 0x03, 0x03, 0x02, 0x02, 0x00, 0x01, 0x02, 0x03,
    0x04, 0x05, 0x06, 0x07, 0x09, 0x00, 0x00, 0x18, 0x32, 0x02, 0x00, 0x01,
    0x00, 0x50, 0x07, 0x00, 0x7f, 0x00, 0x00, 0x18, 0x32, 0x02, 0x00, 0x01,
    0x00, 0x50, 0x07, 0x00, 0x7f, 0x00, 0x00, 0x18, 0x32, 0x02, 0x00, 0x01,
    0x00, 0x50, 0x07, 0x00, 0x7f, 0x00, 0x00, 0x18, 0x32, 0x02, 0x00, 0x01,
    0x00, 0x50, 0x07, 0x00, 0x7f, 0x00, 0x00, 0x18, 0x32, 0x02, 0x00, 0x01,
    0x00, 0x50, 0x07, 0x00, 0x7f, 0x00, 0x00, 0x18, 0x32, 0x02, 0x00, 0x01,
    0x00, 0x50, 0x07, 0x00, 0x7f, 0x00, 0x00, 0x18, 0x32, 0x02, 0x00, 0x01,
    0x00, 0x50, 0x07, 0x00, 0x7f, 0x00, 0x00, 0x18, 0x32, 0x02, 0x00, 0x01,
    0x00, 0x50, 0x07, 0x00, 0x7f, 0x50, 0x7f, 0x7f, 0x7f, 0x7f, 0x7f, 0x7f,
    0x7f, 0x7f, 0x7f, 0x7f, 0x02, 0x03, 0x04, 0x08, 0x04, 0x04, 0x03, 0x03,
    0x03, 0x03, 0x02, 0x02, 0x00, 0x01, 0x02, 0x03, 0x04, 0x05, 0x06, 0x07,
    0x09, 0x00, 0x00, 0x18, 0x32, 0x02, 0x00, 0x01, 0x00, 0x50, 0x07, 0x00,
    0x7f, 0x00, 0x00, 0x18, 0x32, 0x02, 0x00, 0x01, 0x00, 0x50, 0x07, 0x00,
    0x7f, 0x00, 0x00, 0x18, 0x32, 0x02, 0x00, 0x01, 0x00, 0x50, 0x07, 0x00,
    0x7f, 0x00, 0x00, 0x18, 0x32, 0x02, 0x00, 0x01, 0x00, 0x50, 0x07, 0x00,
    0x7f, 0x00, 0x00, 0x18, 0x32, 0x02, 0x00, 0x01, 0x00, 0x50, 0x07, 0x00,
    0x7f, 0x00, 0x00, 0x18, 0x32, 0x02, 0x00, 0x01, 0x00, 0x50, 0x07, 0x00,
    0x7f, 0x00, 0x00, 0x18, 0x32, 0x02, 0x00, 0x01, 0x00, 0x50, 0x07, 0x00,
    0x7f, 0x00, 0x00, 0x18, 0x32, 0x02, 0x00, 0x01, 0x00, 0x50, 0x07, 0x00,
    0x7f, 0x50, 0x6e, 0xf7, 0x55, 0xf0, 0x82, 0x09, 0x41, 0x10, 0x16, 0x12,
    0x06, 0x36, 0x00, 0x7f, 0x7f, 0x7f, 0x7f, 0x7f, 0x7f, 0x7f, 0x7f, 0x7f,
    0x7f, 0x02, 0x03, 0x04, 0x08, 0x04, 0x04, 0x03, 0x03, 0x03, 0x03, 0x02,
    0x02, 0x00, 0x01, 0x02, 0x03, 0x04, 0x05, 0x06, 0x07, 0x09, 0x00, 0x00,
    0x18, 0x32, 0x02, 0x00, 0x01, 0x00, 0x50, 0x07, 0x00, 0x7f, 0x00, 0x00,
    0x18, 0x32, 0x02, 0x00, 0x01, 0x00, 0x50, 0x07, 0x00, 0x7f, 0x00, 0x00,
    0x18, 0x32, 0x02, 0x00, 0x01, 0x00, 0x50, 0x07, 0x00, 0x7f, 0x00, 0x00,
    0x18, 0x32, 0x02, 0x00, 0x01, 0x00, 0x50, 0x07, 0x00, 0x7f, 0x00, 0x00,
    0x18, 0x32, 0x02, 0x00, 0x01, 0x00, 0x50, 0x07, 0x00, 0x7f, 0x00, 0x00,
    0x18, 0x32, 0x02, 0x00, 0x01, 0x00, 0x50, 0x07, 0x00, 0x7f, 0x00, 0x00,
    0x18, 0x32, 0x02, 0x00, 0x01, 0x00, 0x50, 0x07, 0x00, 0x7f, 0x00, 0x00,
    0x18, 0x32, 0x02, 0x00, 0x01, 0x00, 0x50, 0x07, 0x00, 0x7f, 0x50, 0x7f,
    0x7f, 0x7f, 0x7f, 0x7f, 0x7f, 0x7f, 0x7f, 0x7f, 0x7f, 0x02, 0x03, 0x04,
    0x08, 0x04, 0x04, 0x03, 0x03, 0x03, 0x03, 0x02, 0x02, 0x00, 0x01, 0x02,
    0x03, 0x04, 0x05, 0x06, 0x07, 0x09, 0x00, 0x00, 0x18, 0x32, 0x02, 0x00,
    0x01, 0x00, 0x50, 0x07, 0x00, 0x7f, 0x00, 0x00, 0x18, 0x32, 0x02, 0x00,
    0x01, 0x00, 0x50, 0x07, 0x00, 0x7f, 0x00, 0x00, 0x18, 0x32, 0x02, 0x00,
    0x01, 0x00, 0x50, 0x07, 0x00, 0x7f, 0x00, 0x00, 0x18, 0x32, 0x02, 0x00,
    0x01, 0x00, 0x50, 0x07, 0x00, 0x7f, 0x00, 0x00, 0x18, 0x32, 0x02, 0x00,
    0x01, 0x00, 0x50, 0x07, 0x00, 0x7f, 0x00, 0x00, 0x18, 0x32, 0x02, 0x00,
    0x01, 0x00, 0x50, 0x07, 0x00, 0x7f, 0x00, 0x00, 0x18, 0x32, 0x02, 0x00,
    0x01, 0x00, 0x50, 0x07, 0x00, 0x7f, 0x00, 0x00, 0x18, 0x32, 0x02, 0x00,
    0x01, 0x00, 0x50, 0x07, 0x00, 0x7f, 0x50, 0x6c, 0xf7, 0x55, 0xf0, 0x82,
    0x09, 0x41, 0x10, 0x16, 0x12, 0x06, 0x38, 0x00, 0x7f, 0x7f, 0x7f, 0x7f,
    0x7f, 0x7f, 0x7f, 0x7f, 0x7f, 0x7f, 0x02, 0x03, 0x04, 0x08, 0x04, 0x04,
    0x03, 0x03, 0x03, 0x03, 0x02, 0x02, 0x00, 0x01, 0x02, 0x03, 0x04, 0x05,
    0x06, 0x07, 0x09, 0x00, 0x00, 0x18, 0x32, 0x02, 0x00, 0x01, 0x00, 0x50,
    0x07, 0x00, 0x7f, 0x00, 0x00, 0x18, 0x32, 0x02, 0x00, 0x01, 0x00, 0x50,
    0x07, 0x00, 0x7f, 0x00, 0x00, 0x18, 0x32, 0x02, 0x00, 0x01, 0x00, 0x50,
    0x07, 0x00, 0x7f, 0x00, 0x00, 0x18, 0x32, 0x02, 0x00, 0x01, 0x00, 0x50,
    0x07, 0x00, 0x7f, 0x00, 0x00, 0x18, 0x32, 0x02, 0x00, 0x01, 0x00, 0x50,
    0x07, 0x00, 0x7f, 0x00, 0x00, 0x18, 0x32, 0x02, 0x00, 0x01, 0x00, 0x50,
    0x07, 0x00, 0x7f, 0x00, 0x00, 0x18, 0x32, 0x02, 0x00, 0x01, 0x00, 0x50,
    0x07, 0x00, 0x7f, 0x00, 0x00, 0x18, 0x32, 0x02, 0x00, 0x01, 0x00, 0x50,
    0x07, 0x00, 0x7f, 0x50, 0x7f, 0x7f, 0x7f, 0x7f, 0x7f, 0x7f, 0x7f, 0x7f,
    0x7f, 0x7f, 0x02, 0x03, 0x04, 0x08, 0x04, 0x04, 0x03, 0x03, 0x03, 0x03,
    0x02, 0x02, 0x00, 0x01, 0x02, 0x03, 0x04, 0x05, 0x06, 0x07, 0x09, 0x00,
    0x00, 0x18, 0x32, 0x02, 0x00, 0x01, 0x00, 0x50, 0x07, 0x00, 0x7f, 0x00,
    0x00, 0x18, 0x32, 0x02, 0x00, 0x01, 0x00, 0x50, 0x07, 0x00, 0x7f, 0x00,
    0x00, 0x18, 0x32, 0x02, 0x00, 0x01, 0x00, 0x50, 0x07, 0x00, 0x7f, 0x00,
    0x00, 0x18, 0x32, 0x02, 0x00, 0x01, 0x00, 0x50, 0x07, 0x00, 0x7f, 0x00,
    0x00, 0x18, 0x32, 0x02, 0x00, 0x01, 0x00, 0x50, 0x07, 0x00, 0x7f, 0x00,
    0x00, 0x18, 0x32, 0x02, 0x00, 0x01, 0x00, 0x50, 0x07, 0x00, 0x7f, 0x00,
    0x00, 0x18, 0x32, 0x02, 0x00, 0x01, 0x00, 0x50, 0x07, 0x00, 0x7f, 0x00,
    0x00, 0x18, 0x32, 0x02, 0x00, 0x01, 0x00, 0x50, 0x07, 0x00, 0x7f, 0x50,
    0x6a, 0xf7, 0x55, 0xf0, 0x82, 0x09, 0x41, 0x10, 0x16, 0x12, 0x06, 0x3a,
    0x00, 0x7f, 0x7f, 0x7f, 0x7f, 0x7f, 0x7f, 0x7f, 0x7f, 0x7f, 0x7f, 0x02,
    0x03, 0x04, 0x08, 0x04, 0x04, 0x03, 0x03, 0x03, 0x03, 0x02, 0x02, 0x00,
    0x01, 0x02, 0x03, 0x04, 0x05, 0x06, 0x07, 0x09, 0x00, 0x00, 0x18, 0x32,
    0x02, 0x00, 0x01, 0x00, 0x50, 0x07, 0x00, 0x7f, 0x00, 0x00, 0x18, 0x32,
    0x02, 0x00, 0x01, 0x00, 0x50, 0x07, 0x00, 0x7f, 0x00, 0x00, 0x18, 0x32,
    0x02, 0x00, 0x01, 0x00, 0x50, 0x07, 0x00, 0x7f, 0x00, 0x00, 0x18, 0x32,
    0x02, 0x00, 0x01, 0x00, 0x50, 0x07, 0x00, 0x7f, 0x00, 0x00, 0x18, 0x32,
    0x02, 0x00, 0x01, 0x00, 0x50, 0x07, 0x00, 0x7f, 0x00, 0x00, 0x18, 0x32,
    0x02, 0x00, 0x01, 0x00, 0x50, 0x07, 0x00, 0x7f, 0x00, 0x00, 0x18, 0x32,
    0x02, 0x00, 0x01, 0x00, 0x50, 0x07, 0x00, 0x7f, 0x00, 0x00, 0x18, 0x32,
    0x02, 0x00, 0x01, 0x00, 0x50, 0x07, 0x00, 0x7f, 0x50, 0x7f, 0x7f, 0x7f,
    0x7f, 0x7f, 0x7f, 0x7f, 0x7f, 0x7f, 0x7f, 0x02, 0x03, 0x04, 0x08, 0x04,
    0x04, 0x03, 0x03, 0x03, 0x03, 0x02, 0x02, 0x00, 0x01, 0x02, 0x03, 0x04,
    0x05, 0x06, 0x07, 0x09, 0x00, 0x00, 0x18, 0x32, 0x02, 0x00, 0x01, 0x00,
    0x50, 0x07, 0x00, 0x7f, 0x00, 0x00, 0x18, 0x32, 0x02, 0x00, 0x01, 0x00,
    0x50, 0x07, 0x00, 0x7f, 0x00, 0x00, 0x18, 0x32, 0x02, 0x00, 0x01, 0x00,
    0x50, 0x07, 0x00, 0x7f, 0x00, 0x00, 0x18, 0x32, 0x02, 0x00, 0x01, 0x00,
    0x50, 0x07, 0x00, 0x7f, 0x00, 0x00, 0x18, 0x32, 0x02, 0x00, 0x01, 0x00,
    0x50, 0x07, 0x00, 0x7f, 0x00, 0x00, 0x18, 0x32, 0x02, 0x00, 0x01, 0x00,
    0x50, 0x07, 0x00, 0x7f, 0x00, 0x00, 0x18, 0x32, 0x02, 0x00, 0x01, 0x00,
    0x50, 0x07, 0x00, 0x7f, 0x00, 0x00, 0x18, 0x32, 0x02, 0x00, 0x01, 0x00,
    0x50, 0x07, 0x00, 0x7f, 0x50, 0x68, 0xf7, 0x55, 0xf0, 0x82, 0x09, 0x41,
    0x10, 0x16, 0x12, 0x06, 0x3c, 0x00, 0x7f, 0x7f, 0x7f, 0x7f, 0x7f, 0x7f,
    0x7f, 0x7f, 0x7f, 0x7f, 0x02, 0x03, 0x04, 0x08, 0x04, 0x04, 0x03, 0x03,
    0x03, 0x03, 0x02, 0x02, 0x00, 0x01, 0x02, 0x03, 0x04, 0x05, 0x06, 0x07,
    0x09, 0x00, 0x00, 0x18, 0x32, 0x02, 0x00, 0x01, 0x00, 0x50, 0x07, 0x00,
    0x7f, 0x00, 0x00, 0x18, 0x32, 0x02, 0x00, 0x01, 0x00, 0x50, 0x07, 0x00,
    0x7f, 0x00, 0x00, 0x18, 0x32, 0x02, 0x00, 0x01, 0x00, 0x50, 0x07, 0x00,
    0x7f, 0x00, 0x00, 0x18, 0x32, 0x02, 0x00, 0x01, 0x00, 0x50, 0x07, 0x00,
    0x7f, 0x00, 0x00, 0x18, 0x32, 0x02, 0x00, 0x01, 0x00, 0x50, 0x07, 0x00,
    0x7f, 0x00, 0x00, 0x18, 0x32, 0x02, 0x00, 0x01, 0x00, 0x50, 0x07, 0x00,
    0x7f, 0x00, 0x00, 0x18, 0x32, 0x02, 0x00, 0x01, 0x00, 0x50, 0x07, 0x00,
    0x7f, 0x00, 0x00, 0x18, 0x32, 0x02, 0x00, 0x01, 0x00, 0x50, 0x07, 0x00,
    0x7f, 0x50, 0x7f, 0x7f, 0x7f, 0x7f, 0x7f, 0x7f, 0x7f, 0x7f, 0x7f, 0x7f,
    0x02, 0x03, 0x04, 0x08, 0x04, 0x04, 0x03, 0x03, 0x03, 0x03, 0x02, 0x02,
    0x00, 0x01, 0x02, 0x03, 0x04, 0x05, 0x06, 0x07, 0x09, 0x00, 0x00, 0x18,
    0x32, 0x02, 0x00, 0x01, 0x00, 0x50, 0x07, 0x00, 0x7f, 0x00, 0x00, 0x18,
    0x32, 0x02, 0x00, 0x01, 0x00, 0x50, 0x07, 0x00, 0x7f, 0x00, 0x00, 0x18,
    0x32, 0x02, 0x00, 0x01, 0x00, 0x50, 0x07, 0x00, 0x7f, 0x00, 0x00, 0x18,
    0x32, 0x02, 0x00, 0x01, 0x00, 0x50, 0x07, 0x00, 0x7f, 0x00, 0x00, 0x18,
    0x32, 0x02, 0x00, 0x01, 0x00, 0x50, 0x07, 0x00, 0x7f, 0x00, 0x00, 0x18,
    0x32, 0x02, 0x00, 0x01, 0x00, 0x50, 0x07, 0x00, 0x7f, 0x00, 0x00, 0x18,
    0x32, 0x02, 0x00, 0x01, 0x00, 0x50, 0x07, 0x00, 0x7f, 0x00, 0x00, 0x18,
    0x32, 0x02, 0x00, 0x01, 0x00, 0x50, 0x07, 0x00, 0x7f, 0x50, 0x66, 0xf7,
    0x55, 0xf0, 0x82, 0x09, 0x41, 0x10, 0x16, 0x12, 0x06, 0x3e, 0x00, 0x7f,
    0x7f, 0x7f, 0x7f, 0x7f, 0x7f, 0x7f, 0x7f, 0x7f, 0x7f, 0x02, 0x03, 0x04,
    0x08, 0x04, 0x04, 0x03, 0x03, 0x03, 0x03, 0x02, 0x02, 0x00, 0x01, 0x02,
    0x03, 0x04, 0x05, 0x06, 0x07, 0x09, 0x00, 0x00, 0x18, 0x32, 0x02, 0x00,
    0x01, 0x00, 0x50, 0x07, 0x00, 0x7f, 0x00, 0x00, 0x18, 0x32, 0x02, 0x00,
    0x01, 0x00, 0x50, 0x07, 0x00, 0x7f, 0x00, 0x00, 0x18, 0x32, 0x02, 0x00,
    0x01, 0x00, 0x50, 0x07, 0x00, 0x7f, 0x00, 0x00, 0x18, 0x32, 0x02, 0x00,
    0x01, 0x00, 0x50, 0x07, 0x00, 0x7f, 0x00, 0x00, 0x18, 0x32, 0x02, 0x00,
    0x01, 0x00, 0x50, 0x07, 0x00, 0x7f, 0x00, 0x00, 0x18, 0x32, 0x02, 0x00,
    0x01, 0x00, 0x50, 0x07, 0x00, 0x7f, 0x00, 0x00, 0x18, 0x32, 0x02, 0x00,
    0x01, 0x00, 0x50, 0x07, 0x00, 0x7f, 0x00, 0x00, 0x18, 0x32, 0x02, 0x00,
    0x01, 0x00, 0x50, 0x07, 0x00, 0x7f, 0x50, 0x7f, 0x7f, 0x7f, 0x7f, 0x7f,
    0x7f, 0x7f, 0x7f, 0x7f, 0x7f, 0x02, 0x03, 0x04, 0x08, 0x04, 0x04, 0x03,
    0x03, 0x03, 0x03, 0x02, 0x02, 0x00, 0x01, 0x02, 0x03, 0x04, 0x05, 0x06,
    0x07, 0x09, 0x00, 0x00, 0x18, 0x32, 0x02, 0x00, 0x01, 0x00, 0x50, 0x07,
    0x00, 0x7f, 0x00, 0x00, 0x18, 0x32, 0x02, 0x00, 0x01, 0x00, 0x50, 0x07,
    0x00, 0x7f, 0x00, 0x00, 0x18, 0x32, 0x02, 0x00, 0x01, 0x00, 0x50, 0x07,
    0x00, 0x7f, 0x00, 0x00, 0x18, 0x32, 0x02, 0x00, 0x01, 0x00, 0x50, 0x07,
    0x00, 0x7f, 0x00, 0x00, 0x18, 0x32, 0x02, 0x00, 0x01, 0x00, 0x50, 0x07,
    0x00, 0x7f, 0x00, 0x00, 0x18, 0x32, 0x02, 0x00, 0x01, 0x00, 0x50, 0x07,
    0x00, 0x7f, 0x00, 0x00, 0x18, 0x32, 0x02, 0x00, 0x01, 0x00, 0x50, 0x07,
    0x00, 0x7f, 0x00, 0x00, 0x18, 0x32, 0x02, 0x00, 0x01, 0x00, 0x50, 0x07,
    0x00, 0x7f, 0x50, 0x64, 0xf7, 0x94, 0x37, 0xf0, 0x2a, 0x41, 0x10, 0x16,
    0x12, 0x10, 0x00, 0x00, 0x4a, 0x02, 0x03, 0x04, 0x08, 0x04, 0x04, 0x03,
    0x03, 0x03, 0x03, 0x02, 0x02, 0x00, 0x01, 0x02, 0x03, 0x04, 0x05, 0x06,
    0x07, 0x09, 0x64, 0x7f, 0x7f, 0x7f, 0x7f, 0x7f, 0x7f, 0x7f, 0x7f, 0x7f,
    0x7f, 0x7e, 0xf7, 0x1e, 0xf0, 0x19, 0x41, 0x10, 0x16, 0x12, 0x03, 0x00,
    0x00, 0x00, 0x00, 0x18, 0x32, 0x02, 0x00, 0x01, 0x00, 0x50, 0x07, 0x00,
    0x7f, 0x00, 0x00, 0x00, 0x00, 0x5a, 0xf7, 0x05, 0xf0, 0x19, 0x41, 0x10,
    0x16, 0x12, 0x03, 0x00, 0x10, 0x00, 0x00, 0x18, 0x32, 0x02, 0x00, 0x01,
    0x00, 0x50, 0x07, 0x00, 0x7f, 0x00, 0x00, 0x00, 0x00, 0x4a, 0xf7, 0x05,
    0xf0, 0x19, 0x41, 0x10, 0x16, 0x12, 0x03, 0x00, 0x20, 0x00, 0x00, 0x18,
    0x32, 0x02, 0x00, 0x01, 0x00, 0x50, 0x07, 0x00, 0x7f, 0x00, 0x00, 0x00,
    0x00, 0x3a, 0xf7, 0x05, 0xf0, 0x19, 0x41, 0x10, 0x16, 0x12, 0x03, 0x00,
    0x30, 0x00, 0x00, 0x18, 0x32, 0x02, 0x00, 0x01, 0x00, 0x50, 0x07, 0x00,
    0x7f, 0x00, 0x00, 0x00, 0x00, 0x2a, 0xf7, 0x05, 0xf0, 0x19, 0x41, 0x10,
    0x16, 0x12, 0x03, 0x00, 0x40, 0x00, 0x00, 0x18, 0x32, 0x02, 0x00, 0x01,
    0x00, 0x50, 0x07, 0x00, 0x7f, 0x00, 0x00, 0x00, 0x00, 0x1a, 0xf7, 0x05,
    0xf0, 0x19, 0x41, 0x10, 0x16, 0x12, 0x03, 0x00, 0x50, 0x00, 0x00, 0x18,
    0x32, 0x02, 0x00, 0x01, 0x00, 0x50, 0x07, 0x00, 0x7f, 0x00, 0x00, 0x00,
    0x00, 0x0a, 0xf7, 0x05, 0xf0, 0x19, 0x41, 0x10, 0x16, 0x12, 0x03, 0x00,
    0x60, 0x00, 0x00, 0x18, 0x32, 0x02, 0x00, 0x01, 0x00, 0x50, 0x07, 0x00,
    0x7f, 0x00, 0x00, 0x00, 0x00, 0x7a, 0xf7, 0x05, 0xf0, 0x19, 0x41, 0x10,
    0x16, 0x12, 0x03, 0x00, 0x70, 0x00, 0x00, 0x18, 0x32, 0x02, 0x00, 0x01,
    0x00, 0x50, 0x07, 0x00, 0x7f, 0x00, 0x00, 0x00, 0x00, 0x6a, 0xf7, 0x94,
    0x73, 0xf0, 0x82, 0x09, 0x41, 0x10, 0x16, 0x12, 0x05, 0x00, 0x00, 0x02,
    0x00, 0x0c, 0x32, 0x02, 0x00, 0x01, 0x00, 0x00, 0x00, 0x18, 0x32, 0x02,
    0x00, 0x01, 0x00, 0x00, 0x01, 0x18, 0x32, 0x02, 0x00, 0x01, 0x00, 0x00,
    0x07, 0x18, 0x32, 0x02, 0x00, 0x01, 0x00, 0x00, 0x03, 0x18, 0x32, 0x02,
    0x00, 0x01, 0x00, 0x00, 0x05, 0x18, 0x32, 0x02, 0x00, 0x01, 0x00, 0x00,
    0x10, 0x18, 0x32, 0x02, 0x00, 0x01, 0x00, 0x00, 0x14, 0x18, 0x32, 0x02,
    0x00, 0x01, 0x00, 0x00, 0x17, 0x0c, 0x32, 0x02, 0x00, 0x01, 0x00, 0x01,
    0x25, 0x18, 0x32, 0x02, 0x00, 0x01, 0x00, 0x02, 0x01, 0x18, 0x32, 0x02,
    0x00, 0x01, 0x00, 0x01, 0x21, 0x18, 0x32, 0x02, 0x00, 0x01, 0x00, 0x01,
    0x28, 0x18, 0x32, 0x02, 0x00, 0x01, 0x00, 0x01, 0x27, 0x18, 0x32, 0x02,
    0x00, 0x01, 0x00, 0x01, 0x26, 0x24, 0x32, 0x02, 0x00, 0x01, 0x00, 0x01,
    0x23, 0x18, 0x32, 0x02, 0x00, 0x01, 0x00, 0x00, 0x08, 0x0c, 0x32, 0x02,
    0x00, 0x01, 0x00, 0x00, 0x0b, 0x0c, 0x32, 0x02, 0x00, 0x01, 0x00, 0x00,
    0x09, 0x0c, 0x32, 0x02, 0x00, 0x01, 0x00, 0x00, 0x0c, 0x18, 0x32, 0x02,
    0x00, 0x01, 0x00, 0x02, 0x02, 0x18, 0x32, 0x02, 0x00, 0x01, 0x00, 0x00,
    0x0f, 0x18, 0x32, 0x02, 0x00, 0x01, 0x00, 0x01, 0x17, 0x18, 0x32, 0x02,
    0x00, 0x01, 0x00, 0x02, 0x03, 0x18, 0x32, 0x02, 0x00, 0x01, 0x00, 0x00,
    0x3b, 0x18, 0x32, 0x02, 0x00, 0x01, 0x00, 0x00, 0x3c, 0x18, 0x32, 0x02,
    0x00, 0x01, 0x00, 0x02, 0x04, 0x18, 0x32, 0x02, 0x00, 0x01, 0x00, 0x02,
    0x05, 0x18, 0x32, 0x02, 0x00, 0x01, 0x00, 0x02, 0x06, 0x18, 0x32, 0x02,
    0x00, 0x01, 0x00, 0x02, 0x07, 0x18, 0x32, 0x02, 0x00, 0x01, 0x00, 0x02,
    0x08, 0x18, 0x32, 0x02, 0x00, 0x01, 0x00, 0x02, 0x09, 0x18, 0x32, 0x02,
    0x00, 0x01, 0x00, 0x55, 0xf7, 0x55, 0xf0, 0x82, 0x09, 0x41, 0x10, 0x16,
    0x12, 0x05, 0x02, 0x00, 0x01, 0x00, 0x18, 0x32, 0x02, 0x00, 0x01, 0x00,
    0x01, 0x03, 0x18, 0x32, 0x02, 0x00, 0x01, 0x00, 0x01, 0x02, 0x18, 0x32,
    0x02, 0x00, 0x01, 0x00, 0x01, 0x06, 0x18, 0x32, 0x02, 0x00, 0x01, 0x00,
    0x01, 0x04, 0x18, 0x32, 0x02, 0x00, 0x01, 0x00, 0x01, 0x05, 0x18, 0x32,
    0x02, 0x00, 0x01, 0x00, 0x00, 0x1f, 0x18, 0x32, 0x02, 0x00, 0x01, 0x00,
    0x00, 0x1e, 0x18, 0x32, 0x02, 0x00, 0x01, 0x00, 0x00, 0x35, 0x18, 0x32,
    0x02, 0x00, 0x01, 0x00, 0x00, 0x34, 0x18, 0x32, 0x02, 0x00, 0x01, 0x00,
    0x00, 0x36, 0x18, 0x32, 0x02, 0x00, 0x01, 0x00, 0x00, 0x38, 0x18, 0x32,
    0x02, 0x00, 0x01, 0x00, 0x00, 0x37, 0x18, 0x32, 0x02, 0x00, 0x01, 0x00,
    0x00, 0x33, 0x18, 0x32, 0x02, 0x00, 0x01, 0x00, 0x00, 0x39, 0x18, 0x32,
    0x02, 0x00, 0x01, 0x00, 0x01, 0x30, 0x18, 0x32, 0x02, 0x00, 0x01, 0x00,
    0x00, 0x30, 0x18, 0x32, 0x02, 0x00, 0x01, 0x00, 0x02, 0x0a, 0x18, 0x32,
    0x02, 0x00, 0x01, 0x00, 0x02, 0x0b, 0x18, 0x32, 0x02, 0x00, 0x01, 0x00,
    0x02, 0x0c, 0x18, 0x32, 0x02, 0x00, 0x01, 0x00, 0x02, 0x0d, 0x18, 0x32,
    0x02, 0x00, 0x01, 0x00, 0x02, 0x0e, 0x18, 0x32, 0x02, 0x00, 0x01, 0x00,
    0x00, 0x22, 0x18, 0x32, 0x02, 0x00, 0x01, 0x00, 0x01, 0x3a, 0x0c, 0x32,
    0x02, 0x00, 0x01, 0x00, 0x01, 0x19, 0x18, 0x32, 0x02, 0x00, 0x01, 0x00,
    0x01, 0x1a, 0x18, 0x32, 0x02, 0x00, 0x01, 0x00, 0x01, 0x1e, 0x18, 0x32,
    0x02, 0x00, 0x01, 0x00, 0x01, 0x18, 0x18, 0x32, 0x02, 0x00, 0x01, 0x00,
    0x01, 0x1d, 0x18, 0x32, 0x02, 0x00, 0x01, 0x00, 0x01, 0x20, 0x24, 0x32,
    0x02, 0x00, 0x01, 0x00, 0x00, 0x18, 0x18, 0x32, 0x02, 0x00, 0x01, 0x00,
    0x00, 0x1b, 0x18, 0x32, 0x02, 0x00, 0x01, 0x00, 0x25, 0xf7, 0x55, 0xf0,
    0x82, 0x09, 0x41, 0x10, 0x16, 0x12, 0x05, 0x04, 0x00, 0x01, 0x11, 0x18,
    0x32, 0x02, 0x00, 0x01, 0x00, 0x01, 0x10, 0x18, 0x32, 0x02, 0x00, 0x01,
    0x00, 0x01, 0x0f, 0x18, 0x32, 0x02, 0x00, 0x01, 0x00, 0x01, 0x0e, 0x18,
    0x32, 0x02, 0x00, 0x01, 0x00, 0x01, 0x14, 0x18, 0x32, 0x02, 0x00, 0x01,
    0x00, 0x01, 0x15, 0x18, 0x32, 0x02, 0x00, 0x01, 0x00, 0x01, 0x16, 0x18,
    0x32, 0x02, 0x00, 0x01, 0x00, 0x01, 0x12, 0x18, 0x32, 0x02, 0x00, 0x01,
    0x00, 0x01, 0x0a, 0x18, 0x32, 0x02, 0x00, 0x01, 0x00, 0x01, 0x09, 0x18,
    0x32, 0x02, 0x00, 0x01, 0x00, 0x01, 0x0c, 0x18, 0x32, 0x02, 0x00, 0x01,
    0x00, 0x01, 0x0d, 0x18, 0x32, 0x02, 0x00, 0x01, 0x00, 0x01, 0x2e, 0x18,
    0x32, 0x02, 0x00, 0x01, 0x00, 0x01, 0x2b, 0x18, 0x32, 0x02, 0x00, 0x01,
    0x00, 0x01, 0x2c, 0x18, 0x32, 0x02, 0x00, 0x01, 0x00, 0x01, 0x13, 0x18,
    0x32, 0x02, 0x00, 0x01, 0x00, 0x00, 0x2f, 0x18, 0x32, 0x02, 0x00, 0x01,
    0x00, 0x00, 0x19, 0x18, 0x32, 0x02, 0x00, 0x01, 0x00, 0x01, 0x2f, 0x18,
    0x32, 0x02, 0x00, 0x01, 0x00, 0x00, 0x2c, 0x18, 0x32, 0x02, 0x00, 0x01,
    0x00, 0x00, 0x2a, 0x18, 0x32, 0x02, 0x00, 0x01, 0x00, 0x02, 0x0f, 0x18,
    0x32, 0x02, 0x00, 0x01, 0x00, 0x02, 0x10, 0x18, 0x32, 0x02, 0x00, 0x01,
    0x00, 0x00, 0x1c, 0x18, 0x32, 0x02, 0x00, 0x01, 0x00, 0x00, 0x20, 0x18,
    0x32, 0x02, 0x00, 0x01, 0x00, 0x02, 0x11, 0x18, 0x32, 0x02, 0x00, 0x01,
    0x00, 0x00, 0x2d, 0x18, 0x32, 0x02, 0x00, 0x01, 0x00, 0x02, 0x12, 0x18,
    0x32, 0x02, 0x00, 0x01, 0x00, 0x00, 0x23, 0x18, 0x32, 0x02, 0x00, 0x01,
    0x00, 0x00, 0x21, 0x18, 0x32, 0x02, 0x00, 0x01, 0x00, 0x02, 0x13, 0x18,
    0x32, 0x02, 0x00, 0x01, 0x00, 0x02, 0x14, 0x18, 0x32, 0x02, 0x00, 0x01,
    0x00, 0x04, 0xf7, 0x55, 0xf0, 0x82, 0x09, 0x41, 0x10, 0x16, 0x12, 0x05,
    0x06, 0x00, 0x00, 0x29, 0x18, 0x32, 0x02, 0x00, 0x01, 0x00, 0x00, 0x24,
    0x18, 0x32, 0x02, 0x00, 0x01, 0x00, 0x00, 0x2e, 0x18, 0x32, 0x02, 0x00,
    0x01, 0x00, 0x00, 0x25, 0x18, 0x32, 0x02, 0x00, 0x01, 0x00, 0x02, 0x15,
    0x18, 0x32, 0x02, 0x00, 0x01, 0x00, 0x02, 0x16, 0x18, 0x32, 0x02, 0x00,
    0x01, 0x00, 0x02, 0x22, 0x18, 0x32, 0x02, 0x00, 0x01, 0x00, 0x00, 0x2c,
    0x18, 0x32, 0x02, 0x00, 0x01, 0x00, 0x00, 0x3f, 0x18, 0x32, 0x02, 0x00,
    0x01, 0x00, 0x02, 0x17, 0x18, 0x32, 0x02, 0x00, 0x01, 0x00, 0x02, 0x18,
    0x18, 0x32, 0x02, 0x00, 0x01, 0x00, 0x01, 0x29, 0x18, 0x32, 0x02, 0x00,
    0x01, 0x00, 0x02, 0x19, 0x18, 0x32, 0x02, 0x00, 0x01, 0x00, 0x02, 0x1a,
    0x18, 0x32, 0x02, 0x00, 0x01, 0x00, 0x00, 0x35, 0x18, 0x32, 0x02, 0x00,
    0x01, 0x00, 0x01, 0x14, 0x18, 0x32, 0x02, 0x00, 0x01, 0x00, 0x02, 0x1b,
    0x18, 0x32, 0x02, 0x00, 0x01, 0x00, 0x02, 0x1c, 0x18, 0x32, 0x02, 0x00,
    0x01, 0x00, 0x02, 0x1d, 0x18, 0x32, 0x02, 0x00, 0x01, 0x00, 0x01, 0x36,
    0x18, 0x32, 0x02, 0x00, 0x01, 0x00, 0x01, 0x35, 0x18, 0x32, 0x02, 0x00,
    0x01, 0x00, 0x01, 0x31, 0x18, 0x32, 0x02, 0x00, 0x01, 0x00, 0x01, 0x34,
    0x0c, 0x32, 0x02, 0x00, 0x01, 0x00, 0x01, 0x37, 0x18, 0x32, 0x02, 0x00,
    0x01, 0x00, 0x01, 0x33, 0x18, 0x32, 0x02, 0x00, 0x01, 0x00, 0x01, 0x38,
    0x18, 0x32, 0x02, 0x00, 0x01, 0x00, 0x02, 0x1e, 0x18, 0x32, 0x02, 0x00,
    0x01, 0x00, 0x02, 0x23, 0x18, 0x32, 0x02, 0x00, 0x01, 0x00, 0x01, 0x3b,
    0x18, 0x32, 0x02, 0x00, 0x01, 0x00, 0x02, 0x1f, 0x18, 0x32, 0x02, 0x00,
    0x01, 0x00, 0x02, 0x20, 0x18, 0x32, 0x02, 0x00, 0x01, 0x00, 0x02, 0x21,
    0x18, 0x32, 0x02, 0x00, 0x01, 0x00, 0x6b, 0xf7, 0x93, 0x30, 0xf0, 0x82,
    0x09, 0x41, 0x10, 0x16, 0x12, 0x03, 0x01, 0x10, 0x7f, 0x00, 0x07, 0x00,
    0x7f, 0x00, 0x07, 0x00, 0x7f, 0x00, 0x07, 0x00, 0x7f, 0x00, 0x07, 0x00,
    0x7f, 0x00, 0x07, 0x00, 0x67, 0x64, 0x07, 0x00, 0x67, 0x64, 0x07, 0x00,
    0x4b, 0x64, 0x07, 0x00, 0x4a, 0x64, 0x07, 0x00, 0x36, 0x64, 0x07, 0x00,
    0x38, 0x64, 0x07, 0x00, 0x40, 0x64, 0x07, 0x01, 0x40, 0x64, 0x07, 0x01,
    0x4a, 0x64, 0x07, 0x01, 0x41, 0x64, 0x07, 0x01, 0x4b, 0x64, 0x09, 0x01,
    0x45, 0x64, 0x07, 0x01, 0x35, 0x64, 0x0d, 0x01, 0x46, 0x64, 0x05, 0x01,
    0x44, 0x64, 0x0d, 0x01, 0x5d, 0x64, 0x05, 0x01, 0x43, 0x64, 0x07, 0x01,
    0x47, 0x64, 0x05, 0x01, 0x34, 0x64, 0x07, 0x01, 0x42, 0x64, 0x03, 0x01,
    0x48, 0x64, 0x05, 0x01, 0x33, 0x64, 0x03, 0x01, 0x49, 0x64, 0x0b, 0x01,
    0x3f, 0x64, 0x0d, 0x00, 0x3e, 0x64, 0x0b, 0x00, 0x56, 0x64, 0x0b, 0x01,
    0x3d, 0x64, 0x07, 0x00, 0x4c, 0x64, 0x09, 0x01, 0x3c, 0x64, 0x05, 0x00,
    0x5c, 0x64, 0x07, 0x00, 0x3b, 0x64, 0x0b, 0x00, 0x52, 0x64, 0x03, 0x01,
    0x53, 0x64, 0x05, 0x01, 0x4d, 0x64, 0x09, 0x01, 0x4e, 0x64, 0x09, 0x01,
    0x4f, 0x64, 0x0b, 0x01, 0x50, 0x64, 0x05, 0x01, 0x51, 0x64, 0x03, 0x01,
    0x54, 0x64, 0x0b, 0x01, 0x55, 0x64, 0x0b, 0x01, 0x5b, 0x64, 0x09, 0x01,
    0x58, 0x64, 0x05, 0x01, 0x5a, 0x64, 0x09, 0x01, 0x59, 0x64, 0x09, 0x01,
    0x3a, 0x64, 0x0b, 0x01, 0x5b, 0x64, 0x0b, 0x00, 0x57, 0x64, 0x0d, 0x01,
    0x36, 0x64, 0x07, 0x01, 0x37, 0x64, 0x07, 0x01, 0x30, 0x64, 0x03, 0x01,
    0x31, 0x64, 0x05, 0x01, 0x38, 0x64, 0x04, 0x01, 0x39, 0x64, 0x04, 0x01,
    0x3a, 0x64, 0x0e, 0x01, 0x32, 0x64, 0x05, 0x01, 0x40, 0x64, 0x07, 0x01,
    0x31, 0x64, 0x07, 0x01, 0x41, 0x64, 0x07, 0x01, 0x30, 0x64, 0x07, 0x01,
    0x21, 0xf7, 0x55, 0xf0, 0x5d, 0x41, 0x10, 0x16, 0x12, 0x03, 0x03, 0x10,
    0x45, 0x64, 0x07, 0x01, 0x35, 0x64, 0x0b, 0x01, 0x5d, 0x64, 0x05, 0x01,
    0x34, 0x64, 0x03, 0x01, 0x3c, 0x64, 0x05, 0x01, 0x33, 0x64, 0x09, 0x01,
    0x3b, 0x64, 0x0b, 0x01, 0x60, 0x64, 0x05, 0x01, 0x68, 0x64, 0x07, 0x01,
    0x7f, 0x64, 0x07, 0x01, 0x7f, 0x64, 0x07, 0x01, 0x7f, 0x64, 0x07, 0x01,
    0x7f, 0x64, 0x07, 0x01, 0x7f, 0x64, 0x07, 0x01, 0x7f, 0x64, 0x07, 0x01,
    0x7f, 0x64, 0x07, 0x01, 0x7f, 0x64, 0x07, 0x01, 0x7f, 0x64, 0x07, 0x01,
    0x7f, 0x64, 0x07, 0x01, 0x7f, 0x64, 0x07, 0x01, 0x7f, 0x64, 0x07, 0x01,
    0x1d, 0xf7, 0x90, 0x2f, 0xff, 0x2f, 0x00
}; // mtgm

// The MTR_* setup files are alternate drum sets which correspond to some of the GM Format sets. MTR_STND is the General MIDI Standard Drum Kit.

static const U8 mt32_stnd[403]={
    0x4d, 0x54, 0x68, 0x64, 0x00, 0x00, 0x00, 0x06, 0x00, 0x00, 0x00, 0x01,
    0x00, 0xc0, 0x4d, 0x54, 0x72, 0x6b, 0x00, 0x00, 0x01, 0x7d, 0x00, 0xff,
    0x01, 0x08, 0x4c, 0x20, 0x52, 0x50, 0x41, 0x52, 0x54, 0x31, 0x76, 0xf0,
    0x82, 0x09, 0x41, 0x10, 0x16, 0x12, 0x03, 0x01, 0x10, 0x7f, 0x00, 0x07,
    0x00, 0x7f, 0x00, 0x07, 0x00, 0x7f, 0x00, 0x07, 0x00, 0x7f, 0x00, 0x07,
    0x00, 0x7f, 0x00, 0x07, 0x00, 0x67, 0x64, 0x07, 0x00, 0x67, 0x64, 0x07,
    0x00, 0x4b, 0x64, 0x07, 0x00, 0x4a, 0x64, 0x07, 0x00, 0x36, 0x64, 0x07,
    0x00, 0x38, 0x64, 0x07, 0x00, 0x40, 0x64, 0x07, 0x01, 0x40, 0x64, 0x07,
    0x01, 0x4a, 0x64, 0x07, 0x01, 0x41, 0x64, 0x07, 0x01, 0x4b, 0x64, 0x09,
    0x01, 0x45, 0x64, 0x07, 0x01, 0x35, 0x64, 0x0d, 0x01, 0x46, 0x64, 0x05,
    0x01, 0x44, 0x64, 0x0d, 0x01, 0x5d, 0x64, 0x05, 0x01, 0x43, 0x64, 0x07,
    0x01, 0x47, 0x64, 0x05, 0x01, 0x34, 0x64, 0x07, 0x01, 0x42, 0x64, 0x03,
    0x01, 0x48, 0x64, 0x05, 0x01, 0x33, 0x64, 0x03, 0x01, 0x49, 0x64, 0x0b,
    0x01, 0x3f, 0x64, 0x0d, 0x00, 0x3e, 0x64, 0x0b, 0x00, 0x56, 0x64, 0x0b,
    0x01, 0x3d, 0x64, 0x07, 0x00, 0x4c, 0x64, 0x09, 0x01, 0x3c, 0x64, 0x05,
    0x00, 0x5c, 0x64, 0x07, 0x00, 0x3b, 0x64, 0x0b, 0x00, 0x52, 0x64, 0x03,
    0x01, 0x53, 0x64, 0x05, 0x01, 0x4d, 0x64, 0x09, 0x01, 0x4e, 0x64, 0x09,
    0x01, 0x4f, 0x64, 0x0b, 0x01, 0x50, 0x64, 0x05, 0x01, 0x51, 0x64, 0x03,
    0x01, 0x54, 0x64, 0x0b, 0x01, 0x55, 0x64, 0x0b, 0x01, 0x5b, 0x64, 0x09,
    0x01, 0x58, 0x64, 0x05, 0x01, 0x5a, 0x64, 0x09, 0x01, 0x59, 0x64, 0x09,
    0x01, 0x3a, 0x64, 0x0b, 0x01, 0x5b, 0x64, 0x0b, 0x00, 0x57, 0x64, 0x0d,
    0x01, 0x36, 0x64, 0x07, 0x01, 0x37, 0x64, 0x07, 0x01, 0x30, 0x64, 0x03,
    0x01, 0x31, 0x64, 0x05, 0x01, 0x38, 0x64, 0x04, 0x01, 0x39, 0x64, 0x04,
    0x01, 0x3a, 0x64, 0x0e, 0x01, 0x32, 0x64, 0x05, 0x01, 0x40, 0x64, 0x07,
    0x01, 0x31, 0x64, 0x07, 0x01, 0x41, 0x64, 0x07, 0x01, 0x30, 0x64, 0x07,
    0x01, 0x21, 0xf7, 0x22, 0xf0, 0x5d, 0x41, 0x10, 0x16, 0x12, 0x03, 0x03,
    0x10, 0x45, 0x64, 0x07, 0x01, 0x35, 0x64, 0x0b, 0x01, 0x5d, 0x64, 0x05,
    0x01, 0x34, 0x64, 0x03, 0x01, 0x3c, 0x64, 0x05, 0x01, 0x33, 0x64, 0x09,
    0x01, 0x3b, 0x64, 0x0b, 0x01, 0x60, 0x64, 0x05, 0x01, 0x68, 0x64, 0x07,
    0x01, 0x7f, 0x64, 0x07, 0x01, 0x7f, 0x64, 0x07, 0x01, 0x7f, 0x64, 0x07,
    0x01, 0x7f, 0x64, 0x07, 0x01, 0x7f, 0x64, 0x07, 0x01, 0x7f, 0x64, 0x07,
    0x01, 0x7f, 0x64, 0x07, 0x01, 0x7f, 0x64, 0x07, 0x01, 0x7f, 0x64, 0x07,
    0x01, 0x7f, 0x64, 0x07, 0x01, 0x7f, 0x64, 0x07, 0x01, 0x7f, 0x64, 0x07,
    0x01, 0x1d, 0xf7, 0x00, 0xff, 0x2f, 0x00
}; // mt32_stnd


static const U8 mt32_orch[403]={
    0x4d, 0x54, 0x68, 0x64, 0x00, 0x00, 0x00, 0x06, 0x00, 0x00, 0x00, 0x01,
    0x00, 0xc0, 0x4d, 0x54, 0x72, 0x6b, 0x00, 0x00, 0x01, 0x7d, 0x00, 0xff,
    0x01, 0x08, 0x4c, 0x20, 0x52, 0x50, 0x41, 0x52, 0x54, 0x32, 0x56, 0xf0,
    0x82, 0x09, 0x41, 0x10, 0x16, 0x12, 0x03, 0x01, 0x10, 0x7f, 0x00, 0x07,
    0x00, 0x7f, 0x00, 0x07, 0x00, 0x7f, 0x00, 0x07, 0x00, 0x46, 0x64, 0x07,
    0x00, 0x5d, 0x64, 0x07, 0x00, 0x47, 0x64, 0x07, 0x00, 0x49, 0x64, 0x07,
    0x00, 0x37, 0x64, 0x07, 0x00, 0x30, 0x64, 0x07, 0x00, 0x37, 0x64, 0x07,
    0x00, 0x38, 0x64, 0x07, 0x00, 0x2b, 0x64, 0x07, 0x01, 0x2b, 0x64, 0x07,
    0x01, 0x30, 0x64, 0x07, 0x01, 0x2c, 0x64, 0x07, 0x01, 0x4b, 0x64, 0x09,
    0x01, 0x2c, 0x64, 0x07, 0x01, 0x2f, 0x64, 0x07, 0x01, 0x2f, 0x64, 0x07,
    0x01, 0x2f, 0x64, 0x07, 0x01, 0x2f, 0x64, 0x07, 0x01, 0x2f, 0x64, 0x07,
    0x01, 0x2f, 0x64, 0x07, 0x01, 0x2f, 0x64, 0x07, 0x01, 0x2f, 0x64, 0x07,
    0x01, 0x2f, 0x64, 0x07, 0x01, 0x2f, 0x64, 0x07, 0x01, 0x2f, 0x64, 0x07,
    0x01, 0x2f, 0x64, 0x07, 0x00, 0x2f, 0x64, 0x07, 0x00, 0x56, 0x64, 0x0b,
    0x01, 0x3d, 0x64, 0x07, 0x00, 0x4c, 0x64, 0x09, 0x01, 0x2e, 0x64, 0x05,
    0x00, 0x5c, 0x64, 0x07, 0x00, 0x2d, 0x64, 0x0b, 0x00, 0x52, 0x64, 0x03,
    0x01, 0x53, 0x64, 0x05, 0x01, 0x4d, 0x64, 0x09, 0x01, 0x4e, 0x64, 0x09,
    0x01, 0x4f, 0x64, 0x0b, 0x01, 0x50, 0x64, 0x05, 0x01, 0x51, 0x64, 0x03,
    0x01, 0x54, 0x64, 0x0b, 0x01, 0x55, 0x64, 0x0b, 0x01, 0x5b, 0x64, 0x09,
    0x01, 0x58, 0x64, 0x05, 0x01, 0x5a, 0x64, 0x09, 0x01, 0x59, 0x64, 0x09,
    0x01, 0x3a, 0x64, 0x0b, 0x01, 0x5b, 0x64, 0x0b, 0x00, 0x57, 0x64, 0x0d,
    0x01, 0x36, 0x64, 0x07, 0x01, 0x37, 0x64, 0x07, 0x01, 0x30, 0x64, 0x03,
    0x01, 0x31, 0x64, 0x05, 0x01, 0x38, 0x64, 0x04, 0x01, 0x39, 0x64, 0x04,
    0x01, 0x3a, 0x64, 0x0e, 0x01, 0x32, 0x64, 0x05, 0x01, 0x40, 0x64, 0x07,
    0x01, 0x31, 0x64, 0x07, 0x01, 0x41, 0x64, 0x07, 0x01, 0x30, 0x64, 0x07,
    0x01, 0x31, 0xf7, 0x1e, 0xf0, 0x5d, 0x41, 0x10, 0x16, 0x12, 0x03, 0x03,
    0x10, 0x20, 0x64, 0x07, 0x01, 0x35, 0x64, 0x0b, 0x01, 0x5d, 0x64, 0x05,
    0x01, 0x34, 0x64, 0x03, 0x01, 0x3c, 0x64, 0x05, 0x01, 0x33, 0x64, 0x09,
    0x01, 0x3b, 0x64, 0x0b, 0x01, 0x60, 0x64, 0x05, 0x01, 0x68, 0x64, 0x07,
    0x01, 0x7f, 0x64, 0x07, 0x01, 0x7f, 0x64, 0x07, 0x01, 0x7f, 0x64, 0x07,
    0x01, 0x7f, 0x64, 0x07, 0x01, 0x7f, 0x64, 0x07, 0x01, 0x7f, 0x64, 0x07,
    0x01, 0x7f, 0x64, 0x07, 0x01, 0x7f, 0x64, 0x07, 0x01, 0x7f, 0x64, 0x07,
    0x01, 0x7f, 0x64, 0x07, 0x01, 0x7f, 0x64, 0x07, 0x01, 0x7f, 0x64, 0x07,
    0x01, 0x42, 0xf7, 0x00, 0xff, 0x2f, 0x00
}; // mt32_orch


static const U8 cm32_sfx[404]={
    0x4d, 0x54, 0x68, 0x64, 0x00, 0x00, 0x00, 0x06, 0x00, 0x00, 0x00, 0x01,
    0x00, 0xc0, 0x4d, 0x54, 0x72, 0x6b, 0x00, 0x00, 0x01, 0x7e, 0x00, 0xff,
    0x01, 0x08, 0x4c, 0x20, 0x52, 0x50, 0x41, 0x52, 0x54, 0x36, 0x81, 0x1a,
    0xf0, 0x82, 0x09, 0x41, 0x10, 0x16, 0x12, 0x03, 0x01, 0x10, 0x7f, 0x00,
    0x07, 0x00, 0x7f, 0x00, 0x07, 0x00, 0x7f, 0x00, 0x07, 0x00, 0x7f, 0x00,
    0x07, 0x00, 0x7f, 0x00, 0x07, 0x00, 0x7f, 0x00, 0x07, 0x00, 0x7f, 0x00,
    0x07, 0x00, 0x7f, 0x00, 0x07, 0x00, 0x7f, 0x00, 0x07, 0x00, 0x7f, 0x00,
    0x07, 0x00, 0x7f, 0x00, 0x07, 0x00, 0x7f, 0x00, 0x07, 0x01, 0x7f, 0x00,
    0x07, 0x01, 0x7f, 0x00, 0x07, 0x01, 0x7f, 0x00, 0x07, 0x01, 0x7f, 0x00,
    0x07, 0x01, 0x7f, 0x00, 0x07, 0x01, 0x67, 0x64, 0x07, 0x01, 0x67, 0x64,
    0x07, 0x01, 0x36, 0x64, 0x07, 0x01, 0x4b, 0x64, 0x07, 0x01, 0x37, 0x64,
    0x07, 0x01, 0x38, 0x64, 0x07, 0x01, 0x7f, 0x00, 0x07, 0x01, 0x7f, 0x00,
    0x07, 0x01, 0x7f, 0x00, 0x07, 0x01, 0x7f, 0x00, 0x07, 0x01, 0x7f, 0x00,
    0x07, 0x01, 0x5e, 0x64, 0x07, 0x00, 0x5f, 0x64, 0x07, 0x00, 0x60, 0x64,
    0x07, 0x01, 0x61, 0x64, 0x07, 0x00, 0x62, 0x64, 0x07, 0x01, 0x63, 0x64,
    0x07, 0x00, 0x64, 0x64, 0x07, 0x00, 0x65, 0x64, 0x07, 0x00, 0x66, 0x64,
    0x07, 0x01, 0x67, 0x64, 0x07, 0x01, 0x68, 0x64, 0x07, 0x01, 0x69, 0x64,
    0x07, 0x01, 0x6a, 0x64, 0x07, 0x01, 0x6b, 0x64, 0x07, 0x01, 0x6c, 0x64,
    0x07, 0x01, 0x6d, 0x64, 0x07, 0x01, 0x6e, 0x64, 0x07, 0x01, 0x6f, 0x64,
    0x07, 0x01, 0x70, 0x64, 0x07, 0x01, 0x71, 0x64, 0x07, 0x01, 0x72, 0x64,
    0x07, 0x01, 0x73, 0x64, 0x07, 0x01, 0x74, 0x64, 0x07, 0x00, 0x75, 0x64,
    0x07, 0x01, 0x76, 0x64, 0x07, 0x01, 0x77, 0x64, 0x07, 0x01, 0x78, 0x64,
    0x07, 0x01, 0x79, 0x64, 0x07, 0x01, 0x7a, 0x64, 0x07, 0x01, 0x7b, 0x64,
    0x07, 0x01, 0x7c, 0x64, 0x07, 0x01, 0x7d, 0x64, 0x07, 0x01, 0x7e, 0x64,
    0x07, 0x01, 0x7f, 0x00, 0x07, 0x01, 0x7f, 0x00, 0x07, 0x01, 0x7f, 0x00,
    0x07, 0x01, 0x6f, 0xf7, 0x1e, 0xf0, 0x5d, 0x41, 0x10, 0x16, 0x12, 0x03,
    0x03, 0x10, 0x7f, 0x00, 0x07, 0x01, 0x7f, 0x00, 0x07, 0x01, 0x7f, 0x00,
    0x07, 0x01, 0x7f, 0x00, 0x07, 0x01, 0x7f, 0x00, 0x07, 0x01, 0x7f, 0x00,
    0x07, 0x01, 0x7f, 0x00, 0x07, 0x01, 0x7f, 0x00, 0x07, 0x01, 0x7f, 0x00,
    0x07, 0x01, 0x7f, 0x00, 0x07, 0x01, 0x7f, 0x00, 0x07, 0x01, 0x7f, 0x00,
    0x07, 0x01, 0x7f, 0x00, 0x07, 0x01, 0x7f, 0x00, 0x07, 0x01, 0x7f, 0x00,
    0x07, 0x01, 0x7f, 0x00, 0x07, 0x01, 0x7f, 0x00, 0x07, 0x01, 0x7f, 0x00,
    0x07, 0x01, 0x7f, 0x00, 0x07, 0x01, 0x7f, 0x00, 0x07, 0x01, 0x7f, 0x00,
    0x07, 0x01, 0x57, 0xf7, 0x00, 0xff, 0x2f, 0x00
}; // cm32_sfx

// end of Roland patches

/**
* instruments can be assigned to 1-8 part (channel 2-9, can be remmaped to channel 1-8)
*/

const U8 *arCM32Linstruments[]={
"AcouPiano 1",
"AcouPiano 2",
"AcouPiano 3",
"ElecPiano 1",
"ElecPiano 2",
"ElecPiano 3",
"ElecPiano 4",
"Honkytonk",
"Elec Org 1",
"Elec Org 2",
"Elec Org 3",
"Elec Org 4",
"Pipe Org 1",
"Pipe Org 2",
"Pipe Org 3",
"Accordion",
"Harpsi 1",
"Harpsi 2",
"Harpsi 3",
"Clavi 1",
"Clavi 2",
"Clavi 3",
"Celesta 1",
"Celesta 2",
"SynBrass 1",
"SynBrass 2",
"SynBrass 3",
"SynBrass 4",
"Syn Bass 1",
"Syn Bass 2",
"Syn Bass 3",
"Syn Bass 4",
"Fantasy",
"Harmo Pan",
"Chorale",
"Glasses",
"Sountrack",
"Atmosphere",
"Warm Bell",
"Funny Vox",
"Echo Bell",
"Ice Rain",
"Oboe 2001",
"Echo Pan",
"DoctorSolo",
"Schooldaze",
"Bellsinger",
"SquareWave",
"Str Sect 1",
"Str Sect 2",
"Str Sect 3",
"Pizzicato",
"Violin 1",
"Violin 2",
"Cello 1",
"Cello 2",
"Contrabass",
"Harp 1",
"Harp 2",
"Guitar 1",
"Guitar 2",
"Elec Gtr 1",
"Elec Gtr 2",
"Sitar",
"AcouBass 1",
"AcouBass 2",
"ElecBass 1",
"ElecBass 2",
"SlapBass 1",
"SlapBass 2",
"Fretless 1",
"Fretless 2",
"Flute 1",
"Flute 2",
"Piccolo 1",
"Piccolo 2",
"Recorder",
"Pan Pipes",
"Sax 1",
"Sax 2",
"Sax 3",
"Sax 4",
"Clarinet 1",
"Clarinet 2",
"Oboe",
"Engl Horn",
"Bassoon",
"Harmonica",
"Trumpet 1",
"Trumpet 2",
"Trombone 1",
"Trombone 2",
"Fr Horn 1",
"Fr Horn 2",
"Tuba",
"Brs Sect 1",
"Brs Sect 2",
"Vibe 1",
"Vibe 2",
"Syn Mallet",
"Windbell",
"Glock",
"Tube Bell",
"Xylophone",
"Marimba",
"Koto",
"Sho",
"Shakuhachi",
"Whistle 1",
"Whistle 2",
"Bottleblow",
"BreathPipe",
"Timpani",
"MelodicTom",
"Deep Snare",
"ElecPerc 1",
"ElecPerc 2",
"Taiko",
"Taiko Rim",
"Cymbal",
"Castanets",
"Triangle",
"Orche Hit",
"Telephone",
"Bird Tweet",
"OneNoteJam",
"WaterBells",
"JungleTune"
};

/** 
* drumset like in MT-32, but with additional sfx *only* for part 10 (channel 11)
* the mapping is key note -> sound, program number 128 
*/

const U8 *arCM32Lrhythm[]={
"00 [no sound]",
"01 [no sound]",
"02 [no sound]",
"03 [no sound]",
"04 [no sound]",
"05 [no sound]",
"06 [no sound]",
"07 [no sound]",
"08 [no sound]",
"09 [no sound]",
"0A [no sound]",
"0B [no sound]",
"0C [no sound]",
"0D [no sound]",
"0E [no sound]",
"0F [no sound]",
"10 [no sound]",
"11 [no sound]",
"12 [no sound]",
"13 [no sound]",
"14 [no sound]",
"15 [no sound]",
"16 [no sound]",
"17 [no sound]",
"18 [no sound]",
"19 [no sound]",
"1A [no sound]",
"1B [no sound]",
"1C [no sound]",
"1D [no sound]",
"1E [no sound]",
"1F [no sound]",
"20 [no sound]",
"21 [no sound]",
"22 [no sound]",
"Acoustic Bass Drum",
"Acoustic Bass Drum",
"Rim Shot",
"Acoustic Snare Drum",
"Hand Clap",
"Electronic Snare Drum",
"Acoustic Low Tom",
"Closed High Hat",
"Acoustic Low Tom",
"Open High Hat 2",
"Acoustic Middle Tom",
"Open High Hat 1",
"Acoustic Middle Tom",
"Acoustic High Tom",
"Crash Cymbal",
"Acoustic High Tom",
"Ride Cymbal",
"34 [no sound]",
"35 [no sound]",
"Tambourine",
"37 [no sound]",
"Cowbell",
"39 [no sound]",
"3A [no sound]",
"3B [no sound]",
"High Bongo",
"Low Bongo",
"Mute High Conga",
"High Conga",
"Low Conga",
"High Timbale",
"Low Timbale",
"High Agogo",
"Low Agogo",
"Cabasa",
"Maracas",
"Short Whistle",
"Long Whistle",
"Quijada",
"4A [no sound]",
"Claves",
"Laughing",
"Screaming",
"Punch",
"Heartbeat",
"Footsteps1",
"Footsteps2",
"Applause",
"Creaking",
"Door",
"Scratch",
"Windchime",
"Engine",
"Car-stop",
"Car-pass",
"Crash",
"Siren",
"Train",
"Jet",
"Helicopter",
"Starship",
"Pistol",
"Machinegun",
"Lasergun",
"Explosion",
"Dog",
"Horse",
"Birds",
"Rain",
"Thunder",
"Wind",
"Waves",
"Stream",
"Bubble",
"6D [no sound]",
"6E [no sound]",
"6F [no sound]",
"70 [no sound]",
"71 [no sound]",
"72 [no sound]",
"73 [no sound]",
"74 [no sound]",
"75 [no sound]",
"76 [no sound]",
"77 [no sound]",
"78 [no sound]",
"79 [no sound]",
"7A [no sound]",
"7B [no sound]",
"7C [no sound]",
"7D [no sound]",
"7E [no sound]",
"7F [no sound]"
};


// program number #57
const U8 *arCM500sfx[]={
"0 [no sound]",
"1 [no sound]",
"2 [no sound]",
"3 [no sound]",
"4 [no sound]",
"5 [no sound]",
"6 [no sound]",
"7 [no sound]",
"8 [no sound]",
"9 [no sound]",
"10 [no sound]",
"11 [no sound]",
"12 [no sound]",
"13 [no sound]",
"14 [no sound]",
"15 [no sound]",
"16 [no sound]",
"17 [no sound]",
"18 [no sound]",
"19 [no sound]",
"20 [no sound]",
"21 [no sound]",
"22 [no sound]",
"23 [no sound]",
"24 [no sound]",
"25 [no sound]",
"26 [no sound]",
"27 [no sound]",
"28 [no sound]",
"29 [no sound]",
"30 [no sound]",
"31 [no sound]",
"32 [no sound]",
"33 [no sound]",
"34 [no sound]",
"35 [no sound]",
"36 [no sound]",
"37 [no sound]",
"38 [no sound]",
"High Q",
"Slap",
"Scratch Push",
"Scrach Pull",
"Sticks",
"Square Click",
"Metronome Click",
"Metronome Bell",
"Guitar sliding finger",
"Guitar cutting noise (down)",
"Guitar cutting noise (up)",
"String slap of double bass",
"Fl. Key Click",
"Laughing",
"Screaming",
"Punch",
"Heart Beat",
"Footsteps 1",
"Footsteps 2",
"Applause",
"Door Creaking",
"Door",
"Scratch",
"Windchime",
"Car-Engine",
"Car-Stop",
"Car-Pass",
"Car-Crash",
"Siren",
"Train",
"Jetplane",
"Helicopter",
"Starship",
"Gun Shot",
"Machine Gun",
"Lasergun",
"Explosion",
"Dog",
"Horse-Gallop",
"Birds",
"Rain",
"Thunder",
"Wind",
"Seashore",
"Stream",
"Bubble",
"85 [no sound]",
"86 [no sound]",
"87 [no sound]",
"88 [no sound]",
"89 [no sound]",
"90 [no sound]",
"91 [no sound]",
"92 [no sound]",
"93 [no sound]",
"94 [no sound]",
"95 [no sound]",
"96 [no sound]",
"97 [no sound]",
"98 [no sound]",
"99 [no sound]",
"100 [no sound]",
"101 [no sound]",
"102 [no sound]",
"103 [no sound]",
"104 [no sound]",
"105 [no sound]",
"106 [no sound]",
"107 [no sound]",
"108 [no sound]",
"109 [no sound]",
"110 [no sound]",
"111 [no sound]",
"112 [no sound]",
"113 [no sound]",
"114 [no sound]",
"115 [no sound]",
"116 [no sound]",
"117 [no sound]",
"118 [no sound]",
"119 [no sound]",
"120 [no sound]",
"121 [no sound]",
"122 [no sound]",
"123 [no sound]",
"124 [no sound]",
"125 [no sound]",
"126 [no sound]",
"127 [no sound]",
"128 [no sound]"
};

const U8 *arMT32instruments[]={
"AcouPiano 1",
"AcouPiano 2",
"AcouPiano 3",
"ElecPiano 1",
"ElecPiano 2",
"ElecPiano 3",
"ElecPiano 4",
"Honkytonk",
"Elec Org 1",
"Elec Org 2",
"Elec Org 3",
"Elec Org 4",
"Pipe Org 1",
"Pipe Org 2",
"Pipe Org 3",
"Accordion",
"Harpsi 1",
"Harpsi 2",
"Harpsi 3",
"Clavi 1",
"Clavi 2",
"Clavi 3",
"Celesta 1",
"Celesta 2",
"SynBrass 1",
"SynBrass 2",
"SynBrass 3",
"SynBrass 4",
"Syn Bass 1",
"Syn Bass 2",
"Syn Bass 3",
"Syn Bass 4",
"Fantasy",
"Harmo Pan",
"Chorale",
"Glasses",
"Sountrack",
"Atmosphere",
"Warm Bell",
"Funny Vox",
"Echo Bell",
"Ice Rain",
"Oboe 2001",
"Echo Pan",
"DoctorSolo",
"Schooldaze",
"Bellsinger",
"SquareWave",
"Str Sect 1",
"Str Sect 2",
"Str Sect 3",
"Pizzicato",
"Violin 1",
"Violin 2",
"Cello 1",
"Cello 2",
"Contrabass",
"Harp 1",
"Harp 2",
"Guitar 1",
"Guitar 2",
"Elec Gtr 1",
"Elec Gtr 2",
"Sitar",
"AcouBass 1",
"AcouBass 2",
"ElecBass 1",
"ElecBass 2",
"SlapBass 1",
"SlapBass 2",
"Fretless 1",
"Fretless 2",
"Flute 1",
"Flute 2",
"Piccolo 1",
"Piccolo 2",
"Recorder",
"Pan Pipes",
"Sax 1",
"Sax 2",
"Sax 3",
"Sax 4",
"Clarinet 1",
"Clarinet 2",
"Oboe",
"Engl Horn",
"Bassoon",
"Harmonica",
"Trumpet 1",
"Trumpet 2",
"Trombone 1",
"Trombone 2",
"Fr Horn 1",
"Fr Horn 2",
"Tuba",
"Brs Sect 1",
"Brs Sect 2",
"Vibe 1",
"Vibe 2",
"Syn Mallet",
"Windbell",
"Glock",
"Tube Bell",
"Xylophone",
"Marimba",
"Koto",
"Sho",
"Shakuhachi",
"Whistle 1",
"Whistle 2",
"Bottleblow",
"BreathPipe",
"Timpani",
"MelodicTom",
"Deep Snare",
"ElecPerc 1",
"ElecPerc 2",
"Taiko",
"Taiko Rim",
"Cymbal",
"Castanets",
"Triangle",
"Orche Hit",
"Telephone",
"Bird Tweet",
"OneNoteJam",
"WaterBells",
"JungleTune"
};

const U8 *arMT32rhythm[]={
"00 [no sound]",
"01 [no sound]",
"02 [no sound]",
"03 [no sound]",
"04 [no sound]",
"05 [no sound]",
"06 [no sound]",
"07 [no sound]",
"08 [no sound]",
"09 [no sound]",
"0A [no sound]",
"0B [no sound]",
"0C [no sound]",
"0D [no sound]",
"0E [no sound]",
"0F [no sound]",
"10 [no sound]",
"11 [no sound]",
"12 [no sound]",
"13 [no sound]",
"14 [no sound]",
"15 [no sound]",
"16 [no sound]",
"17 [no sound]",
"18 [no sound]",
"19 [no sound]",
"1A [no sound]",
"1B [no sound]",
"1C [no sound]",
"1D [no sound]",
"1E [no sound]",
"1F [no sound]",
"20 [no sound]",
"21 [no sound]",
"Acou BD",
"Acou BD",
"Rim Shot",
"Acou SD",
"Hand Clap",
"Elec SD",
"Acou Low Tom",
"Clsd Hi Hat",
"Acou Low Tom",
"Open Hi Hat 2",
"Acou Mid Tom",
"Open Hi Hat 1",
"Acou Mid Tom",
"Acou Mid Tom",
"Acou Hi Tom",
"Crash Cym",
"Acou Hi Tom",
"Ride Cym",
"34 [no sound]",
"35 [no sound]",
"Tambourine",
"37 [no sound]",
"Cowbell",
"39 [no sound]",
"3A [no sound]",
"3B [no sound]",
"High Bongo",
"Low Bongo",
"Mt High Conga",
"High Conga",
"Low Conga",
"High Timbale",
"Low Timbale",
"High Agogo",
"Low Agogo",
"Cabasa",
"Maracas",
"Smba Whis S",
"Smba Whis L",
"Quijada",
"4A [no sound]",
"Claves",
"4C [no sound]",
"4D [no sound]",
"4E [no sound]",
"4F [no sound]",
"50 [no sound]",
"51 [no sound]",
"52 [no sound]",
"53 [no sound]",
"54 [no sound]",
"55 [no sound]",
"56 [no sound]",
"57 [no sound]",
"58 [no sound]",
"59 [no sound]",
"5A [no sound]",
"5B [no sound]",
"5C [no sound]",
"5D [no sound]",
"5E [no sound]",
"5F [no sound]",
"60 [no sound]",
"61 [no sound]",
"62 [no sound]",
"63 [no sound]",
"64 [no sound]",
"65 [no sound]",
"66 [no sound]",
"67 [no sound]",
"68 [no sound]",
"69 [no sound]",
"6A [no sound]",
"6B [no sound]",
"6C [no sound]",
"6D [no sound]",
"6E [no sound]",
"6F [no sound]",
"70 [no sound]",
"71 [no sound]",
"72 [no sound]",
"73 [no sound]",
"74 [no sound]",
"75 [no sound]",
"76 [no sound]",
"77 [no sound]",
"78 [no sound]",
"79 [no sound]",
"7A [no sound]",
"7B [no sound]",
"7C [no sound]",
"7D [no sound]",
"7E [no sound]",
"7F [no sound]"
};



/* module default settings table */
// CM-32L specific
const U8 *getCM32LInstrName(U8 ubInstrNb){
 return(arCM32Linstruments[ubInstrNb]);
}

const U8 *getCM32LRhythmName(U8 ubNoteNb){
 return(arCM32Lrhythm[ubNoteNb]);
}

// cm-500 specific
const U8 *getCM500SFXName(U8 ubNoteNb){
 return(arCM500sfx[ubNoteNb]);
}

void  allPartsOnCm500(void){
#ifdef IKBD_MIDI_SEND_DIRECT
  for(int i=0;i<8;i++){
    MIDIsendBuffer[MIDIbytesToSend++]=arCM500AllPartsOn[i];
  }
  flushMidiSendBuffer();
#else
    MIDI_SEND_DATA(8,arReset);
#endif
}

void  allPartsOffCm500(void)
{
#ifdef IKBD_MIDI_SEND_DIRECT
  for(int i=0;i<8;i++){
    MIDIsendBuffer[MIDIbytesToSend++]=arCM500AllPartsOff[i];
  }
  flushMidiSendBuffer();
#else
    MIDI_SEND_DATA(8,arReset);
#endif
}

// all
U8 am_calcRolandChecksum(U8 *buf_start, U8 *buf_end){
U8 total = 0 ;
U8 mask  = 0x7F ;

while ( buf_start <= buf_end ){
  total += *buf_start ;
  buf_start++ ;
}

 return (0x80 - (total & mask)) & mask ;
}

void MT32Reset(void){
#ifdef IKBD_MIDI_SEND_DIRECT
  for(int i=0;i<8;i++){
    MIDIsendBuffer[MIDIbytesToSend++]=mt32_Reset[i];
  }
  flushMidiSendBuffer();
#else
    MIDI_SEND_DATA(8,arReset);
#endif
}


